<?xml version="1.0" encoding="UTF-8"?>
<svg xmlns="http://www.w3.org/2000/svg" xmlns:xlink="http://www.w3.org/1999/xlink" id="Layer_1" viewBox="0 0 249 301">
  <defs>
    <style>.cls-1{fill:url(#linear-gradient);}.cls-2{fill:#fff;}.cls-3{fill:#d06c57;}.cls-4{fill:#e0395c;}.cls-5{fill:#d4daee;}.cls-6{fill:url(#linear-gradient-8);}.cls-7{fill:url(#linear-gradient-9);}.cls-8{fill:url(#linear-gradient-3);}.cls-9{fill:url(#linear-gradient-4);}.cls-10{fill:url(#linear-gradient-2);}.cls-11{fill:url(#linear-gradient-6);}.cls-12{fill:url(#linear-gradient-7);}.cls-13{fill:url(#linear-gradient-5);}.cls-14{fill:url(#_ÂÁ_Ï_ÌÌ_È_ËÂÌÚ_2);}.cls-15{fill:#4e4e4e;opacity:.4;}</style>
    <linearGradient id="linear-gradient" x1="40.34" y1="151.24" x2="234.53" y2="151.24" gradientUnits="userSpaceOnUse">
      <stop offset="0" stop-color="#003b4d"></stop>
      <stop offset=".55" stop-color="#476080"></stop>
      <stop offset="1" stop-color="#41607f"></stop>
    </linearGradient>
    <linearGradient id="linear-gradient-2" x1="239.42" y1="148.97" x2="110.13" y2="151.74" xlink:href="#linear-gradient"></linearGradient>
    <linearGradient id="_ÂÁ_Ï_ÌÌ_È_ËÂÌÚ_2" x1="79.31" y1="114.66" x2="204.04" y2="114.66" gradientUnits="userSpaceOnUse">
      <stop offset="0" stop-color="#efeff6"></stop>
      <stop offset="1" stop-color="#d3d5ea"></stop>
    </linearGradient>
    <linearGradient id="linear-gradient-3" x1="238.77" y1="114.66" x2="363.5" y2="114.66" gradientTransform="translate(442.81) rotate(-180) scale(1 -1)" gradientUnits="userSpaceOnUse">
      <stop offset="0" stop-color="#93a4d4"></stop>
      <stop offset="1" stop-color="#e0e8f4"></stop>
    </linearGradient>
    <linearGradient id="linear-gradient-4" x1="120.76" y1="70.02" x2="168.17" y2="70.02" gradientUnits="userSpaceOnUse">
      <stop offset="0" stop-color="#f39322"></stop>
      <stop offset=".8" stop-color="#f8b229"></stop>
      <stop offset="1" stop-color="#fabb2b"></stop>
    </linearGradient>
    <linearGradient id="linear-gradient-5" x1="19.12" y1="158.77" x2="179.91" y2="158.77" xlink:href="#linear-gradient"></linearGradient>
    <linearGradient id="linear-gradient-6" x1="239.56" y1="155.77" x2="110.28" y2="158.54" xlink:href="#linear-gradient"></linearGradient>
    <linearGradient id="linear-gradient-7" x1="87.4" y1="157.73" x2="124.91" y2="157.73" xlink:href="#linear-gradient-4"></linearGradient>
    <linearGradient id="linear-gradient-8" x1="85.94" y1="158.57" x2="118.69" y2="158.57" gradientUnits="userSpaceOnUse">
      <stop offset="0" stop-color="#ed7124"></stop>
      <stop offset="1" stop-color="#ea5b2d"></stop>
    </linearGradient>
    <linearGradient id="linear-gradient-9" x1="84.66" y1="137.51" x2="129.74" y2="137.51" xlink:href="#linear-gradient-4"></linearGradient>
  </defs>
  <circle class="cls-4" cx="124.73" cy="177.47" r="115.84"></circle>
  <path class="cls-1" d="m150.69,97.58c2.14,1.23,5.34.88,7.82-.86l21.54-15.17c4.03-2.85,9.7-2.73,15.02.33l34.04,19.61c7.03,4.06,5.85,10.6,3.98,17.62l-35.05,123.23c-1.45,5.46-5.65,7.01-11.1,3.87L47.95,166.26c-5.46-3.15-8.72-10.12-7.27-15.58l26.44-90.92c.95-3.57,7.47-6.35,10.61-4.54l72.95,42.36Z"></path>
  <path class="cls-10" d="m186.09,247.68L47.11,167.73c-6.17-3.56-9.71-11.23-8.04-17.51l26.43-90.89c.59-2.21,2.67-4.25,5.57-5.46,2.81-1.16,5.62-1.21,7.52-.11l72.95,42.36c1.56.89,4.09.56,6-.79l21.54-15.17c4.6-3.27,10.9-3.17,16.83.25l34.04,19.62c8.64,4.98,6.31,13.73,4.76,19.55l-35.04,123.2c-1.04,3.91-3.17,5.52-4.78,6.19-.73.31-1.67.55-2.83.55-1.59,0-3.59-.46-5.97-1.84Zm-5.07-164.75l-21.54,15.16c-3.03,2.14-6.91,2.52-9.63.94h0l-72.94-42.35c-.95-.55-2.77-.43-4.53.31-1.85.77-3.3,2.06-3.62,3.24l-26.43,90.89c-1.26,4.76,1.64,10.9,6.48,13.69l138.98,79.95c2.32,1.34,4.34,1.72,5.82,1.09,1.64-.68,2.43-2.52,2.81-3.96l35.05-123.2c1.87-7.05,2.74-12.31-3.19-15.73l-34.04-19.61c-2.51-1.45-5.07-2.18-7.44-2.18-2.13,0-4.11.59-5.77,1.76Z"></path>
  <path class="cls-14" d="m79.31,40.91c0-.84.6-1.19,1.32-.76l122.08,70.48c.73.42,1.33,1.45,1.33,2.3v75.5c0,.84-.6,1.19-1.33.77l-122.08-70.48c-.73-.42-1.32-1.45-1.32-2.3V40.91Z"></path>
  <path class="cls-8" d="m202.71,110.62L80.64,40.14c-.73-.42-1.32-.08-1.32.76v.72l121.49,70.14c.73.42,1.33,1.45,1.33,2.29v74.78l.59.34c.73.42,1.33.08,1.33-.77v-75.5c0-.84-.6-1.87-1.33-2.3Z"></path>
  <polygon class="cls-5" points="116.6 82.64 116.6 87.88 89.39 72.16 89.39 66.72 116.6 82.64"></polygon>
  <polygon class="cls-5" points="134.63 109.31 134.63 114.54 89.39 88.7 89.39 83.26 134.63 109.31"></polygon>
  <polygon class="cls-5" points="134.63 123.09 134.63 128.32 89.39 102.48 89.39 97.04 134.63 123.09"></polygon>
  <polygon class="cls-5" points="132.79 130.87 132.79 136.11 87.54 110.27 87.54 104.82 132.79 130.87"></polygon>
  <polygon class="cls-9" points="144.47 115.94 168.17 76.49 152.39 67.51 152.39 33.1 136.54 24.09 136.54 58.49 120.76 49.51 144.47 115.94"></polygon>
  <path class="cls-3" d="m119.2,47.65l16.49,9.39V22.63l17.54,9.98v34.41l16.1,9.16-25.06,41.72-25.07-70.25Zm32.34,20.35v-34.4l-14.16-8.06v34.4l-15.06-8.58,22.34,62.62,22.34-37.19-15.46-8.8Z"></path>
  <path class="cls-13" d="m98.93,112.42c2.15,1.23,4.46.87,5.62-.87l10.11-15.16c1.88-2.86,6.27-2.73,11.62.33l43.19,22.79c7.08,4.06,8.91,10.6,10.43,17.62l-1.24,105.22c1.18,5.46-2.32,7.33-7.82,4.18L32.05,166.26c-5.36-2.43-8.33-5.92-10.09-9.55-1.39-2.89-1.99-6.09-2.02-9.29l-.73-72.82c-.77-3.56,3.05-6.35,6.21-4.54l73.51,42.36Z"></path>
  <path class="cls-11" d="m170,247.98L31.36,167.8c-5.1-2.31-8.66-5.7-10.91-10.35-1.42-2.93-2.15-6.31-2.19-10.01l-.72-72.66c-.41-2.25.47-4.46,2.32-5.83,1.91-1.39,4.36-1.53,6.41-.35l73.51,42.36c1.13.65,2.61.79,3.37-.34l10.11-15.16c2.44-3.71,7.62-3.79,13.81-.23l43.25,22.82c7.59,4.34,9.64,11.34,11.24,18.73.03.13.04.25.04.38l-1.24,105.04c.81,4.04-.75,5.88-1.77,6.63-.85.62-1.88.93-3.05.93-1.62,0-3.5-.59-5.54-1.76Zm-1.31-126.99l-43.25-22.82c-4.46-2.55-8.04-2.89-9.37-.86l-10.11,15.16c-1.65,2.48-4.96,3.05-7.86,1.4,0,0,0,0,0,0L24.59,71.53c-.89-.51-1.92-.45-2.75.15-.83.61-1.19,1.56-.97,2.57.02.11.04.22.04.34l.73,72.82c.03,3.2.66,6.09,1.85,8.58,1.89,3.91,4.92,6.77,9.42,8.82l138.78,80.25c2.61,1.5,4.28,1.5,4.91,1.03.62-.45.78-1.72.42-3.38-.03-.13-.04-.25-.04-.38l1.24-105.03c-1.53-7.03-3.24-12.7-9.53-16.31Z"></path>
  <path class="cls-15" d="m113.32,135.49c-2.98-1.72-16.16-4.74-19.76-5.61v25.03c0,12.52,8.85,27.78,19.76,34.09,5.08,2.93,9.71,3.41,13.22,1.81,3.31-1.5,5.6-4.85,6.31-9.71.16-1.05.24-2.18.24-3.37v-25.03c-6.59-6.01-13.18-13.4-19.76-17.21Z"></path>
  <path class="cls-12" d="m106.15,133.71c-2.83-1.63-15.33-4.49-18.75-5.32v23.75c0,11.88,8.4,26.36,18.75,32.34,4.82,2.79,9.22,3.23,12.55,1.72,3.13-1.42,5.31-4.6,5.98-9.22.15-.99.23-2.06.23-3.19v-23.75c-6.25-5.71-12.5-12.72-18.76-16.33Z"></path>
  <path class="cls-6" d="m118.69,186.2c-.21.15-.43.29-.66.43-3.4,1.99-8.12,1.71-13.34-1.3-10.36-5.98-18.75-20.47-18.75-32.35v-23.75c.48.12.96.24,1.45.37v22.54c0,11.88,8.4,26.36,18.75,32.34,4.82,2.79,9.22,3.23,12.55,1.72Z"></path>
  <path class="cls-3" d="m129.74,147.63v24.85c0,6.15-2.11,10.51-5.38,12.32l-5.72,3.17c.52-.63,6.08-9.04,6.08-12.58v-24.86s-13.69-13.78-20.03-17.44c-5.55-3.2-20.03-5.7-20.03-5.7l5.01-2.89s13.7,2.03,20.04,5.7c6.34,3.66,20.03,17.44,20.03,17.44Z"></path>
  <path class="cls-7" d="m129.74,147.63l-5.01,2.89s-13.69-13.78-20.03-17.44c-6.34-3.67-20.03-5.7-20.03-5.7l5.01-2.89s13.58,1.7,19.92,5.36c6.34,3.67,20.15,17.78,20.15,17.78Z"></path>
  <path class="cls-3" d="m104.7,133.08c-6.02-3.22-14.75-4.94-20.03-5.7v24.86c0,12.67,8.99,28.18,20.03,34.56,5.7,3.29,10.92,3.09,14.58.79,3.35-2.16,5.55-6.21,5.45-12.22v-24.86s-11.76-13.01-20.03-17.44Zm18.75,41.55c0,5.5-1.8,9.48-4.75,11.57-.21.15-.43.29-.66.43-3.4,1.99-8.12,1.71-13.34-1.3-10.36-5.98-18.75-20.47-18.75-32.35v-23.75c6.28,1.52,12.59,1.76,18.75,5.32,6.25,3.61,12.5,10.63,18.75,16.33v23.75Z"></path>
  <path class="cls-2" d="m106.09,170.71c-.51-.09-1.01-.27-1.52-.55-.67-.37-1.32-.89-1.94-1.56-.96-1.04-1.8-2.39-2.42-3.91-.56-1.37-.93-2.84-1.06-4.26-.18-1.85.03-3.56.61-4.96.3-.72.68-1.34,1.14-1.84,1.03-1.11,2.35-1.56,3.82-1.31,3.56.61,6.85,5.24,7.34,10.32.04.39-.15.66-.42.62-.27-.05-.52-.4-.56-.78-.41-4.31-3.2-8.23-6.22-8.75-1.25-.21-2.37.17-3.24,1.11-.39.42-.72.95-.97,1.56-.49,1.19-.66,2.64-.51,4.21.12,1.21.43,2.47.91,3.63.53,1.29,1.24,2.44,2.05,3.32.51.56,1.06.99,1.61,1.3.53.29,1.07.46,1.6.49.81.05,1.32-.29,1.14-2.12-.06-.66-.33-1.19-.81-1.64-.33-.31-.65-.46-.75-.5-1.35-.27-2.59-2.03-2.78-3.96-.07-.71.01-1.38.24-1.92.12-.29.42-.32.66-.07.25.26.34.7.22.99-.14.33-.18.73-.14,1.16.11,1.18.88,2.26,1.71,2.4h.04s.04.02.04.02c.79.3,2.34,1.46,2.56,3.68.22,2.33-.42,3.46-1.92,3.37-.14,0-.28-.02-.42-.05Z"></path>
  <path class="cls-2" d="m107.66,162.79s-.02,0-.03,0c-.27-.07-.51-.44-.53-.83-.03-.69-.3-1.41-.72-1.91-.26-.31-.56-.53-.86-.61-.27-.08-.51-.45-.52-.84-.01-.38.2-.63.47-.55.5.15,1,.5,1.43,1.01.7.84,1.14,2.02,1.2,3.16.02.37-.17.61-.43.57Z"></path>
  <path class="cls-2" d="m106.21,167.95c-1.24-.21-2.46-1.11-3.44-2.54-.98-1.43-1.58-3.18-1.69-4.94-.21-3.25,1.41-5.61,3.69-5.37.27.03.53.37.58.75.05.39-.13.68-.4.65-1.78-.19-3.04,1.65-2.88,4.19.09,1.38.56,2.75,1.32,3.86.77,1.11,1.72,1.82,2.69,1.98.27.05.52.4.56.78s-.15.66-.42.62Z"></path>
  <path class="cls-2" d="m98.45,164.79c-.2-.03-.41-.25-.51-.54-.45-1.36-.75-2.76-.88-4.16-.32-3.31.3-6.26,1.74-8.29,1.44-2.03,3.52-2.88,5.85-2.38,2.25.47,4.46,2.13,6.23,4.68,1.77,2.55,2.91,5.71,3.22,8.92.04.42.07.84.08,1.25.02.96-.23,1.78-.7,2.26-.03.03-.06.07-.09.1-.27.29-.67.74-1.6.35-1.35-.56-2.02-1.89-2.35-2.9-.33-1.04-.36-1.96-.36-2,0-.38.21-.62.48-.54.27.09.5.46.51.84,0,0,.02.69.27,1.44.3.92.79,1.51,1.49,1.8.48.2.62.05.84-.2.04-.04.07-.08.11-.12.27-.28.42-.77.41-1.35,0-.36-.03-.73-.07-1.11-.56-5.88-4.24-11.17-8.37-12.03-2.06-.43-3.9.32-5.18,2.11-1.27,1.79-1.82,4.4-1.54,7.33.12,1.24.38,2.48.78,3.68.13.38.03.76-.21.84-.05.02-.11.02-.16.01Z"></path>
  <path class="cls-2" d="m96.06,154.23c-.07-.01-.15-.05-.23-.11-.26-.22-.4-.65-.31-.98.63-2.3,1.76-4.14,3.24-5.32,1.53-1.21,3.39-1.68,5.38-1.34,3.2.55,6.38,3.1,8.74,7,.2.33.21.77.02.97-.19.21-.5.11-.7-.22-2.14-3.54-5.03-5.85-7.93-6.35-3.63-.62-6.63,1.69-7.82,6.04-.06.23-.22.34-.4.31Z"></path>
  <path class="cls-2" d="m107.14,173.69s-.05,0-.08-.01c-1.47-.27-2.93-.94-4.34-2.02-.26-.2-.41-.63-.34-.97.08-.33.35-.44.61-.25,1.28.97,2.6,1.59,3.93,1.83.15.03.31.05.46.07.27.03.53.37.58.76.05.39-.13.68-.4.65-.14-.02-.29-.04-.44-.06Z"></path>
  <path class="cls-2" d="m110.96,149.01c-.09-.02-.19-.07-.28-.16-2.08-2.13-4.38-3.47-6.68-3.86-1.96-.34-3.82.04-5.4,1.09-.22.15-.53-.03-.69-.39-.16-.36-.12-.77.1-.92,1.71-1.14,3.73-1.55,5.85-1.19,2.49.42,4.99,1.87,7.24,4.18.25.25.35.7.23,1-.08.19-.22.27-.38.24Z"></path>
</svg>
