<?xml version="1.0" encoding="UTF-8"?>
<svg xmlns="http://www.w3.org/2000/svg" xmlns:xlink="http://www.w3.org/1999/xlink" viewBox="0 0 249 301">
  <defs>
    <style>.cls-1{mix-blend-mode:screen;opacity:.25;}.cls-1,.cls-2{fill:#fff;}.cls-3{fill:url(#linear-gradient);}.cls-4{fill:#043746;}.cls-5{fill:#f29300;}.cls-6{fill:#c43b51;}.cls-7{fill:#e0395c;}.cls-8{fill:#d36750;}.cls-9{fill:#211a45;}.cls-10{fill:url(#linear-gradient-8);mix-blend-mode:multiply;}.cls-11{fill:url(#linear-gradient-3);}.cls-12{fill:url(#linear-gradient-4);}.cls-13{fill:url(#linear-gradient-2);}.cls-14{fill:url(#linear-gradient-6);}.cls-15{fill:url(#linear-gradient-7);}.cls-16{fill:url(#linear-gradient-5);}.cls-17{isolation:isolate;}.cls-18{fill:url(#_ÂÁ_Ï_ÌÌ_È_ËÂÌÚ_4);}</style>
    <linearGradient id="linear-gradient" x1="122.55" y1="145.78" x2="202.74" y2="145.78" gradientUnits="userSpaceOnUse">
      <stop offset="0" stop-color="#f29300"></stop>
      <stop offset=".73" stop-color="#f8b203"></stop>
      <stop offset="1" stop-color="#fbbf05"></stop>
    </linearGradient>
    <linearGradient id="linear-gradient-2" x1="172.55" y1="171.19" y2="171.19" xlink:href="#linear-gradient"></linearGradient>
    <linearGradient id="linear-gradient-3" x1="102.8" y1="155.78" x2="183" y2="155.78" xlink:href="#linear-gradient"></linearGradient>
    <linearGradient id="linear-gradient-4" x1="104.42" y1="102.77" y2="102.77" xlink:href="#linear-gradient"></linearGradient>
    <linearGradient id="_ÂÁ_Ï_ÌÌ_È_ËÂÌÚ_4" x1="171.6" y1="75.9" x2="227.03" y2="75.9" gradientUnits="userSpaceOnUse">
      <stop offset="0" stop-color="#d5dcf0"></stop>
      <stop offset="1" stop-color="#c7c8e6"></stop>
    </linearGradient>
    <linearGradient id="linear-gradient-5" x1="61.34" y1="182.43" x2="143.05" y2="182.43" gradientTransform="translate(-43.45) skewX(7)" gradientUnits="userSpaceOnUse">
      <stop offset="0" stop-color="#003b4d"></stop>
      <stop offset=".55" stop-color="#476080"></stop>
      <stop offset="1" stop-color="#41607f"></stop>
    </linearGradient>
    <linearGradient id="linear-gradient-6" x1="4826.91" y1="188.91" x2="4841.21" y2="188.91" gradientTransform="translate(-4733.62)" xlink:href="#linear-gradient"></linearGradient>
    <linearGradient id="linear-gradient-7" x1="4824.32" y1="208.08" x2="4843.49" y2="208.08" gradientTransform="translate(-4733.62)" xlink:href="#linear-gradient"></linearGradient>
    <linearGradient id="linear-gradient-8" x1="41.98" y1="151.51" x2="120.3" y2="151.51" gradientUnits="userSpaceOnUse">
      <stop offset="0" stop-color="#3164ad"></stop>
      <stop offset="1" stop-color="#459ad5"></stop>
    </linearGradient>
  </defs>
  <g class="cls-17">
    <g id="Layer_1">
      <circle class="cls-7" cx="124.73" cy="177.47" r="115.84"></circle>
      <path class="cls-3" d="m161.21,208.47h0c-21.7-11.75-39.01-35.2-38.66-52.38l1.61-79.59,78.57,42.55-1.61,79.59c-.35,17.18-18.22,21.58-39.91,9.84Z"></path>
      <polygon class="cls-13" points="183 129.05 202.74 119.04 193.07 212.96 172.55 223.34 183 129.05"></polygon>
      <path class="cls-11" d="m141.47,218.48h0c-21.7-11.75-39.01-35.2-38.66-52.38l1.61-79.59,78.57,42.55-1.61,79.59c-.35,17.18-18.22,21.58-39.92,9.84Z"></path>
      <polygon class="cls-12" points="104.42 86.5 124.17 76.5 202.74 119.04 183 129.05 104.42 86.5"></polygon>
      <path class="cls-18" d="m227.03,76.73c0-14.64-11.37-32.45-25.88-40.56-7.81-4.36-15.54-5.22-21.2-2.36-5.38,2.72-8.35,8.35-8.35,15.86v63.87c0,1.11,2.4,2.48,5.37,3.06,2.96.58,5.36.14,5.36-.97v-63.87c0-3.91,1.33-6.74,3.77-7.97,2.75-1.39,6.91-.75,11.39,1.74,10.2,5.69,18.82,19.02,18.82,29.11v41.51l.1.02c-.02.06-.1.1-.1.16,0,1.11,2.4,2.48,5.37,3.06,2.97.57,5.37.14,5.37-.97,0-.06-.08-.14-.1-.2l.1.02v-41.51Z"></path>
      <path class="cls-5" d="m149.56,156.37c1.98-.81,3.22-2.82,3.22-5.83,0-5.98-4.85-13.61-10.82-17.06-5.98-3.45-10.82-1.4-10.82,4.57,0,3.49,1.67,7.55,4.24,11.01.26.35.38.79.3,1.22l-4.21,25.31c-.11.68.2,1.36.8,1.71l17.4,10.33c1.2.72,2.69-.28,2.51-1.66l-3.84-27.78c-.12-.83.45-1.5,1.23-1.82Z"></path>
      <path class="cls-8" d="m139.65,178.79c-.59-.35-.91-1.03-.8-1.71l4.21-25.31c.07-.43-.04-.87-.31-1.22-2.57-3.46-4.23-7.52-4.23-11.01,0-3.2,1.41-5.22,3.61-5.93-.06-.04-.11-.08-.17-.12-5.98-3.45-10.82-1.4-10.82,4.57,0,3.49,1.67,7.55,4.24,11.01.26.35.38.79.3,1.22l-4.21,25.31c-.11.68.2,1.36.8,1.71l17.4,10.33c1.13.67,2.47-.18,2.47-1.43l-12.49-7.41Z"></path>
      <path class="cls-6" d="m138.86,92.69c-.29,1.28-3.31,1.67-6.73.88-3.43-.79-5.96-2.46-5.67-3.74.29-1.28,3.31-1.67,6.73-.88,3.43.79,5.96,2.46,5.67,3.74Z"></path>
      <path class="cls-8" d="m133.19,90.28c2.66.61,4.76,1.76,5.44,2.83.11-.13.19-.27.22-.42.3-1.28-2.24-2.95-5.67-3.74-3.43-.79-6.44-.4-6.73.88-.07.29.03.59.23.9.81-.93,3.5-1.15,6.51-.45Z"></path>
      <path class="cls-4" d="m122.23,167.87v7.57l-.02,60.31c0,1.44-1.84,2.24-3.35,1.44l-5.85-3.08-66.12-34.71c-1.85-.97-3.01-2.68-2.99-4.45v-67.89c.01-1.44,1.85-2.24,3.36-1.45l71.96,37.81c1.84.97,2.98,2.68,3,4.45Z"></path>
      <path class="cls-9" d="m122.23,167.87v7.57l-1.92,1.26-73.96-42.99-2.44-1.88v-4.77c.01-1.44,1.85-2.24,3.36-1.45l71.96,37.81c1.84.97,2.98,2.68,3,4.45Z"></path>
      <path class="cls-16" d="m120.31,168.9v7.8s-.01,60.08-.01,60.08c0,1.43-1.84,2.24-3.36,1.44l-5.84-3.08-66.13-34.71c-.41-.22-.78-.47-1.12-.76-1.18-.98-1.87-2.33-1.86-3.7v-67.89c.02-1.43,1.85-2.23,3.37-1.44l71.96,37.8c1.85.97,2.99,2.67,2.99,4.46Z"></path>
      <path class="cls-5" d="m108.48,195.37h0s-2.59,1.61-2.59,1.61l-.86-1.31c-.6-.17-1.23-.43-1.88-.8-3.95-2.27-7.12-7.54-7.09-11.78,0-.36.04-.7.08-1.02l-.9-1.38,2.39-1.46c.2-.16.42-.29.65-.4h.02s0,0,0,0c1.29-.58,3.04-.4,4.96.7,3.94,2.27,7.12,7.54,7.09,11.78-.02,1.98-.73,3.38-1.89,4.08Z"></path>
      <path class="cls-5" d="m93.48,204.5c.01-1.51.33-2.87.89-4l-.33-.94s2.43-1.51,2.53-1.56l.31-.18c1.68-.89,3.86-.86,6.24.51,5.3,3.04,9.58,11.49,9.54,17.18l-2.77,1.72-6.17-5.73,1.22-.42-11.44-6.58Z"></path>
      <path class="cls-14" d="m100.51,181.23c3.94,2.27,7.11,7.54,7.09,11.78-.04,4.24-3.26,5.84-7.21,3.57-3.95-2.27-7.11-7.54-7.09-11.78.04-4.24,3.26-5.83,7.21-3.57Z"></path>
      <path class="cls-15" d="m100.33,200.05c5.3,3.04,9.58,11.49,9.54,17.18l-19.17-11.01c.04-5.68,4.34-9.21,9.63-6.17Z"></path>
      <path class="cls-10" d="m120.3,168.9v7.8s-78.33-41.38-78.33-41.38v-7.24c.02-1.43,1.86-2.23,3.37-1.45l71.97,37.8c1.85.97,2.99,2.67,2.99,4.46Z"></path>
      <path class="cls-1" d="m103.98,157.4l-60.13,42.27c-1.18-.98-1.87-2.33-1.86-3.7v-67.89c.02-1.43,1.85-2.23,3.37-1.44l58.62,30.76Z"></path>
      <path class="cls-2" d="m99.07,163.32l-7.07-3.86c-.2-.11-.37-.35-.37-.53s.17-.24.37-.12l7.07,3.86c.21.11.37.35.37.53,0,.18-.17.24-.37.12Z"></path>
      <path class="cls-2" d="m115.78,172.46c-.11-.06-.22-.16-.29-.28l-4.51-7.26c-.13-.21-.11-.41.05-.43.16-.03.39.12.52.33l4.51,7.26c.13.21.11.4-.05.43-.07.01-.15,0-.24-.05Z"></path>
      <path class="cls-2" d="m111.26,169.99c-.08-.05-.17-.12-.24-.21-.16-.2-.18-.42-.04-.49l4.54-2.32c.14-.06.37.04.52.24.16.2.18.42.05.49l-4.54,2.32c-.08.04-.18.02-.29-.04Z"></path>
      <path class="cls-2" d="m104.98,166.58c-1.72-.94-3.11-2.93-3.1-4.44,0-1.51,1.41-1.98,3.12-1.04,1.71.94,3.11,2.93,3.1,4.44,0,1.51-1.41,1.98-3.12,1.04Zm.02-4.83c-1.31-.71-2.37-.36-2.38.79,0,1.16,1.06,2.67,2.36,3.38,1.3.72,2.37.36,2.38-.79,0-1.15-1.06-2.67-2.36-3.38Z"></path>
    </g>
  </g>
</svg>
