<?xml version="1.0" encoding="UTF-8"?>
<svg xmlns="http://www.w3.org/2000/svg" xmlns:xlink="http://www.w3.org/1999/xlink" id="Layer_1" viewBox="0 0 249 301">
  <defs>
    <style>.cls-1{fill:url(#linear-gradient);}.cls-2{fill:url(#_ÂÁ_Ï_ÌÌ_È_ËÂÌÚ_42);}.cls-3{fill:url(#_ÂÁ_Ï_ÌÌ_È_ËÂÌÚ_31);}.cls-4{fill:#f29300;}.cls-5{fill:#fff;}.cls-6{fill:#ececf1;}.cls-7{fill:#e0395c;}.cls-8{fill:#d36750;}.cls-9{fill:#232752;}.cls-10{fill:#4e549f;}.cls-11{fill:url(#_ÂÁ_Ï_ÌÌ_È_ËÂÌÚ_31-2);}.cls-12{fill:url(#_ÂÁ_Ï_ÌÌ_È_ËÂÌÚ_31-3);}.cls-13{fill:url(#linear-gradient-8);}.cls-14{fill:url(#linear-gradient-9);}.cls-15{fill:url(#linear-gradient-3);}.cls-16{fill:url(#linear-gradient-4);}.cls-17{fill:url(#linear-gradient-2);}.cls-18{fill:url(#linear-gradient-6);}.cls-19{fill:url(#linear-gradient-7);}.cls-20{fill:url(#linear-gradient-5);}.cls-21{fill:url(#linear-gradient-10);}</style>
    <linearGradient id="_ÂÁ_Ï_ÌÌ_È_ËÂÌÚ_31" x1="74.75" y1="142.83" x2="192.78" y2="142.83" gradientUnits="userSpaceOnUse">
      <stop offset="0" stop-color="#c9d5ed"></stop>
      <stop offset="1" stop-color="#b9c0e2"></stop>
    </linearGradient>
    <linearGradient id="_ÂÁ_Ï_ÌÌ_È_ËÂÌÚ_31-2" x1="95.96" y1="86.89" x2="109.96" y2="86.89" xlink:href="#_ÂÁ_Ï_ÌÌ_È_ËÂÌÚ_31"></linearGradient>
    <linearGradient id="_ÂÁ_Ï_ÌÌ_È_ËÂÌÚ_31-3" x1="94.31" y1="104.95" x2="112.07" y2="104.95" xlink:href="#_ÂÁ_Ï_ÌÌ_È_ËÂÌÚ_31"></linearGradient>
    <linearGradient id="linear-gradient" x1="172.17" y1="133.22" x2="181.3" y2="133.22" gradientUnits="userSpaceOnUse">
      <stop offset="0" stop-color="#f29300"></stop>
      <stop offset=".73" stop-color="#f8b203"></stop>
      <stop offset="1" stop-color="#fbbf05"></stop>
    </linearGradient>
    <linearGradient id="linear-gradient-2" x1="161.93" y1="127.35" x2="171.07" y2="127.35" xlink:href="#linear-gradient"></linearGradient>
    <linearGradient id="linear-gradient-3" x1="151.69" y1="121.48" x2="160.83" y2="121.48" xlink:href="#linear-gradient"></linearGradient>
    <linearGradient id="linear-gradient-4" x1="141.45" y1="115.61" x2="150.59" y2="115.61" xlink:href="#linear-gradient"></linearGradient>
    <linearGradient id="linear-gradient-5" x1="131.21" y1="109.74" x2="140.35" y2="109.74" xlink:href="#linear-gradient"></linearGradient>
    <linearGradient id="linear-gradient-6" x1="58.6" y1="149.12" x2="203.98" y2="149.12" gradientUnits="userSpaceOnUse">
      <stop offset="0" stop-color="#003b4d"></stop>
      <stop offset=".55" stop-color="#476080"></stop>
      <stop offset="1" stop-color="#41607f"></stop>
    </linearGradient>
    <linearGradient id="linear-gradient-7" x1="56.86" y1="149.99" x2="202.24" y2="149.99" xlink:href="#linear-gradient-6"></linearGradient>
    <linearGradient id="linear-gradient-8" x1="5040.59" y1="185.81" x2="5019.87" y2="148.08" gradientTransform="translate(-4916.82)" xlink:href="#linear-gradient"></linearGradient>
    <linearGradient id="_ÂÁ_Ï_ÌÌ_È_ËÂÌÚ_42" x1="111.81" y1="129.46" x2="132.94" y2="129.46" gradientUnits="userSpaceOnUse">
      <stop offset="0" stop-color="#eeeff8"></stop>
      <stop offset="1" stop-color="#d2d5ed"></stop>
    </linearGradient>
    <linearGradient id="linear-gradient-9" x1="13.11" y1="192.6" x2="108.74" y2="192.6" xlink:href="#linear-gradient"></linearGradient>
    <linearGradient id="linear-gradient-10" x1="16.57" y1="204.71" x2="58.23" y2="204.71" xlink:href="#linear-gradient"></linearGradient>
  </defs>
  <circle class="cls-7" cx="124.73" cy="177.47" r="115.84"></circle>
  <path class="cls-9" d="m194.38,244.11s7.86-.59,15.07-7.92c10.65-10.83-21.1-15.95-21.1-15.95l-7.14,13.71,13.17,10.16Z"></path>
  <path class="cls-9" d="m210.12,233.6c1.66-2.79,1.36-2.74,1.44-4.58.05-.48.08-.97.08-1.47l-.56-71.34c-.06-7.8-4.28-14.98-11.06-18.84l-69.54-39.5c-5.71-3.24-9.75-10.2-9.8-16.9-.04-4.4-2.41-8.44-6.23-10.61l-32.29-18.34c-8.14-4.62-15.97.16-15.9,9.71l.73,91.05c.05,6.69,4.08,13.65,9.79,16.89l106.11,60.27-1.59,3.06,12.36,6.88s3.51,3.29,12.12-2.1c1.92-1.75,3.47-2.8,4.34-4.19Z"></path>
  <path class="cls-3" d="m191.08,105.48l-108.43-60.11c-2.19-1.21-7.9-.04-7.9,4.88l3.03,124.39c0,1.19.64,2.29,1.69,2.87l106.36,62.86c2.19,1.21,6.94-.53,6.94-5.62v-126.4c0-1.19-.65-2.29-1.69-2.87Z"></path>
  <path class="cls-6" d="m188.93,107.16l-109.29-60.59c-2.2-1.22-4.91.37-4.91,2.89v127.13c0,1.2.65,2.31,1.7,2.89l109.29,60.58c2.2,1.23,4.91-.37,4.91-2.89v-127.13c0-1.2-.65-2.31-1.7-2.89Z"></path>
  <path class="cls-7" d="m121.31,106.99c-2.4,12.35-12.02,17.46-21.48,11.42-9.46-6.04-15.19-20.95-12.79-33.3,2.4-12.35,12.02-17.46,21.48-11.42,9.46,6.05,15.19,20.95,12.79,33.31Z"></path>
  <path class="cls-11" d="m108.2,93.97h0s-2.4,1.49-2.4,1.49l-.79-1.21c-.56-.16-1.14-.4-1.74-.74-3.66-2.1-6.59-6.99-6.56-10.92,0-.33.03-.65.08-.95l-.83-1.28,2.21-1.35c.19-.15.39-.27.6-.37h.02s0-.01,0-.01c1.2-.54,2.81-.37,4.59.65,3.65,2.1,6.59,6.99,6.57,10.92-.01,1.83-.68,3.13-1.75,3.78Z"></path>
  <path class="cls-12" d="m94.31,102.42c.01-1.4.31-2.66.83-3.7l-.31-.87s2.26-1.39,2.34-1.45l.28-.17c1.56-.82,3.57-.8,5.78.47,4.91,2.81,8.88,10.64,8.83,15.91l-2.57,1.59-5.72-5.31,1.13-.39-10.6-6.09Z"></path>
  <path class="cls-5" d="m100.82,80.87c3.65,2.1,6.59,6.99,6.57,10.91-.03,3.93-3.02,5.41-6.68,3.31-3.66-2.1-6.59-6.99-6.56-10.91.03-3.93,3.02-5.4,6.68-3.31Z"></path>
  <path class="cls-5" d="m100.66,98.3c4.91,2.81,8.87,10.64,8.84,15.91l-17.76-10.2c.04-5.26,4.02-8.53,8.92-5.71Z"></path>
  <polygon class="cls-10" points="111.43 187.49 88.94 174.71 88.94 180.02 111.43 192.8 111.43 187.49"></polygon>
  <polygon class="cls-10" points="163.76 217.7 141.27 204.93 141.27 210.24 163.76 223.01 163.76 217.7"></polygon>
  <polygon class="cls-10" points="137.4 202.38 114.91 189.61 114.91 194.92 137.4 207.7 137.4 202.38"></polygon>
  <path class="cls-1" d="m179.49,135.42c-.12.08-.17.24-.14.47l.38,3.13c.08.55-.33.68-.7.24l-2.07-2.56c-.06-.08-.14-.14-.22-.18-.08-.06-.15-.09-.23-.08l-2.07.2c-.35.03-.78-.59-.7-1.05l.4-2.69c.03-.18-.03-.43-.14-.63l-1.68-3.02c-.29-.53-.14-1.05.27-.9l2.3.9c.17.06.31.02.37-.12l1.04-2.06c.09-.18.28-.2.44-.08.17.09.34.31.43.58l1.04,3.23c.08.23.21.43.37.55l2.32,1.75c.4.31.55,1.01.26,1.2l-1.66,1.1Z"></path>
  <path class="cls-17" d="m166.06,121.2l-1.03,2.05c-.07.14-.21.19-.37.13l-2.32-.9c-.4-.15-.55.37-.27.9l1.67,3.02c.12.21.17.44.14.63l-.4,2.68c-.07.46.35,1.09.7,1.05l2.07-.19c.14-.01.31.09.45.26l2.07,2.56c.36.44.77.3.7-.24l-.4-3.14c-.03-.21.03-.39.14-.46l1.68-1.1c.29-.19.13-.9-.27-1.2l-2.31-1.75c-.16-.12-.29-.33-.37-.55l-1.04-3.24c-.18-.56-.69-.86-.87-.5Z"></path>
  <path class="cls-15" d="m155.82,115.33l-1.04,2.06c-.07.14-.21.19-.37.12l-2.31-.9c-.4-.16-.56.37-.27.89l1.67,3.02c.11.21.17.44.14.63l-.4,2.68c-.07.46.35,1.09.7,1.05l2.07-.19c.14-.01.31.08.45.26l2.07,2.56c.36.44.77.3.7-.24l-.4-3.14c-.03-.21.03-.39.14-.46l1.68-1.1c.29-.19.13-.9-.27-1.2l-2.32-1.75c-.16-.12-.29-.32-.37-.55l-1.04-3.24c-.18-.56-.69-.86-.87-.5Z"></path>
  <path class="cls-16" d="m145.58,109.46l-1.04,2.06c-.07.14-.21.19-.37.13l-2.31-.9c-.4-.16-.56.37-.27.89l1.67,3.02c.12.21.17.44.14.63l-.4,2.68c-.07.46.35,1.09.71,1.06l2.07-.19c.14-.01.31.08.45.26l2.07,2.56c.36.44.77.3.7-.24l-.4-3.14c-.03-.21.03-.39.14-.46l1.68-1.1c.29-.19.13-.9-.27-1.2l-2.32-1.75c-.16-.12-.29-.32-.37-.55l-1.03-3.24c-.18-.56-.69-.86-.87-.5Z"></path>
  <path class="cls-20" d="m135.34,103.59l-1.04,2.06c-.07.14-.21.19-.37.13l-2.31-.9c-.4-.15-.56.38-.27.9l1.68,3.02c.11.21.17.44.14.63l-.4,2.68c-.07.46.35,1.08.7,1.05l2.07-.19c.14-.01.31.08.45.26l2.07,2.56c.36.44.77.3.7-.24l-.4-3.14c-.03-.21.03-.39.14-.47l1.68-1.1c.29-.19.13-.9-.27-1.2l-2.32-1.75c-.15-.12-.29-.32-.36-.54l-1.04-3.24c-.18-.56-.69-.86-.87-.5Z"></path>
  <polygon class="cls-10" points="138.02 159.64 146.52 164.5 146.52 162.51 138.02 157.64 138.02 159.64"></polygon>
  <polygon class="cls-10" points="125.96 152.74 136.41 158.72 136.41 156.72 125.96 150.74 125.96 152.74"></polygon>
  <polygon class="cls-10" points="114.79 146.35 122.74 150.9 122.74 148.91 114.79 144.36 114.79 146.35"></polygon>
  <polygon class="cls-10" points="96.75 136.03 112.35 144.96 112.35 142.96 96.75 134.04 96.75 136.03"></polygon>
  <polygon class="cls-10" points="148.94 165.87 180.04 183.39 180.04 181.39 148.94 163.88 148.94 165.87"></polygon>
  <polygon class="cls-10" points="100.88 142.89 108.64 147.33 108.64 145.33 100.88 140.89 100.88 142.89"></polygon>
  <polygon class="cls-10" points="88.73 135.95 96.96 140.65 96.96 138.65 88.73 133.95 88.73 135.95"></polygon>
  <polygon class="cls-10" points="150.69 171.36 180.04 187.89 180.04 185.9 150.69 169.36 150.69 171.36"></polygon>
  <polygon class="cls-10" points="141.5 166.17 149.07 170.45 149.07 168.45 141.5 164.17 141.5 166.17"></polygon>
  <polygon class="cls-10" points="85.38 125.06 108.94 138.53 108.94 136.53 85.38 123.06 85.38 125.06"></polygon>
  <polygon class="cls-10" points="150.69 162.39 180.04 178.92 180.04 176.92 150.69 160.39 150.69 162.39"></polygon>
  <polygon class="cls-10" points="141.5 157.2 149.07 161.48 149.07 159.48 141.5 155.2 141.5 157.2"></polygon>
  <polygon class="cls-10" points="116.62 133.96 142.18 148.59 142.18 146.6 116.62 131.97 116.62 133.96"></polygon>
  <polygon class="cls-10" points="168.11 167.65 180.04 174.44 180.04 172.44 168.11 165.65 168.11 167.65"></polygon>
  <polygon class="cls-10" points="155.28 160.34 165 165.88 165 163.88 155.28 158.34 155.28 160.34"></polygon>
  <polygon class="cls-10" points="137.92 150.46 152.57 158.8 152.57 156.8 137.92 148.46 137.92 150.46"></polygon>
  <polygon class="cls-10" points="121.86 141.31 135.91 149.31 135.91 147.32 121.86 139.31 121.86 141.31"></polygon>
  <polygon class="cls-10" points="105.6 132.05 119.25 139.83 119.25 137.83 105.6 130.06 105.6 132.05"></polygon>
  <polygon class="cls-10" points="91.73 124.16 103.09 130.63 103.09 128.63 91.73 122.16 91.73 124.16"></polygon>
  <polygon class="cls-10" points="125.96 180.13 146.52 191.89 146.52 189.89 125.96 178.13 125.96 180.13"></polygon>
  <polygon class="cls-10" points="96.75 163.42 122.74 178.29 122.74 176.29 96.75 161.42 96.75 163.42"></polygon>
  <polygon class="cls-10" points="85.32 156.88 93.94 161.81 93.94 159.81 85.32 154.88 85.32 156.88"></polygon>
  <polygon class="cls-10" points="148.94 193.26 170.66 205.49 170.66 203.5 148.94 191.26 148.94 193.26"></polygon>
  <polygon class="cls-10" points="111.65 176.43 131.07 187.53 131.07 185.53 111.65 174.44 111.65 176.43"></polygon>
  <polygon class="cls-10" points="132.63 188.43 139.8 192.52 139.8 190.53 132.63 186.43 132.63 188.43"></polygon>
  <polygon class="cls-10" points="100.43 170.01 108.64 174.71 108.64 172.71 100.43 168.02 100.43 170.01"></polygon>
  <polygon class="cls-10" points="89.49 163.76 98.79 169.08 98.79 167.09 89.49 161.76 89.49 163.76"></polygon>
  <polygon class="cls-10" points="141.5 193.55 149.07 197.83 149.07 195.84 141.5 191.56 141.5 193.55"></polygon>
  <polygon class="cls-10" points="99.67 160.62 108.94 165.91 108.94 163.92 99.67 158.62 99.67 160.62"></polygon>
  <polygon class="cls-10" points="88.48 154.22 96.06 158.55 96.06 156.55 88.48 152.22 88.48 154.22"></polygon>
  <polygon class="cls-10" points="150.69 189.78 180.04 206.31 180.04 204.31 150.69 187.78 150.69 189.78"></polygon>
  <polygon class="cls-10" points="141.5 184.58 149.07 188.86 149.07 186.87 141.5 182.58 141.5 184.58"></polygon>
  <polygon class="cls-10" points="130.92 164.85 170.52 187.4 170.52 185.4 130.92 162.86 130.92 164.85"></polygon>
  <polygon class="cls-10" points="116.33 156.54 126.56 162.37 126.56 160.37 116.33 154.55 116.33 156.54"></polygon>
  <polygon class="cls-10" points="95.09 144.45 113.68 155.03 113.68 153.14 113.85 153.14 95.09 142.45 95.09 144.45"></polygon>
  <polygon class="cls-10" points="116.62 161.35 142.18 175.98 142.18 173.98 116.62 159.35 116.62 161.35"></polygon>
  <polygon class="cls-10" points="85.47 143.52 112.81 159.17 112.81 157.17 85.47 141.52 85.47 143.52"></polygon>
  <polygon class="cls-10" points="151.45 181.21 180.04 197.32 180.04 195.32 151.45 179.21 151.45 181.21"></polygon>
  <polygon class="cls-10" points="145.5 177.86 150.02 180.41 150.02 178.41 145.5 175.86 145.5 177.86"></polygon>
  <polygon class="cls-10" points="168.11 195.03 180.04 201.83 180.04 199.83 168.11 193.04 168.11 195.03"></polygon>
  <polygon class="cls-10" points="157.12 188.78 165 193.26 165 191.27 157.12 186.78 157.12 188.78"></polygon>
  <polygon class="cls-10" points="133.44 175.29 155.19 187.68 155.19 185.68 133.44 173.3 133.44 175.29"></polygon>
  <polygon class="cls-10" points="108.1 160.87 118.57 166.82 118.57 164.83 108.1 158.87 108.1 160.87"></polygon>
  <polygon class="cls-10" points="91.73 151.54 100.63 156.61 100.63 154.62 91.73 149.55 91.73 151.54"></polygon>
  <polygon class="cls-10" points="101.99 157.39 106.47 159.94 106.47 157.94 101.99 155.39 101.99 157.39"></polygon>
  <polygon class="cls-10" points="121.01 168.22 131.71 174.31 131.71 172.31 121.01 166.22 121.01 168.22"></polygon>
  <path class="cls-10" d="m81.52,109.65s0,0,0,0h0Z"></path>
  <path class="cls-18" d="m122.82,102.35c-5.71-3.24-9.75-10.2-9.8-16.9h0c-.03-4.4-2.41-8.44-6.23-10.61l-32.29-18.34c-8.14-4.63-15.97.16-15.9,9.7l.73,91.05c.05,6.69,4.08,13.65,9.79,16.89l118.97,67.58c8.14,4.62,15.97-.16,15.9-9.7l-.56-71.34c-.06-7.8-4.28-14.98-11.06-18.84l-69.54-39.5Z"></path>
  <path class="cls-19" d="m121.08,103.23c-5.71-3.24-9.75-10.2-9.8-16.9h0c-.03-4.4-2.41-8.44-6.23-10.61l-32.29-18.34c-8.14-4.62-15.97.16-15.89,9.71l.73,91.05c.05,6.69,4.08,13.65,9.79,16.9l118.97,67.58c8.14,4.62,15.97-.16,15.9-9.7l-.56-71.34c-.06-7.8-4.28-14.98-11.06-18.84l-69.54-39.5Z"></path>
  <path class="cls-8" d="m133.76,143.62c-2.39-3.05-5.44-5.88-9.17-7.31-1.96-.75-4.11-1.13-6.28-.8-1.38.21-2.73.73-4.06,1.17,4.71-1.55,9.08.59,12.53,3.37,3.67,2.95,7.12,7.55,8.97,11.84,3.78,8.75,5.86,18.05,3.48,27.67-1.26,5.08-4.23,10.73-9.68,12.52.85-.28,1.7-.54,2.54-.84,1.8-.65,3.42-1.77,4.74-3.17,2.5-2.65,3.94-6.13,4.77-9.53,2.01-8.31.73-17.13-2.18-24.74-1.39-3.65-3.27-7.1-5.66-10.16Z"></path>
  <polygon class="cls-8" points="114.25 136.68 105.92 141.04 121.55 196.28 129.9 191.95 132.3 190.99 136.17 187.6 140.23 180.73 141.05 166.97 137.08 150.58 128.8 140.25 119.67 135.73 116.19 136.12 114.25 136.68"></polygon>
  <path class="cls-13" d="m120.7,145.11c-9.47-8.75-20.04-5.37-23.61,7.54-3.29,11.91.54,27.77,8.59,37.02.68.78,1.38,1.5,2.11,2.18,8.34,7.7,17.53,6,22.04-3.32.61-1.27,1.14-2.68,1.57-4.22,3.57-12.91-1.23-30.46-10.7-39.2Z"></path>
  <path class="cls-4" d="m116.53,170.01c.89-.36,1.44-1.26,1.44-2.6,0-2.67-2.16-6.09-4.84-7.63-2.67-1.54-4.84-.63-4.84,2.04,0,1.56.74,3.38,1.89,4.92.12.16.17.35.14.55l-1.88,11.32c-.05.3.09.61.36.76l7.77,4.62c.54.32,1.21-.13,1.12-.74l-1.71-12.42c-.05-.37.2-.67.55-.81Z"></path>
  <path class="cls-8" d="m112.1,180.03c-.27-.16-.41-.46-.36-.77l1.88-11.32c.03-.19-.02-.39-.13-.54-1.15-1.55-1.89-3.36-1.89-4.92,0-1.43.63-2.34,1.61-2.65-.03-.01-.05-.04-.08-.05-2.67-1.54-4.84-.63-4.84,2.04,0,1.56.74,3.38,1.89,4.92.12.16.17.35.14.55l-1.88,11.32c-.05.3.09.61.36.76l7.77,4.62c.51.3,1.1-.08,1.11-.64l-5.58-3.32Z"></path>
  <path class="cls-2" d="m132.94,127.54c0-5.58-4.33-12.38-9.87-15.46-2.98-1.66-5.93-1.99-8.09-.9-2.05,1.04-3.18,3.19-3.18,6.05v21.08h.03s-.03.03-.03.05c0,.42.92.95,2.05,1.17,1.13.22,2.05.05,2.05-.37,0-.02-.03-.04-.03-.06h.03s0-21.07,0-21.07c0-1.49.51-2.57,1.44-3.04,1.05-.53,2.63-.29,4.34.66,3.89,2.17,7.18,7.26,7.18,11.1v20.3h.04s-.04.04-.04.07c0,.42.92.95,2.05,1.16,1.13.22,2.05.05,2.05-.37,0-.02-.03-.05-.04-.08h.04s0-20.29,0-20.29Z"></path>
  <path class="cls-8" d="m20.34,216.9c9.59,5.54,25.1,5.54,34.62,0,7.51-4.37,9.07-10.87,4.7-16.14l49.07-28.7v-2.32s-48.92,28.62-48.92,28.62l-3.48.31,48.92-28.62v-2.28s-15.93-.16-15.93-.16v2.33l1.08,3.92-12.77,7.68-8.62-1.78v2.33l.82,5.22-10.06,5.85-8.4-1.05-3.29,1.97c-9.11-2.52-20.33-1.59-27.84,2.77-9.53,5.54-9.48,14.52.11,20.06Z"></path>
  <path class="cls-14" d="m20.34,214.58c9.59,5.54,25.1,5.54,34.62,0,7.51-4.36,9.07-10.87,4.7-16.14l49.07-28.7-1.66-.96-48.92,28.62-1.83-1.06,48.92-28.62-1.55-.9-12.43-.35-1.95,1.13,1.28,1.18c1.13,1.03.93,2.86-.4,3.63l-11.46,6.62c-.42.24-.91.35-1.4.29l-6.31-.75-2.04,1.18.82,5.23-10.06,5.85-8.4-1.05-3.29,1.97c-9.11-2.52-20.33-1.59-27.84,2.77-9.53,5.54-9.48,14.52.11,20.06Z"></path>
  <path class="cls-21" d="m58.23,204.67c0-.11,0-.22,0-.33-.15-2.7-2.16-5.38-6.04-7.44-8.1-4.3-21.32-4.3-29.48,0-3.95,2.08-5.99,4.8-6.13,7.53-.13,3.04,2.03,5.55,4.62,7.24,2.86,1.87,6.29,2.94,9.72,3.53,7.01,1.2,15.14.6,21.37-2.8,3.14-1.71,5.77-4.25,5.95-7.73Z"></path>
  <path class="cls-8" d="m34.53,208.57s0-.06,0-.1c-.04-.77-.62-1.54-1.73-2.13-2.32-1.23-6.09-1.23-8.42,0-1.13.59-1.71,1.37-1.75,2.15-.04.87.58,1.59,1.32,2.07.82.53,1.79.84,2.78,1.01,2,.34,4.33.17,6.11-.8.9-.49,1.65-1.22,1.7-2.21Z"></path>
  <path class="cls-8" d="m22.71,198.35c8.15-4.3,21.37-4.3,29.47,0,3.64,1.93,5.63,4.41,5.99,6.94.03-.21.05-.42.06-.63,0-.11,0-.22,0-.33-.15-2.7-2.16-5.38-6.04-7.44-8.1-4.3-21.32-4.3-29.48,0-3.95,2.08-5.99,4.8-6.13,7.53-.01.34,0,.67.04,1,.33-2.58,2.37-5.11,6.09-7.08Z"></path>
</svg>
