<?xml version="1.0" encoding="UTF-8"?>
<svg xmlns="http://www.w3.org/2000/svg" xmlns:xlink="http://www.w3.org/1999/xlink" id="Layer_1" viewBox="0 0 249 301">
  <defs>
    <style>.cls-1{fill:url(#linear-gradient);}.cls-2{fill:#043746;}.cls-3{fill:#f4f8fd;}.cls-4{fill:#e0395c;}.cls-5{fill:#d36750;}.cls-6{fill:#232752;}.cls-7{fill:#576cab;}.cls-8{fill:url(#linear-gradient-3);}.cls-9{fill:url(#linear-gradient-4);}.cls-10{fill:url(#linear-gradient-2);}.cls-11{fill:url(#linear-gradient-6);}.cls-12{fill:url(#linear-gradient-5);}</style>
    <linearGradient id="linear-gradient" x1="57.34" y1="152.2" x2="217.87" y2="152.2" gradientUnits="userSpaceOnUse">
      <stop offset="0" stop-color="#f29300"></stop>
      <stop offset=".73" stop-color="#f8b203"></stop>
      <stop offset="1" stop-color="#fbbf05"></stop>
    </linearGradient>
    <linearGradient id="linear-gradient-2" x1="27.8" y1="131.51" x2="217.87" y2="131.51" xlink:href="#linear-gradient"></linearGradient>
    <linearGradient id="linear-gradient-3" x1="27.8" y1="160.07" x2="144.77" y2="160.07" xlink:href="#linear-gradient"></linearGradient>
    <linearGradient id="linear-gradient-4" x1="110.04" y1="109.26" x2="123" y2="109.26" xlink:href="#linear-gradient"></linearGradient>
    <linearGradient id="linear-gradient-5" x1="95.87" y1="117.46" x2="108.83" y2="117.46" xlink:href="#linear-gradient"></linearGradient>
    <linearGradient id="linear-gradient-6" x1="81.71" y1="125.66" x2="94.67" y2="125.66" xlink:href="#linear-gradient"></linearGradient>
  </defs>
  <circle class="cls-4" cx="124.73" cy="177.47" r="115.84"></circle>
  <polygon class="cls-7" points="144.95 231.07 231.99 180.81 231.99 179.64 106.7 111.81 40.85 170.56 144.95 231.07"></polygon>
  <polygon class="cls-6" points="144.95 229.89 231.99 179.64 106.7 110.64 40.85 169.38 144.95 229.89"></polygon>
  <polygon class="cls-3" points="141.42 228.72 228.46 178.47 229.05 162.47 103.18 108.29 37.33 167.04 141.42 228.72"></polygon>
  <polygon class="cls-7" points="92.72 81.48 231.99 160.71 231.99 161.89 144.95 212.14 5.68 131.74 92.72 81.48"></polygon>
  <polygon class="cls-2" points="92.72 80.31 231.99 160.71 144.95 210.97 5.68 130.56 92.72 80.31"></polygon>
  <polygon class="cls-3" points="110.86 99.1 149.98 121.6 79.97 162.02 40.85 139.52 110.86 99.1"></polygon>
  <polygon class="cls-7" points="6.85 131.15 6.85 150.7 144.95 231.07 146.12 230.39 146.12 211.55 6.85 131.15"></polygon>
  <polygon class="cls-6" points="5.68 130.56 5.68 150.11 144.95 231.07 144.95 210.97 5.68 130.56"></polygon>
  <polygon class="cls-1" points="144.77 202.28 217.87 160.07 217.87 159.08 112.65 102.12 57.34 151.46 144.77 202.28"></polygon>
  <polygon class="cls-5" points="144.77 201.29 217.87 159.08 112.65 101.13 57.34 150.47 144.77 201.29"></polygon>
  <polygon class="cls-3" points="141.81 200.3 214.91 158.1 215.41 144.67 109.69 99.16 54.38 148.5 141.81 200.3"></polygon>
  <polygon class="cls-10" points="100.91 76.64 217.87 143.19 217.87 144.17 144.77 186.38 27.8 118.85 100.91 76.64"></polygon>
  <polygon class="cls-3" points="116.14 91.44 149 110.34 90.2 144.29 57.34 125.39 116.14 91.44"></polygon>
  <polygon class="cls-5" points="28.79 118.36 28.79 134.78 144.77 202.28 145.76 201.71 145.76 185.89 28.79 118.36"></polygon>
  <polygon class="cls-8" points="27.8 117.86 27.8 134.29 144.77 202.28 144.77 185.39 27.8 117.86"></polygon>
  <path class="cls-9" d="m116.4,113.3l-1.9-2.03s-.11-.06-.19-.06l-4.07.19c-.2,0-.29-.13-.14-.24l2.87-2.18c.06-.04.08-.1.07-.14l-.78-2.41c-.04-.12.17-.24.35-.21l3.67.68c.07.01.16,0,.23-.03l3.59-1.68c.18-.08.39-.02.36.11l-.6,2.6c-.01.05.02.1.07.12l3,1.37c.15.07.07.23-.13.28l-4.04.92c-.08.02-.15.06-.18.11l-1.73,2.53c-.09.12-.34.16-.44.06Z"></path>
  <path class="cls-12" d="m102.24,121.5l-1.9-2.03s-.11-.06-.19-.06l-4.07.19c-.2,0-.29-.13-.14-.24l2.87-2.18c.06-.04.08-.1.07-.14l-.78-2.41c-.04-.12.17-.24.35-.21l3.67.68c.07.01.16,0,.23-.03l3.59-1.68c.18-.08.39-.02.36.11l-.6,2.6c-.01.05.02.1.07.12l3,1.37c.15.07.07.23-.13.28l-4.04.92c-.08.02-.15.06-.18.11l-1.73,2.53c-.09.12-.34.16-.44.06Z"></path>
  <path class="cls-11" d="m88.07,129.7l-1.9-2.03s-.11-.06-.19-.06l-4.07.19c-.2,0-.29-.13-.14-.24l2.87-2.18c.06-.04.08-.1.07-.14l-.78-2.41c-.04-.12.17-.24.35-.21l3.67.68c.07.01.16,0,.23-.03l3.59-1.68c.18-.08.39-.02.36.11l-.6,2.6c-.01.05.02.1.07.12l3,1.37c.15.07.07.23-.13.28l-4.04.92c-.08.02-.15.06-.18.11l-1.73,2.53c-.09.12-.34.16-.44.06Z"></path>
</svg>
