<?xml version="1.0" encoding="UTF-8"?>
<svg xmlns="http://www.w3.org/2000/svg" xmlns:xlink="http://www.w3.org/1999/xlink" id="Layer_1" viewBox="0 0 249 301">
  <defs>
    <style>.cls-1{fill:url(#linear-gradient);}.cls-2{fill:#003b4d;}.cls-3{fill:#e9edf6;}.cls-4{fill:#e0395c;}.cls-5{fill:#d36750;}.cls-6{fill:url(#linear-gradient-3);}.cls-7{fill:url(#linear-gradient-4);}.cls-8{fill:url(#linear-gradient-2);}.cls-9{fill:url(#linear-gradient-5);}.cls-10{fill:url(#_ÂÁ_Ï_ÌÌ_È_ËÂÌÚ_5);}</style>
    <linearGradient id="linear-gradient" x1="138.89" y1="121.86" x2="180.41" y2="121.86" gradientUnits="userSpaceOnUse">
      <stop offset="0" stop-color="#f29300"></stop>
      <stop offset=".73" stop-color="#f8b203"></stop>
      <stop offset="1" stop-color="#fbbf05"></stop>
    </linearGradient>
    <linearGradient id="linear-gradient-2" x1="-1685.35" y1="140.59" x2="-1573.68" y2="140.59" gradientTransform="translate(-1537.2) rotate(-180) scale(1 -1)" xlink:href="#linear-gradient"></linearGradient>
    <linearGradient id="linear-gradient-3" x1="36.48" y1="71.19" x2="148.16" y2="71.19" xlink:href="#linear-gradient"></linearGradient>
    <linearGradient id="_ÂÁ_Ï_ÌÌ_È_ËÂÌÚ_5" x1="45.83" y1="78.59" x2="138.94" y2="78.59" gradientUnits="userSpaceOnUse">
      <stop offset="0" stop-color="#f5f5fa"></stop>
      <stop offset="1" stop-color="#ddddf0"></stop>
    </linearGradient>
    <linearGradient id="linear-gradient-4" x1="-1106.09" y1="200.56" x2="-1027.08" y2="200.56" gradientTransform="translate(-900.65) rotate(-180) scale(1 -1)" gradientUnits="userSpaceOnUse">
      <stop offset="0" stop-color="#003b4d"></stop>
      <stop offset=".55" stop-color="#476080"></stop>
      <stop offset="1" stop-color="#41607f"></stop>
    </linearGradient>
    <linearGradient id="linear-gradient-5" x1="-1062.12" y1="243.41" x2="-1002.27" y2="243.41" xlink:href="#linear-gradient-4"></linearGradient>
  </defs>
  <circle class="cls-4" cx="124.73" cy="177.47" r="115.84"></circle>
  <path class="cls-1" d="m147.81,171.88c20.41-13.7,32.6-36.57,32.6-61.16v-21.71c0-6.2-3.2-11.75-8.57-14.85-5.36-3.1-11.77-3.1-17.15,0l-15.34,8.86,8,13.86,15.34-8.86c.15-.08.57-.33,1.14,0,.57.33.57.83.57.99v21.71c0,19.25-9.54,37.15-25.52,47.87l8.92,13.29Z"></path>
  <path class="cls-8" d="m36.48,71.19h111.68v107.27l-.05.03c-.26,8.04-5.64,16.05-16.21,22.15-10.56,6.09-24.41,9.2-38.36,9.36h-2.41c-13.9-.18-27.72-3.29-38.29-9.36-11.06-6.35-16.48-14.74-16.32-23.11l-.03-.02v-106.32Z"></path>
  <path class="cls-6" d="m52.84,93.95c-21.8-12.52-21.8-33,0-45.52,21.8-12.52,57.38-12.52,79.06,0,21.68,12.52,21.68,33,0,45.52-21.68,12.52-57.26,12.52-79.06,0Z"></path>
  <path class="cls-5" d="m56.24,91.99c-19.93-11.44-19.93-30.16,0-41.6,19.92-11.44,52.44-11.44,72.25,0,19.81,11.44,19.81,30.16,0,41.6-19.81,11.44-52.33,11.44-72.25,0Z"></path>
  <path class="cls-10" d="m59.46,94.15c-18.18-8.56-18.18-22.56,0-31.12,18.18-8.56,47.85-8.56,65.92,0,18.08,8.56,18.08,22.56,0,31.12-18.08,8.56-47.74,8.56-65.92,0Z"></path>
  <path class="cls-3" d="m46.55,82.37c1.58-3.05,5.86-5.98,12.91-8.32,18.18-6.05,47.85-6.05,65.92,0,7.01,2.34,11.27,5.27,12.84,8.32-1.57,4.32-5.83,8.46-12.84,11.78-18.08,8.56-47.74,8.56-65.92,0-7.05-3.32-11.33-7.46-12.91-11.78Z"></path>
  <path class="cls-2" d="m126.43,212.22c0,.99,1.39,1.79,3.1,1.79h3.82s-.1,7.67-.1,7.67c0,.03,0,.05,0,.08v.18s.03.02.03.02c.08.38.37.74.87,1.03l7.63,4.4c.74.42,1.74.56,2.7.47l.08.04v-.05c.59-.06,1.16-.2,1.61-.46l4.69-2.69c.78-.45,1.95-.54,2.95-.28.6.16,1.21.3,1.83.44,1.03.22,1.73.77,1.73,1.4v3.81c-.01.99,1.37,1.79,3.09,1.79h10.8c1.71.01,3.11-.79,3.11-1.77v-3.85c.01-.61.65-1.15,1.64-1.37.63-.14,1.36-.31,2.03-.47.97-.24,2.08-.11,2.83.31l4.72,2.72c.46.26,1.03.39,1.62.46v.03l.05-.03c.96.1,1.98-.04,2.72-.46l7.65-4.39c.53-.3.81-.69.88-1.09h0c.02-.13.02-.26,0-.39l-.09-7.5h3.89c1.71,0,3.11-.79,3.11-1.78l.03-9.08c0-.99-1.38-1.79-3.1-1.79h-6.7c-1.05-.01-2.91,1.13-3.2.75-.41-.56-.2-1.2.55-1.63l4.74-2.71c1.22-.7-5.84.13-7.04-.57l-.05-.53h2.35s4.74-2.71,4.74-2.71c.63-.36.93-.84.91-1.32v-4.77s-7.04,0-7.04,0l-1.47-.85c-1.21-.7-3.17-.7-4.39,0l-1.5.86h-9.81v-3.56c0-.99-1.39-1.79-3.1-1.79h-10.8c-1.72,0-3.1.8-3.1,1.79v3.56h-9.65s-1.55-.89-1.55-.89c-1.21-.7-3.18-.7-4.39,0l-1.56.89h-6.99s-.03,4.88-.03,4.88h.05c.05.42.33.83.89,1.15l4.69,2.7h3.02s0,.04,0,.04c-1.21.7-8.92.37-7.71,1.07l4.69,2.7c.78.45.94,1.12.48,1.7-.27.35-2.09-.81-3.19-.81h-6.63c-1.72,0-3.11.8-3.11,1.78v9.08Zm33.98-11.3c8.89-1.97,18.78,1.13,20.58,6.63,1.34,4.09-2.78,8.3-9.53,9.8-8.89,1.97-18.79-1.13-20.58-6.63-1.34-4.09,2.78-8.3,9.53-9.8Z"></path>
  <path class="cls-7" d="m139.44,207.54c.41.56.2,1.2-.54,1.63l-4.73,2.72c-1.21.7-1.22,1.83,0,2.53l7.63,4.4c1.21.7,3.18.7,4.39,0l4.69-2.69c.78-.45,1.95-.54,2.95-.28.6.16,1.21.3,1.83.44,1.03.22,1.73.77,1.73,1.4v3.81c-.01.99,1.37,1.79,3.09,1.79h10.8c1.71.01,3.11-.79,3.11-1.77v-3.85c.01-.61.65-1.15,1.64-1.37.63-.14,1.36-.31,2.03-.47.97-.24,2.08-.12,2.83.31l4.72,2.72c1.21.7,3.18.7,4.39,0l7.65-4.39c1.21-.7,1.22-1.83,0-2.53l-4.68-2.7c-.77-.45-.94-1.12-.48-1.7.27-.35.53-.7.76-1.05.39-.59,1.33-1,2.43-1h6.63c1.71.01,3.11-.79,3.11-1.77l.03-6.21c0-.99-1.38-1.79-3.1-1.79h-6.7c-1.05-.01-2-.38-2.38-.95-.24-.36-.53-.78-.82-1.17-.41-.56-.2-1.2.55-1.63l4.74-2.71c1.22-.69,1.22-1.83.01-2.53l-7.62-4.41c-1.21-.7-3.17-.7-4.39,0l-4.7,2.69c-.78.45-1.95.54-2.95.27-.63-.17-1.27-.32-1.92-.46-1.03-.22-1.73-.76-1.73-1.39v-3.82c0-.99-1.39-1.79-3.1-1.79h-10.8c-1.72,0-3.1.8-3.1,1.79v3.85c0,.61-.64,1.15-1.62,1.37-.63.14-1.35.31-2.03.47-.97.24-2.08.12-2.83-.31l-4.72-2.72c-1.21-.7-3.18-.7-4.39,0l-7.64,4.39c-1.21.7-1.21,1.83,0,2.53l4.69,2.7c.78.45.94,1.12.48,1.7-.27.35-.53.7-.76,1.05-.39.59-1.33,1-2.43,1h-6.63c-1.71,0-3.11.8-3.11,1.78v6.22c0,.99,1.38,1.79,3.09,1.79h8.47c.03.07.74,1.18,1.43,2.11Zm32.02,1.23c-8.89,1.97-18.79-1.13-20.58-6.63-1.34-4.09,2.78-8.3,9.53-9.8,8.89-1.97,18.78,1.13,20.58,6.63,1.34,4.09-2.78,8.3-9.53,9.8Z"></path>
  <path class="cls-2" d="m101.62,252.25c0,.75,1.05,1.35,2.35,1.35h2.89s-.07,5.81-.07,5.81c0,.02,0,.04,0,.06v.13s.02.01.02.01c.06.29.28.56.66.78l5.78,3.33c.56.32,1.32.42,2.04.35l.06.03v-.04c.44-.05.88-.15,1.22-.35l3.56-2.04c.59-.34,1.48-.41,2.23-.21.46.12.92.23,1.39.33.78.17,1.31.58,1.31,1.06v2.89c-.01.75,1.04,1.35,2.34,1.36h8.18c1.3,0,2.35-.6,2.36-1.34v-2.92c0-.46.5-.87,1.24-1.04.48-.11,1.03-.23,1.54-.36.73-.18,1.58-.09,2.14.24l3.57,2.06c.34.2.78.3,1.22.35v.03l.04-.02c.73.07,1.5-.03,2.06-.35l5.8-3.32c.4-.23.62-.52.67-.82h0c.02-.1.02-.2,0-.29l-.07-5.68h2.95c1.3,0,2.35-.6,2.36-1.35l.02-6.87c0-.75-1.05-1.35-2.35-1.36h-5.07c-.8,0-2.21.86-2.42.57-.31-.42-.15-.91.42-1.23l3.59-2.05c.92-.53-4.42.09-5.34-.43l-.04-.4h1.78s3.59-2.05,3.59-2.05c.48-.27.7-.64.69-1v-3.61s-5.34,0-5.34,0l-1.11-.64c-.92-.53-2.4-.53-3.33,0l-1.13.65h-7.43v-2.7c0-.75-1.05-1.35-2.35-1.35h-8.18c-1.3,0-2.35.61-2.35,1.35v2.7h-7.31s-1.17-.68-1.17-.68c-.92-.53-2.41-.53-3.33,0l-1.18.68h-5.3s-.02,3.69-.02,3.69h.04c.04.32.25.63.67.87l3.55,2.04h2.29s0,.03,0,.03c-.92.53-6.76.28-5.84.81l3.55,2.04c.59.34.71.85.37,1.28-.21.26-1.58-.61-2.42-.61h-5.02c-1.3,0-2.35.6-2.35,1.35v6.88Zm25.74-8.56c6.74-1.49,14.23.86,15.59,5.02,1.01,3.1-2.1,6.29-7.22,7.42-6.74,1.49-14.23-.86-15.59-5.02-1.01-3.1,2.1-6.29,7.22-7.42Z"></path>
  <path class="cls-9" d="m111.47,248.7c.31.42.15.91-.41,1.23l-3.58,2.06c-.92.53-.92,1.38,0,1.91l5.78,3.33c.92.53,2.41.53,3.33,0l3.56-2.04c.59-.34,1.48-.41,2.23-.21.46.12.92.23,1.39.33.78.17,1.31.58,1.31,1.06v2.89c-.01.75,1.04,1.35,2.34,1.36h8.18c1.3,0,2.35-.6,2.36-1.34v-2.92c0-.46.5-.87,1.24-1.04.48-.11,1.03-.23,1.54-.36.73-.18,1.58-.09,2.14.24l3.57,2.06c.92.53,2.41.53,3.33,0l5.8-3.32c.92-.53.92-1.38,0-1.91l-3.55-2.05c-.59-.34-.71-.85-.36-1.28.21-.26.4-.53.58-.8.29-.45,1.01-.76,1.84-.75h5.02c1.3,0,2.35-.6,2.36-1.34l.02-4.71c0-.75-1.05-1.35-2.35-1.36h-5.07c-.8,0-1.51-.29-1.8-.72-.18-.27-.4-.59-.62-.88-.31-.42-.15-.91.42-1.23l3.59-2.05c.92-.53.93-1.38.01-1.91l-5.77-3.34c-.92-.53-2.4-.53-3.33,0l-3.56,2.04c-.59.34-1.48.41-2.23.21-.48-.13-.96-.24-1.45-.35-.78-.17-1.31-.58-1.31-1.06v-2.89c0-.75-1.05-1.35-2.35-1.35h-8.18c-1.3,0-2.35.61-2.35,1.35v2.92c0,.46-.48.87-1.23,1.04-.47.11-1.03.23-1.54.36-.73.18-1.58.09-2.14-.24l-3.58-2.06c-.92-.53-2.41-.53-3.33,0l-5.79,3.33c-.92.53-.92,1.39,0,1.91l3.55,2.04c.59.34.71.85.37,1.28-.21.26-.4.53-.58.8-.29.45-1.01.76-1.84.76h-5.02c-1.3,0-2.35.6-2.35,1.35v4.71c0,.75,1.04,1.35,2.34,1.35h6.42c.03.05.56.89,1.09,1.6Zm24.26.93c-6.74,1.49-14.23-.86-15.59-5.02-1.01-3.1,2.1-6.29,7.22-7.42,6.74-1.49,14.23.86,15.59,5.02,1.01,3.1-2.1,6.29-7.22,7.42Z"></path>
</svg>
