<?xml version="1.0" encoding="UTF-8"?>
<svg xmlns="http://www.w3.org/2000/svg" xmlns:xlink="http://www.w3.org/1999/xlink" viewBox="0 0 249 301">
  <defs>
    <style>.cls-1{fill:url(#linear-gradient);}.cls-2{fill:#f6f5f8;}.cls-3{fill:#f4f8fd;}.cls-4{fill:#fff;}.cls-5{fill:#9e2a40;}.cls-6{fill:#bec8e5;}.cls-7,.cls-8{fill:#e0395c;}.cls-9{fill:#232752;}.cls-8{mix-blend-mode:multiply;}.cls-10{fill:url(#linear-gradient-3);}.cls-11{fill:url(#linear-gradient-4);}.cls-12{fill:url(#linear-gradient-2);}.cls-13{isolation:isolate;}</style>
    <linearGradient id="linear-gradient" x1="653.49" y1="105.72" x2="774.66" y2="105.72" gradientTransform="translate(-557.15)" gradientUnits="userSpaceOnUse">
      <stop offset="0" stop-color="#93a4d4"></stop>
      <stop offset="1" stop-color="#dbe3f4"></stop>
    </linearGradient>
    <linearGradient id="linear-gradient-2" x1="100.85" y1="107.07" x2="209.2" y2="107.07" gradientUnits="userSpaceOnUse">
      <stop offset="0" stop-color="#003b4d"></stop>
      <stop offset=".55" stop-color="#476080"></stop>
      <stop offset="1" stop-color="#41607f"></stop>
    </linearGradient>
    <linearGradient id="linear-gradient-3" x1="573.55" y1="179.65" x2="771.34" y2="179.65" xlink:href="#linear-gradient"></linearGradient>
    <linearGradient id="linear-gradient-4" x1="784.78" y1="249.86" x2="966.16" y2="249.86" gradientTransform="translate(-753.23)" xlink:href="#linear-gradient"></linearGradient>
  </defs>
  <g class="cls-13">
    <g id="Layer_1">
      <circle class="cls-7" cx="124.73" cy="177.47" r="115.84"></circle>
      <path class="cls-1" d="m214.97,92.37L99.83,25.9c-1.56-.9-3.5.22-3.5,2.02v86.77c0,1.81.97,3.49,2.54,4.39l115.14,66.47c1.56.9,3.5-.22,3.5-2.02v-86.77c0-1.81-.97-3.49-2.54-4.39Z"></path>
      <path class="cls-9" d="m213.48,93.36L98.35,26.89c-1.56-.9-3.5.22-3.5,2.02v86.77c0,1.81.97,3.49,2.54,4.39l115.14,66.47c1.56.9,3.5-.22,3.5-2.02v-86.77c0-1.81-.97-3.49-2.54-4.39Z"></path>
      <polygon class="cls-12" points="209.2 98.84 100.85 35.93 100.85 115.3 209.2 178.22 209.2 98.84"></polygon>
      <path class="cls-10" d="m90.18,124.25l-73.73,38.89s-.41,5.76,1.17,6.67l112.96,65.22c2.88,1.66,6.44,1.67,9.33.02l72.55-41.47c3-1.86,1.19-6.68,1.19-6.68l-114.14-62.63c-2.88-1.66-6.43-1.67-9.33-.02Z"></path>
      <path class="cls-2" d="m90.18,119.79l-72.55,41.47c-1.58.9-1.58,3.18,0,4.08l112.96,65.22c2.88,1.66,6.44,1.67,9.33.02l72.55-41.47c1.58-.9,1.58-3.17,0-4.08l-112.97-65.22c-2.88-1.66-6.43-1.67-9.33-.02Z"></path>
      <path class="cls-6" d="m141.08,226.05l-19.12,10.93c-.42.24-.42.84,0,1.08l29.78,17.19c.76.44,1.7.44,2.46,0l19.12-10.93c.42-.24.42-.84,0-1.08l-29.78-17.19c-.76-.44-1.7-.44-2.46,0Z"></path>
      <path class="cls-6" d="m98.18,126.12l6.25,3.61c.25.14.25.5,0,.65l-3.1,1.78c-.25.14-.56.14-.81,0l-6.25-3.61c-.25-.14-.25-.5,0-.65l3.11-1.78c.25-.14.56-.14.8,0Z"></path>
      <path class="cls-6" d="m107.34,131.58l6.25,3.61c.25.14.25.5,0,.65l-3.11,1.78c-.25.14-.56.14-.8,0l-6.25-3.61c-.25-.14-.25-.5,0-.65l3.11-1.78c.25-.14.56-.14.8,0Z"></path>
      <path class="cls-6" d="m116.53,136.75l6.25,3.61c.25.14.25.5,0,.65l-3.11,1.78c-.25.14-.56.14-.8,0l-6.25-3.61c-.25-.14-.25-.5,0-.65l3.11-1.78c.25-.14.56-.14.8,0Z"></path>
      <path class="cls-6" d="m126,142.08l6.25,3.61c.25.14.25.5,0,.65l-3.11,1.78c-.25.14-.56.14-.8,0l-6.25-3.61c-.25-.14-.25-.5,0-.65l3.11-1.78c.25-.14.56-.14.8,0Z"></path>
      <path class="cls-6" d="m135.1,147.15l6.25,3.61c.25.14.25.5,0,.65l-3.11,1.78c-.25.14-.56.14-.8,0l-6.25-3.61c-.25-.14-.25-.5,0-.65l3.11-1.79c.25-.14.56-.14.8,0Z"></path>
      <path class="cls-6" d="m143.94,152.61l6.25,3.61c.25.14.25.5,0,.65l-3.11,1.79c-.25.14-.56.14-.8,0l-6.25-3.61c-.25-.14-.25-.5,0-.65l3.1-1.78c.25-.14.56-.14.8,0Z"></path>
      <path class="cls-6" d="m153.2,157.71l6.25,3.61c.25.14.25.5,0,.65l-3.11,1.79c-.25.14-.56.14-.8,0l-6.25-3.61c-.25-.14-.25-.5,0-.65l3.11-1.78c.25-.14.56-.14.8,0Z"></path>
      <path class="cls-6" d="m162.33,163.15l6.25,3.61c.25.14.25.5,0,.65l-3.1,1.78c-.25.14-.56.14-.8,0l-6.25-3.61c-.25-.14-.25-.5,0-.65l3.11-1.79c.25-.14.56-.14.8,0Z"></path>
      <path class="cls-6" d="m171.3,168.44l6.25,3.61c.25.14.25.5,0,.65l-3.11,1.79c-.25.14-.56.14-.8,0l-6.25-3.61c-.25-.14-.25-.5,0-.65l3.11-1.78c.25-.14.56-.14.8,0Z"></path>
      <path class="cls-6" d="m180.75,173.89l6.25,3.61c.25.14.25.5,0,.65l-3.1,1.78c-.25.14-.56.14-.8,0l-6.25-3.61c-.25-.14-.25-.5,0-.65l3.11-1.79c.25-.14.56-.14.8,0Z"></path>
      <path class="cls-6" d="m189.94,179.04l6.25,3.61c.25.14.25.5,0,.65l-3.1,1.79c-.25.14-.56.14-.8,0l-6.25-3.61c-.25-.14-.25-.5,0-.65l3.11-1.79c.25-.14.56-.14.8,0Z"></path>
      <path class="cls-6" d="m85.46,132.92l4.24-2.48c.55-.32,1.23-.32,1.78,0l4.14,2.39c.58.33.59,1.16.02,1.51l-4.11,2.53c-.55.34-1.25.35-1.81.03l-4.24-2.44c-.59-.34-.59-1.18,0-1.52Z"></path>
      <path class="cls-6" d="m94.94,138.38l4.24-2.48c.55-.32,1.23-.32,1.78,0l4.14,2.39c.58.33.59,1.16.02,1.51l-4.11,2.53c-.55.34-1.25.35-1.81.02l-4.24-2.44c-.59-.34-.59-1.18,0-1.52Z"></path>
      <path class="cls-6" d="m104.15,143.55l4.24-2.48c.55-.32,1.23-.32,1.78,0l4.14,2.39c.58.33.59,1.16.02,1.51l-4.11,2.52c-.55.34-1.25.35-1.81.03l-4.24-2.44c-.59-.34-.59-1.18,0-1.52Z"></path>
      <path class="cls-6" d="m113.95,148.88l4.23-2.48c.55-.32,1.23-.32,1.78,0l4.14,2.39c.58.33.59,1.16.02,1.51l-4.11,2.53c-.55.34-1.25.35-1.81.02l-4.24-2.44c-.59-.34-.59-1.18,0-1.52Z"></path>
      <path class="cls-6" d="m122.57,153.95l4.24-2.48c.55-.32,1.23-.32,1.78,0l4.14,2.39c.58.33.59,1.16.02,1.51l-4.11,2.52c-.55.34-1.25.35-1.81.03l-4.24-2.44c-.59-.34-.59-1.18,0-1.52Z"></path>
      <path class="cls-6" d="m131.34,159.38l4.24-2.48c.55-.32,1.23-.32,1.78,0l4.14,2.39c.58.33.59,1.16.02,1.51l-4.11,2.53c-.55.34-1.25.35-1.81.02l-4.24-2.44c-.59-.34-.59-1.18,0-1.52Z"></path>
      <path class="cls-6" d="m140.71,164.51l4.23-2.48c.55-.32,1.23-.32,1.78,0l4.14,2.39c.58.33.59,1.16.02,1.51l-4.11,2.53c-.55.34-1.25.35-1.81.03l-4.24-2.44c-.59-.34-.59-1.18,0-1.52Z"></path>
      <path class="cls-6" d="m149.88,169.71l4.23-2.48c.55-.32,1.23-.32,1.78,0l4.14,2.39c.58.33.59,1.16.02,1.51l-4.11,2.53c-.55.34-1.25.35-1.81.03l-4.24-2.44c-.59-.34-.59-1.18,0-1.52Z"></path>
      <path class="cls-6" d="m158.89,175.24l4.23-2.48c.55-.32,1.23-.32,1.78,0l4.14,2.39c.58.33.59,1.16.02,1.51l-4.11,2.52c-.55.34-1.25.35-1.81.03l-4.24-2.44c-.59-.34-.59-1.18,0-1.52Z"></path>
      <path class="cls-6" d="m168.71,181.02l4.24-2.48c.55-.32,1.23-.32,1.78,0l4.14,2.39c.58.33.59,1.16.02,1.51l-4.11,2.53c-.55.34-1.25.35-1.81.03l-4.24-2.44c-.59-.34-.59-1.18,0-1.52Z"></path>
      <path class="cls-6" d="m177.59,185.84l4.24-2.48c.55-.32,1.23-.32,1.78,0l4.14,2.39c.58.33.59,1.16.02,1.51l-4.11,2.53c-.55.34-1.25.35-1.81.03l-4.24-2.44c-.59-.34-.59-1.18,0-1.52Z"></path>
      <path class="cls-6" d="m76.03,138.05l4.24-2.48c.55-.32,1.23-.32,1.78,0l4.14,2.39c.58.33.59,1.17.02,1.51l-4.11,2.53c-.55.34-1.25.35-1.81.02l-4.24-2.44c-.59-.34-.59-1.18,0-1.52Z"></path>
      <path class="cls-6" d="m85.51,143.51l4.24-2.48c.55-.32,1.23-.32,1.78,0l4.14,2.39c.58.33.59,1.16.02,1.51l-4.11,2.53c-.55.34-1.25.35-1.81.03l-4.24-2.44c-.59-.34-.59-1.18,0-1.52Z"></path>
      <path class="cls-6" d="m94.72,148.68l4.24-2.48c.55-.32,1.23-.32,1.78,0l4.14,2.39c.58.33.59,1.16.02,1.51l-4.11,2.52c-.55.34-1.25.35-1.81.03l-4.24-2.44c-.59-.34-.59-1.18,0-1.52Z"></path>
      <path class="cls-6" d="m104.51,154.01l4.24-2.48c.55-.32,1.23-.32,1.78,0l4.14,2.39c.58.33.59,1.16.02,1.51l-4.11,2.53c-.55.34-1.25.35-1.81.02l-4.24-2.44c-.59-.34-.59-1.18,0-1.52Z"></path>
      <path class="cls-6" d="m113.14,159.08l4.23-2.48c.55-.32,1.23-.32,1.78,0l4.14,2.39c.58.33.59,1.16.02,1.51l-4.11,2.53c-.55.34-1.25.35-1.81.03l-4.24-2.44c-.59-.34-.59-1.18,0-1.52Z"></path>
      <path class="cls-6" d="m121.91,164.51l4.24-2.48c.55-.32,1.23-.32,1.78,0l4.14,2.39c.58.33.59,1.16.02,1.51l-4.11,2.53c-.55.34-1.25.35-1.81.03l-4.24-2.44c-.59-.34-.59-1.18,0-1.52Z"></path>
      <path class="cls-6" d="m131.27,169.65l4.23-2.48c.55-.32,1.23-.32,1.78,0l4.14,2.39c.58.33.59,1.16.02,1.51l-4.11,2.52c-.55.34-1.25.35-1.81.03l-4.24-2.44c-.59-.34-.59-1.18,0-1.52Z"></path>
      <path class="cls-6" d="m140.44,174.84l4.24-2.48c.55-.32,1.23-.32,1.78,0l4.14,2.39c.58.33.59,1.16.02,1.51l-4.11,2.53c-.55.34-1.25.35-1.81.03l-4.24-2.44c-.59-.34-.59-1.18,0-1.52Z"></path>
      <path class="cls-6" d="m149.46,180.37l4.24-2.48c.55-.32,1.23-.32,1.78,0l4.14,2.39c.58.33.59,1.16.02,1.51l-4.11,2.53c-.55.34-1.25.35-1.81.02l-4.24-2.44c-.59-.34-.59-1.18,0-1.52Z"></path>
      <path class="cls-6" d="m159.28,186.15l4.24-2.48c.55-.32,1.23-.32,1.78,0l4.14,2.39c.58.33.59,1.16.02,1.51l-4.11,2.52c-.55.34-1.25.35-1.81.03l-4.24-2.44c-.59-.34-.59-1.18,0-1.52Z"></path>
      <path class="cls-6" d="m168.16,190.97l4.24-2.48c.55-.32,1.23-.32,1.78,0l4.14,2.39c.58.33.59,1.16.02,1.51l-4.11,2.52c-.55.34-1.25.35-1.81.03l-4.24-2.44c-.59-.34-.59-1.18,0-1.52Z"></path>
      <path class="cls-6" d="m66.59,143.19l4.24-2.48c.55-.32,1.23-.32,1.78,0l4.14,2.39c.58.33.59,1.16.02,1.51l-4.11,2.53c-.55.34-1.25.35-1.81.03l-4.24-2.44c-.59-.34-.59-1.18,0-1.52Z"></path>
      <path class="cls-6" d="m76.07,148.64l4.24-2.48c.55-.32,1.23-.32,1.78,0l4.14,2.39c.58.33.59,1.16.02,1.51l-4.11,2.53c-.55.34-1.25.35-1.81.03l-4.24-2.44c-.59-.34-.59-1.18,0-1.52Z"></path>
      <path class="cls-6" d="m85.28,153.81l4.24-2.48c.55-.32,1.23-.32,1.78,0l4.14,2.39c.58.33.59,1.16.02,1.51l-4.11,2.52c-.55.34-1.25.35-1.81.03l-4.24-2.44c-.59-.34-.59-1.18,0-1.52Z"></path>
      <path class="cls-6" d="m95.07,159.14l4.24-2.48c.55-.32,1.23-.32,1.78,0l4.14,2.39c.58.33.59,1.16.02,1.51l-4.11,2.52c-.55.34-1.25.35-1.81.03l-4.24-2.44c-.59-.34-.59-1.18,0-1.52Z"></path>
      <path class="cls-6" d="m103.7,164.21l4.24-2.48c.55-.32,1.23-.32,1.78,0l4.14,2.39c.58.33.59,1.16.02,1.51l-4.11,2.53c-.55.34-1.25.35-1.81.03l-4.24-2.44c-.59-.34-.59-1.18,0-1.52Z"></path>
      <path class="cls-6" d="m112.47,169.64l4.23-2.48c.55-.32,1.23-.32,1.78,0l4.14,2.39c.58.33.59,1.16.02,1.51l-4.11,2.53c-.55.34-1.25.35-1.81.03l-4.24-2.44c-.59-.34-.59-1.18,0-1.52Z"></path>
      <path class="cls-6" d="m121.84,174.78l4.24-2.48c.55-.32,1.23-.32,1.78,0l4.14,2.39c.58.33.59,1.16.02,1.51l-4.11,2.53c-.55.34-1.25.35-1.81.03l-4.24-2.44c-.59-.34-.59-1.18,0-1.52Z"></path>
      <path class="cls-6" d="m131.01,179.97l4.24-2.48c.55-.32,1.23-.32,1.78,0l4.14,2.39c.58.33.59,1.17.02,1.51l-4.11,2.53c-.55.34-1.25.35-1.81.03l-4.24-2.44c-.59-.34-.59-1.18,0-1.52Z"></path>
      <path class="cls-6" d="m140.02,185.5l4.24-2.48c.55-.32,1.23-.32,1.78,0l4.14,2.39c.58.33.59,1.16.02,1.51l-4.11,2.53c-.55.34-1.25.35-1.81.03l-4.24-2.44c-.59-.34-.59-1.18,0-1.52Z"></path>
      <path class="cls-6" d="m149.84,191.29l4.24-2.48c.55-.32,1.23-.32,1.78,0l4.14,2.39c.58.33.59,1.16.02,1.51l-4.11,2.53c-.55.34-1.25.35-1.81.03l-4.24-2.44c-.59-.34-.59-1.18,0-1.52Z"></path>
      <path class="cls-6" d="m158.72,196.1l4.23-2.48c.55-.32,1.23-.32,1.78,0l4.14,2.39c.58.33.59,1.16.02,1.51l-4.11,2.52c-.55.34-1.25.35-1.81.03l-4.24-2.44c-.59-.34-.59-1.18,0-1.52Z"></path>
      <path class="cls-6" d="m57.15,148.32l4.24-2.48c.55-.32,1.23-.32,1.78,0l4.14,2.39c.58.33.59,1.16.02,1.51l-4.11,2.53c-.55.34-1.25.35-1.81.02l-4.24-2.44c-.59-.34-.59-1.18,0-1.52Z"></path>
      <path class="cls-6" d="m66.64,153.77l4.23-2.48c.55-.32,1.23-.32,1.78,0l4.14,2.39c.58.33.59,1.16.02,1.51l-4.11,2.53c-.55.34-1.25.35-1.81.03l-4.24-2.44c-.59-.34-.59-1.18,0-1.52Z"></path>
      <path class="cls-6" d="m75.84,158.94l4.24-2.48c.55-.32,1.23-.32,1.78,0l4.14,2.39c.58.33.59,1.16.02,1.51l-4.11,2.53c-.55.34-1.25.35-1.81.03l-4.24-2.44c-.59-.34-.59-1.18,0-1.52Z"></path>
      <path class="cls-6" d="m85.64,164.27l4.23-2.48c.55-.32,1.23-.32,1.78,0l4.14,2.39c.58.33.59,1.16.02,1.51l-4.11,2.53c-.55.34-1.25.35-1.81.02l-4.24-2.44c-.59-.34-.59-1.18,0-1.52Z"></path>
      <path class="cls-6" d="m95.07,169.91l4.24-2.48c.55-.32,1.23-.32,1.78,0l21.53,12.44c.58.33.59,1.16.02,1.51l-4.11,2.53c-.55.34-1.25.35-1.81.03l-21.64-12.49c-.59-.34-.59-1.18,0-1.52Z"></path>
      <path class="cls-6" d="m121.57,185.11l4.23-2.48c.55-.32,1.23-.32,1.78,0l4.14,2.39c.58.33.59,1.16.02,1.51l-4.11,2.53c-.55.34-1.25.35-1.81.03l-4.24-2.44c-.59-.34-.59-1.18,0-1.52Z"></path>
      <path class="cls-6" d="m130.58,190.63l4.23-2.48c.55-.32,1.23-.32,1.78,0l4.14,2.39c.58.33.59,1.16.02,1.51l-4.11,2.52c-.55.34-1.25.35-1.81.03l-4.24-2.44c-.59-.34-.59-1.18,0-1.52Z"></path>
      <path class="cls-6" d="m140.41,196.42l4.24-2.48c.55-.32,1.23-.32,1.78,0l4.14,2.39c.58.33.59,1.16.02,1.51l-4.11,2.52c-.55.34-1.25.35-1.81.03l-4.24-2.44c-.59-.34-.59-1.18,0-1.52Z"></path>
      <path class="cls-6" d="m149.29,201.24l4.24-2.48c.55-.32,1.23-.32,1.78,0l4.14,2.39c.58.33.59,1.16.02,1.51l-4.11,2.53c-.55.34-1.25.35-1.81.03l-4.24-2.44c-.59-.34-.59-1.18,0-1.52Z"></path>
      <path class="cls-3" d="m115.6,172.8c3-1.78,7.92-1.8,10.94-.06l84.14,48.58c3.02,1.74,3.02,4.59,0,6.34l-82.95,47.89c-3.02,1.74-7.96,1.74-10.98,0l-82.95-47.89c-3.02-1.74-3.03-4.62-.04-6.4l81.82-48.46Z"></path>
      <path class="cls-5" d="m210.68,221.32l-84.14-48.58c-3.02-1.74-7.94-1.72-10.94.06l-9.58,5.67,94.93,54.81,9.74-5.62c3.02-1.74,3.02-4.59,0-6.34Z"></path>
      <path class="cls-4" d="m126.45,181.71c1.22-.7,1.22-1.84,0-2.54-1.22-.7-3.2-.7-4.42,0-1.21.7-1.21,1.84,0,2.54,1.21.7,3.2.7,4.42,0Z"></path>
      <path class="cls-4" d="m133.51,186.21c1.22-.7,1.22-1.84,0-2.54s-3.2-.7-4.42,0c-1.21.7-1.21,1.84,0,2.54,1.21.7,3.2.7,4.42,0Z"></path>
      <path class="cls-4" d="m140.57,190.46c1.22-.7,1.22-1.84,0-2.54-1.22-.7-3.2-.7-4.42,0-1.21.7-1.21,1.84,0,2.54,1.21.7,3.2.7,4.42,0Z"></path>
      <path class="cls-11" d="m210.68,224.49l-82.95,47.89c-3.02,1.74-7.96,1.74-10.98,0l-82.95-47.89c-.82-.47-1.39-1.03-1.77-1.62-1.03,1.62-.45,3.51,1.77,4.79l82.95,47.89c3.02,1.74,7.96,1.74,10.98,0l82.95-47.89c2.22-1.28,2.79-3.16,1.75-4.75-.38.58-.95,1.12-1.75,1.58Z"></path>
      <path class="cls-8" d="m89.03,204.63l2.21-3.33,19.41,4.88-2.37,3.57-12.77-3.3,7.93,10.59-2.39,3.59-12.03-16Z"></path>
      <path class="cls-8" d="m129.29,214.61l4.59,3.05-28.37,13.24-4.56-3.03,28.33-13.26Z"></path>
      <path class="cls-8" d="m147.32,238.55l-2.21,3.33-19.41-4.88,2.39-3.59,12.83,3.21-8-10.49,2.37-3.57,12.03,16Z"></path>
    </g>
  </g>
</svg>
