<?xml version="1.0" encoding="UTF-8"?>
<svg xmlns="http://www.w3.org/2000/svg" xmlns:xlink="http://www.w3.org/1999/xlink" id="Layer_1" viewBox="0 0 249 301">
  <defs>
    <style>.cls-1{fill:url(#linear-gradient);}.cls-2{fill:#043746;}.cls-3{fill:#f4f8fd;}.cls-4{fill:#fff;}.cls-5{fill:#9e2a40;}.cls-6{fill:#e0395c;}.cls-7{fill:#d4daee;}.cls-8{fill:#d3daed;}.cls-9{fill:#232752;}.cls-10{fill:url(#linear-gradient-3);}.cls-11{fill:url(#linear-gradient-2);}</style>
    <linearGradient id="linear-gradient" x1="9253.85" y1="112.93" x2="9390.18" y2="112.93" gradientTransform="translate(9411.95) rotate(-180) scale(1 -1)" gradientUnits="userSpaceOnUse">
      <stop offset="0" stop-color="#e0e8f4"></stop>
      <stop offset="1" stop-color="#93a4d4"></stop>
    </linearGradient>
    <linearGradient id="linear-gradient-2" x1="95.2" y1="154.24" x2="201.05" y2="154.24" gradientUnits="userSpaceOnUse">
      <stop offset="0" stop-color="#003b4d"></stop>
      <stop offset=".55" stop-color="#476080"></stop>
      <stop offset="1" stop-color="#41607f"></stop>
    </linearGradient>
    <linearGradient id="linear-gradient-3" x1="145.51" y1="178.22" x2="172.85" y2="178.22" gradientUnits="userSpaceOnUse">
      <stop offset="0" stop-color="#f29300"></stop>
      <stop offset=".73" stop-color="#f8b203"></stop>
      <stop offset="1" stop-color="#fbbf05"></stop>
    </linearGradient>
  </defs>
  <circle class="cls-6" cx="124.73" cy="177.47" r="115.84"></circle>
  <path class="cls-3" d="m150.29,21.91L29.28,91.78c-4.65,2.69-7.52,7.65-7.52,13.02v94.36c0,4.62,5,7.51,9.01,5.2l121.01-69.87c4.65-2.69,7.52-7.65,7.52-13.02V27.11c0-4.62-5-7.51-9.01-5.2Z"></path>
  <path class="cls-1" d="m29.28,91.78L150.29,21.91c2.79-1.61,6.07-.69,7.8,1.59-1.59-.62-3.46-.58-5.15.4L31.93,93.77c-4.65,2.69-7.52,7.65-7.52,13.02v94.36c0,1.4.46,2.63,1.21,3.61-2.18-.84-3.86-2.93-3.86-5.6v-94.36c0-5.37,2.87-10.34,7.52-13.02Z"></path>
  <polygon class="cls-5" points="151.37 35.38 33.6 103.28 33.6 160.39 151.37 92.49 151.37 35.38"></polygon>
  <polygon class="cls-7" points="151.37 100.05 33.6 167.96 33.6 174.69 151.37 106.79 151.37 100.05"></polygon>
  <polygon class="cls-7" points="84.43 157.03 33.6 186.23 33.6 192.96 84.43 163.76 84.43 157.03"></polygon>
  <path class="cls-9" d="m155.11,91.48c-11.45-6.7-22.08-8.58-30.77-6.36v-.02s-7.84,1.97-7.84,1.97l-3.71,4.5h0c-6.65,6.46-10.61,16.99-10.61,30.86,0,34.04,23.82,75.82,52.92,92.83,5.69,3.33,11.18,5.46,16.33,6.5v.76s7.6,0,7.6,0v-.02c17.16-.23,28.99-14.21,28.99-38.19,0-34.04-23.82-75.82-52.92-92.84Z"></path>
  <path class="cls-11" d="m148.13,93.14c-29.11-16.8-52.92-3.06-52.92,30.55s23.81,74.86,52.92,91.66c29.11,16.8,52.92,3.06,52.92-30.55,0-33.61-23.82-74.86-52.92-91.66Z"></path>
  <path class="cls-4" d="m148.13,102.25c-24.77-14.3-45.03-2.6-45.03,26,0,28.6,20.26,63.69,45.03,77.99,24.77,14.3,45.03,2.6,45.03-26,0-28.6-20.26-63.69-45.03-77.99Z"></path>
  <path class="cls-8" d="m152.49,206.24c-24.77-14.3-45.03-49.4-45.03-77.99,0-19.33,9.27-30.93,22.92-32-16.01-1.25-27.29,10.67-27.29,32,0,28.6,20.26,63.69,45.03,77.99,8.02,4.63,15.57,6.52,22.11,6.01-5.45-.43-11.45-2.37-17.74-6.01Z"></path>
  <path class="cls-10" d="m170.24,204.82c-.99,0-1.94-.56-2.38-1.52l-22.11-47.96c-.61-1.31-.03-2.87,1.28-3.48,1.31-.61,2.87-.03,3.48,1.28l22.11,47.96c.61,1.31.03,2.87-1.28,3.48-.35.16-.73.24-1.09.24Z"></path>
  <path class="cls-2" d="m148.13,156.87c-1.45,0-2.62-1.17-2.62-2.62v-32.52c0-1.45,1.17-2.62,2.62-2.62s2.62,1.17,2.62,2.62v32.52c0,1.45-1.17,2.62-2.62,2.62Z"></path>
  <path class="cls-2" d="m148.13,144.53c-3.8-2.19-6.9-.4-6.9,3.99,0,4.38,3.11,9.76,6.9,11.96,3.8,2.19,6.9.4,6.9-3.99s-3.11-9.76-6.9-11.96Z"></path>
  <path class="cls-2" d="m112.8,132.29c-1.21-.7-2.19-.13-2.19,1.27,0,1.39.99,3.1,2.19,3.8,1.21.7,2.19.13,2.19-1.27s-.99-3.1-2.19-3.8Z"></path>
  <path class="cls-2" d="m185.91,177.64c-1.21-.7-2.19-.13-2.19,1.27,0,1.39.99,3.1,2.19,3.8,1.21.7,2.19.13,2.19-1.27,0-1.39-.99-3.1-2.19-3.8Z"></path>
  <path class="cls-2" d="m150.32,196.84c-1.21-.7-2.19-.13-2.19,1.27s.99,3.1,2.19,3.8c1.21.7,2.19.13,2.19-1.27,0-1.39-.99-3.1-2.19-3.8Z"></path>
</svg>
