<?xml version="1.0" encoding="UTF-8"?>
<svg xmlns="http://www.w3.org/2000/svg" xmlns:xlink="http://www.w3.org/1999/xlink" id="Layer_1" viewBox="0 0 249 301">
  <defs>
    <style>.cls-1{opacity:.11;}.cls-1,.cls-2{fill:#12100b;}.cls-3{fill:url(#linear-gradient);}.cls-4{fill:#e9edf6;}.cls-5{fill:#e0395c;}.cls-6{fill:#232752;}.cls-2{opacity:.16;}.cls-7{fill:url(#linear-gradient-3);}.cls-8{fill:url(#linear-gradient-2);}.cls-9{fill:url(#_ÂÁ_Ï_ÌÌ_È_ËÂÌÚ_5);}</style>
    <linearGradient id="linear-gradient" x1="40.63" y1="116.38" x2="231.46" y2="227.5" gradientUnits="userSpaceOnUse">
      <stop offset="0" stop-color="#003b4d"></stop>
      <stop offset=".55" stop-color="#476080"></stop>
      <stop offset="1" stop-color="#41607f"></stop>
    </linearGradient>
    <linearGradient id="linear-gradient-2" x1="40.91" y1="102.36" x2="193.49" y2="102.36" xlink:href="#linear-gradient"></linearGradient>
    <linearGradient id="linear-gradient-3" x1="117.46" y1="214.96" x2="113.83" y2="135.25" xlink:href="#linear-gradient"></linearGradient>
    <linearGradient id="_ÂÁ_Ï_ÌÌ_È_ËÂÌÚ_5" x1="82.45" y1="117.78" x2="161.33" y2="117.78" gradientUnits="userSpaceOnUse">
      <stop offset="0" stop-color="#f5f5fa"></stop>
      <stop offset="1" stop-color="#ddddf0"></stop>
    </linearGradient>
  </defs>
  <circle class="cls-5" cx="124.73" cy="177.47" r="115.84"></circle>
  <polygon class="cls-3" points="193.49 248.1 40.91 170.36 40.91 73.83 193.49 151.57 193.49 248.1"></polygon>
  <polygon class="cls-6" points="193.5 151.56 165.78 159.46 161.33 160.72 157.6 161.79 155.35 162.43 154.45 162.7 150.72 163.75 148.3 164.43 118.07 173.03 117.2 173.27 82.45 127.96 79.06 123.54 78.71 123.09 75.58 119.01 71.84 114.14 63.21 102.88 40.92 73.83 86.9 97.25 117.2 112.7 165.78 137.44 193.5 151.56"></polygon>
  <polygon class="cls-8" points="117.2 53.14 193.49 151.57 117.2 112.7 40.91 73.83 117.2 53.14"></polygon>
  <polygon class="cls-7" points="117.2 154.98 155.35 201.54 193.49 248.1 117.2 209.23 40.91 170.36 79.06 162.67 117.2 154.98"></polygon>
  <polygon class="cls-2" points="154.84 101.68 86.9 66.72 86.9 97.25 86.9 132.39 118.07 173.03 148.3 164.43 150.72 163.75 154.45 162.7 155.35 162.43 157.6 161.79 161.33 160.72 165.78 159.46 165.78 137.44 165.78 115.81 154.84 101.68"></polygon>
  <polygon class="cls-9" points="161.33 102.9 161.33 160.72 157.66 161.77 157.6 161.79 155.35 162.43 154.45 162.7 150.72 163.75 148.3 164.43 117.2 173.27 82.45 127.96 82.45 62.28 157.66 101.01 161.33 102.9"></polygon>
  <polygon class="cls-2" points="157.66 101.01 157.66 161.77 157.6 161.79 155.35 162.43 154.45 162.7 150.72 163.75 148.3 164.43 117.2 173.27 82.45 127.96 82.45 62.28 157.66 101.01"></polygon>
  <polygon class="cls-4" points="154.45 86.41 154.45 162.7 150.72 163.75 148.3 164.43 117.2 173.27 79.06 123.54 78.71 123.09 75.58 119.01 75.58 45.79 154.45 86.41"></polygon>
  <polygon class="cls-1" points="119.4 169.67 81.26 119.93 80.91 119.48 75.58 112.54 75.58 119.01 78.71 123.09 79.06 123.54 117.2 173.27 148.3 164.43 150.72 163.75 154.45 162.7 154.45 159.89 119.4 169.67"></polygon>
</svg>
