<?xml version="1.0" encoding="UTF-8"?>
<svg xmlns="http://www.w3.org/2000/svg" xmlns:xlink="http://www.w3.org/1999/xlink" viewBox="0 0 249 301">
  <defs>
    <style>.cls-1{fill:url(#linear-gradient);}.cls-2{fill:url(#_ÂÁ_Ï_ÌÌ_È_ËÂÌÚ_10);}.cls-3{opacity:.11;}.cls-4{fill:#f6f5f8;}.cls-5{fill:#f7f7f7;}.cls-6{fill:#f7f7f8;}.cls-7{fill:#f2f2f3;}.cls-8{fill:#003b4d;}.cls-9{fill:#e9eaeb;}.cls-10{fill:#f4f4f5;}.cls-11{fill:#fcfcfd;}.cls-12{fill:#fcfcfc;}.cls-13{fill:#e7e7e9;}.cls-14{fill:#e7e7e8;}.cls-15,.cls-16{fill:#fff;}.cls-17{fill:#f1f2f2;}.cls-18{fill:#ececed;}.cls-19{fill:#ececee;}.cls-20{fill:#fafafa;}.cls-21{fill:#efeff0;}.cls-22{fill:#e4e4e6;}.cls-23{fill:#9e2a40;}.cls-24{fill:#c1c2c6;}.cls-25{fill:#cecfd3;}.cls-26{fill:#cecfd2;}.cls-27{fill:#cccdd0;}.cls-28{fill:#c9cacd;}.cls-29{fill:#dedfe1;}.cls-30{fill:#e0395c;}.cls-31{fill:#cbcccf;}.cls-32{fill:#d1d2d4;}.cls-33{fill:#d1d2d5;}.cls-34{fill:#d2811d;}.cls-35{fill:#c4c5c8;}.cls-36{fill:#d6d7d9;}.cls-37{fill:#dcdcde;}.cls-38{fill:#dcdddf;}.cls-39{fill:#d4d5d7;}.cls-40{fill:#d4d4d7;}.cls-41{fill:#d9dadc;}.cls-42{fill:#d7d7da;}.cls-43{fill:#c6c7cb;}.cls-44{fill:#c6c7ca;}.cls-45{fill:#e45365;}.cls-46{fill:#e1e2e3;}.cls-47{fill:#e1e2e4;}.cls-48{fill:#dfdfe1;}.cls-49{fill:#232752;}.cls-50{fill:#476080;}.cls-51{mix-blend-mode:multiply;}.cls-52{mix-blend-mode:screen;}.cls-53{fill:url(#linear-gradient-8);}.cls-54{fill:url(#linear-gradient-9);}.cls-55{fill:url(#linear-gradient-3);}.cls-56{fill:url(#linear-gradient-4);}.cls-57{fill:url(#linear-gradient-2);}.cls-58{fill:url(#linear-gradient-6);}.cls-59{fill:url(#linear-gradient-7);}.cls-60{fill:url(#linear-gradient-5);}.cls-61{opacity:.16;}.cls-62{fill:url(#linear-gradient-14);}.cls-63{fill:url(#linear-gradient-18);}.cls-64{fill:url(#linear-gradient-22);}.cls-65{fill:url(#linear-gradient-20);}.cls-66{fill:url(#linear-gradient-21);}.cls-67{fill:url(#linear-gradient-23);}.cls-68{fill:url(#linear-gradient-15);}.cls-69{fill:url(#linear-gradient-19);}.cls-70{fill:url(#linear-gradient-16);}.cls-71{fill:url(#linear-gradient-17);}.cls-72{fill:url(#linear-gradient-13);}.cls-73{fill:url(#linear-gradient-12);}.cls-74{fill:url(#linear-gradient-10);}.cls-75{fill:url(#linear-gradient-11);}.cls-76{fill:url(#linear-gradient-24);}.cls-77{fill:url(#linear-gradient-26);}.cls-78{fill:url(#linear-gradient-25);}.cls-79{isolation:isolate;}.cls-80{fill:url(#_ÂÁ_Ï_ÌÌ_È_ËÂÌÚ_2-2);}.cls-81{fill:url(#_ÂÁ_Ï_ÌÌ_È_ËÂÌÚ_3-2);}.cls-82{fill:url(#_ÂÁ_Ï_ÌÌ_È_ËÂÌÚ_3-3);}.cls-83{fill:url(#_ÂÁ_Ï_ÌÌ_È_ËÂÌÚ_3);}.cls-84{fill:url(#_ÂÁ_Ï_ÌÌ_È_ËÂÌÚ_2);}.cls-16{opacity:.3;}</style>
    <linearGradient id="_ÂÁ_Ï_ÌÌ_È_ËÂÌÚ_3" x1="103.4" y1="123.94" x2="184.29" y2="123.94" gradientUnits="userSpaceOnUse">
      <stop offset="0" stop-color="#cad4eb"></stop>
      <stop offset="1" stop-color="#b9bee0"></stop>
    </linearGradient>
    <linearGradient id="linear-gradient" x1="161.42" y1="44.58" x2="101.72" y2="274.32" gradientUnits="userSpaceOnUse">
      <stop offset="0" stop-color="#003b4d"></stop>
      <stop offset=".55" stop-color="#476080"></stop>
      <stop offset="1" stop-color="#41607f"></stop>
    </linearGradient>
    <linearGradient id="linear-gradient-2" x1="108.78" y1="145.32" x2="187.48" y2="145.32" gradientTransform="translate(-6.86)" gradientUnits="userSpaceOnUse">
      <stop offset="0" stop-color="#d0d1d5"></stop>
      <stop offset="1" stop-color="#cfd0d4"></stop>
    </linearGradient>
    <linearGradient id="linear-gradient-3" x1="115.56" y1="145.04" x2="194.15" y2="145.04" gradientTransform="translate(-13.72)" gradientUnits="userSpaceOnUse">
      <stop offset="0" stop-color="#d2d3d7"></stop>
      <stop offset="1" stop-color="#d0d1d5"></stop>
    </linearGradient>
    <linearGradient id="linear-gradient-4" x1="122.33" y1="144.77" x2="200.83" y2="144.77" gradientTransform="translate(-20.59)" gradientUnits="userSpaceOnUse">
      <stop offset="0" stop-color="#d4d5d9"></stop>
      <stop offset="1" stop-color="#d2d2d6"></stop>
    </linearGradient>
    <linearGradient id="linear-gradient-5" x1="129.11" y1="144.5" x2="207.51" y2="144.5" gradientTransform="translate(-27.45)" gradientUnits="userSpaceOnUse">
      <stop offset="0" stop-color="#d7d7db"></stop>
      <stop offset="1" stop-color="#d3d4d7"></stop>
    </linearGradient>
    <linearGradient id="linear-gradient-6" x1="135.89" y1="144.23" x2="214.18" y2="144.23" gradientTransform="translate(-34.31)" gradientUnits="userSpaceOnUse">
      <stop offset="0" stop-color="#d9d9dd"></stop>
      <stop offset="1" stop-color="#d4d5d8"></stop>
    </linearGradient>
    <linearGradient id="linear-gradient-7" x1="142.66" y1="143.95" x2="220.86" y2="143.95" gradientTransform="translate(-41.17)" gradientUnits="userSpaceOnUse">
      <stop offset="0" stop-color="#dbdcde"></stop>
      <stop offset="1" stop-color="#d5d6d9"></stop>
    </linearGradient>
    <linearGradient id="linear-gradient-8" x1="149.44" y1="143.68" x2="227.54" y2="143.68" gradientTransform="translate(-48.04)" gradientUnits="userSpaceOnUse">
      <stop offset="0" stop-color="#dddee0"></stop>
      <stop offset="1" stop-color="#d6d7da"></stop>
    </linearGradient>
    <linearGradient id="linear-gradient-9" x1="156.22" y1="143.41" x2="234.21" y2="143.41" gradientTransform="translate(-54.9)" gradientUnits="userSpaceOnUse">
      <stop offset="0" stop-color="#dfe0e2"></stop>
      <stop offset="1" stop-color="#d7d8db"></stop>
    </linearGradient>
    <linearGradient id="linear-gradient-10" x1="162.99" y1="143.13" x2="240.89" y2="143.13" gradientTransform="translate(-61.76)" gradientUnits="userSpaceOnUse">
      <stop offset="0" stop-color="#e1e2e4"></stop>
      <stop offset="1" stop-color="#d9d9dc"></stop>
    </linearGradient>
    <linearGradient id="linear-gradient-11" x1="169.77" y1="142.86" x2="247.57" y2="142.86" gradientTransform="translate(-68.62)" gradientUnits="userSpaceOnUse">
      <stop offset="0" stop-color="#e3e4e6"></stop>
      <stop offset="1" stop-color="#dadadd"></stop>
    </linearGradient>
    <linearGradient id="linear-gradient-12" x1="176.55" y1="142.59" x2="254.24" y2="142.59" gradientTransform="translate(-75.49)" gradientUnits="userSpaceOnUse">
      <stop offset="0" stop-color="#e5e6e8"></stop>
      <stop offset="1" stop-color="#dbdbde"></stop>
    </linearGradient>
    <linearGradient id="linear-gradient-13" x1="183.32" y1="142.31" x2="260.92" y2="142.31" gradientTransform="translate(-82.35)" gradientUnits="userSpaceOnUse">
      <stop offset="0" stop-color="#e8e8ea"></stop>
      <stop offset="1" stop-color="#dcddde"></stop>
    </linearGradient>
    <linearGradient id="linear-gradient-14" x1="190.1" y1="142.04" x2="267.6" y2="142.04" gradientTransform="translate(-89.21)" gradientUnits="userSpaceOnUse">
      <stop offset="0" stop-color="#eaeaec"></stop>
      <stop offset="1" stop-color="#dddedf"></stop>
    </linearGradient>
    <linearGradient id="linear-gradient-15" x1="196.87" y1="141.77" x2="274.27" y2="141.77" gradientTransform="translate(-96.07)" gradientUnits="userSpaceOnUse">
      <stop offset="0" stop-color="#ececee"></stop>
      <stop offset="1" stop-color="#dedfe0"></stop>
    </linearGradient>
    <linearGradient id="linear-gradient-16" x1="203.65" y1="141.49" x2="280.95" y2="141.49" gradientTransform="translate(-102.93)" gradientUnits="userSpaceOnUse">
      <stop offset="0" stop-color="#eeeef0"></stop>
      <stop offset="1" stop-color="#e0e0e1"></stop>
    </linearGradient>
    <linearGradient id="linear-gradient-17" x1="210.43" y1="141.22" x2="287.63" y2="141.22" gradientTransform="translate(-109.8)" gradientUnits="userSpaceOnUse">
      <stop offset="0" stop-color="#f0f0f2"></stop>
      <stop offset="1" stop-color="#e1e1e2"></stop>
    </linearGradient>
    <linearGradient id="linear-gradient-18" x1="217.2" y1="140.95" x2="294.3" y2="140.95" gradientTransform="translate(-116.66)" gradientUnits="userSpaceOnUse">
      <stop offset="0" stop-color="#f2f2f4"></stop>
      <stop offset="1" stop-color="#e2e2e3"></stop>
    </linearGradient>
    <linearGradient id="linear-gradient-19" x1="223.98" y1="140.67" x2="300.98" y2="140.67" gradientTransform="translate(-123.52)" gradientUnits="userSpaceOnUse">
      <stop offset="0" stop-color="#f4f5f5"></stop>
      <stop offset="1" stop-color="#e3e3e4"></stop>
    </linearGradient>
    <linearGradient id="linear-gradient-20" x1="230.76" y1="140.4" x2="307.66" y2="140.4" gradientTransform="translate(-130.38)" gradientUnits="userSpaceOnUse">
      <stop offset="0" stop-color="#f6f7f7"></stop>
      <stop offset="1" stop-color="#e4e4e5"></stop>
    </linearGradient>
    <linearGradient id="linear-gradient-21" x1="237.53" y1="140.13" x2="314.33" y2="140.13" gradientTransform="translate(-137.25)" gradientUnits="userSpaceOnUse">
      <stop offset="0" stop-color="#f9f9f9"></stop>
      <stop offset="1" stop-color="#e5e6e6"></stop>
    </linearGradient>
    <linearGradient id="linear-gradient-22" x1="244.31" y1="139.85" x2="321.01" y2="139.85" gradientTransform="translate(-144.11)" gradientUnits="userSpaceOnUse">
      <stop offset="0" stop-color="#fbfbfb"></stop>
      <stop offset="1" stop-color="#e7e7e7"></stop>
    </linearGradient>
    <linearGradient id="linear-gradient-23" x1="251.09" y1="139.58" x2="327.68" y2="139.58" gradientTransform="translate(-150.97)" gradientUnits="userSpaceOnUse">
      <stop offset="0" stop-color="#fdfdfd"></stop>
      <stop offset="1" stop-color="#e8e8e8"></stop>
    </linearGradient>
    <linearGradient id="_ÂÁ_Ï_ÌÌ_È_ËÂÌÚ_10" x1="257.86" y1="139.31" x2="334.36" y2="139.31" gradientTransform="translate(-157.83)" gradientUnits="userSpaceOnUse">
      <stop offset="0" stop-color="#fff"></stop>
      <stop offset="1" stop-color="#e9e9e9"></stop>
    </linearGradient>
    <linearGradient id="_ÂÁ_Ï_ÌÌ_È_ËÂÌÚ_3-2" x1="53.73" y1="243.02" x2="119.79" y2="243.02" xlink:href="#_ÂÁ_Ï_ÌÌ_È_ËÂÌÚ_3"></linearGradient>
    <linearGradient id="_ÂÁ_Ï_ÌÌ_È_ËÂÌÚ_3-3" x1="53.73" y1="241" x2="119.79" y2="241" gradientTransform="translate(173.51 482) rotate(-180)" xlink:href="#_ÂÁ_Ï_ÌÌ_È_ËÂÌÚ_3"></linearGradient>
    <linearGradient id="_ÂÁ_Ï_ÌÌ_È_ËÂÌÚ_2" x1="53.73" y1="238.17" x2="119.79" y2="238.17" gradientUnits="userSpaceOnUse">
      <stop offset="0" stop-color="#efeff6"></stop>
      <stop offset="1" stop-color="#d3d5ea"></stop>
    </linearGradient>
    <linearGradient id="linear-gradient-24" x1="97.61" y1="349.08" x2="136.4" y2="372.53" gradientTransform="translate(0 -312.55) rotate(27) scale(1.12 .89) skewX(22.02)" gradientUnits="userSpaceOnUse">
      <stop offset="0" stop-color="#f39322"></stop>
      <stop offset=".8" stop-color="#f8b229"></stop>
      <stop offset="1" stop-color="#fabb2b"></stop>
    </linearGradient>
    <linearGradient id="linear-gradient-25" x1="85.34" y1="86.09" x2="163.44" y2="86.09" gradientTransform="matrix(1,0,0,1,0,0)" xlink:href="#linear-gradient-24"></linearGradient>
    <linearGradient id="linear-gradient-26" x1="85.34" y1="136.86" x2="163.44" y2="136.86" gradientTransform="matrix(1,0,0,1,0,0)" xlink:href="#linear-gradient-24"></linearGradient>
    <linearGradient id="_ÂÁ_Ï_ÌÌ_È_ËÂÌÚ_2-2" x1="106.6" y1="93.99" x2="146.98" y2="93.99" xlink:href="#_ÂÁ_Ï_ÌÌ_È_ËÂÌÚ_2"></linearGradient>
  </defs>
  <g class="cls-79">
    <g id="Layer_1">
      <circle class="cls-30" cx="124.73" cy="177.47" r="115.84"></circle>
      <g class="cls-51">
        <path class="cls-15" d="m103.98,197.79s-7.56,7.33.6,12.85c8.16,5.52,49.2,27.24,58.06,32.12,8.86,4.88,23.04,2.44,25-2.89,2.95-8.04-3.84-9.63-11.03-14.47-7.19-4.83-58.47-29.5-63.49-28.65-5.02.85-6.38-.66-9.14,1.03Z"></path>
        <path class="cls-12" d="m104.09,197.85s-7.44,7.24.69,12.75c8.14,5.51,49.07,27.17,57.9,32.04,8.84,4.87,22.84,2.46,24.79-2.85,2.95-8.02-3.79-9.57-10.96-14.39-7.17-4.82-58.32-29.42-63.32-28.57-5,.85-6.36-.66-9.11,1.03Z"></path>
        <path class="cls-20" d="m104.2,197.91s-7.33,7.15.79,12.65c8.12,5.49,48.93,27.1,57.75,31.95,8.81,4.85,22.63,2.48,24.58-2.81,2.94-8-3.73-9.5-10.88-14.31-7.15-4.81-58.16-29.34-63.15-28.5-4.99.85-6.34-.66-9.09,1.02Z"></path>
        <path class="cls-5" d="m104.31,197.97s-7.21,7.06.88,12.54c8.1,5.48,48.8,27.03,57.6,31.87,8.79,4.84,22.43,2.51,24.37-2.78,2.93-7.97-3.67-9.44-10.8-14.23-7.13-4.79-58.01-29.26-62.98-28.42-4.98.84-6.33-.65-9.06,1.02Z"></path>
        <path class="cls-10" d="m104.41,198.03s-7.1,6.98.97,12.44c8.07,5.47,48.67,26.95,57.44,31.78,8.76,4.83,22.22,2.53,24.16-2.74,2.92-7.95-3.61-9.37-10.72-14.15-7.11-4.78-57.85-29.18-62.82-28.34-4.96.84-6.31-.65-9.04,1.02Z"></path>
        <path class="cls-17" d="m104.52,198.09s-6.98,6.89,1.07,12.34c8.05,5.45,48.54,26.88,57.29,31.69,8.74,4.81,22.02,2.55,23.95-2.7,2.91-7.93-3.55-9.31-10.64-14.08-7.09-4.77-57.69-29.11-62.65-28.27-4.95.84-6.29-.65-9.01,1.02Z"></path>
        <path class="cls-21" d="m104.63,198.15s-6.87,6.8,1.16,12.23c8.03,5.44,48.41,26.81,57.13,31.61,8.72,4.8,21.81,2.57,23.74-2.67,2.91-7.91-3.49-9.24-10.57-14-7.07-4.75-57.54-29.03-62.48-28.19-4.94.84-6.27-.65-8.99,1.01Z"></path>
        <path class="cls-18" d="m104.74,198.21s-6.75,6.71,1.26,12.13c8.01,5.42,48.28,26.74,56.98,31.52,8.69,4.79,21.61,2.6,23.53-2.63,2.9-7.89-3.43-9.18-10.49-13.92-7.05-4.74-57.38-28.95-62.31-28.12-4.92.83-6.26-.65-8.97,1.01Z"></path>
        <path class="cls-9" d="m104.85,198.27s-6.64,6.62,1.35,12.03c7.99,5.41,48.15,26.66,56.82,31.44,8.67,4.77,21.4,2.62,23.32-2.59,2.89-7.87-3.37-9.11-10.41-13.84-7.03-4.73-57.23-28.87-62.14-28.04-4.91.83-6.24-.65-8.94,1.01Z"></path>
        <path class="cls-14" d="m104.96,198.33s-6.52,6.53,1.44,11.92c7.97,5.39,48.02,26.59,56.67,31.35,8.65,4.76,21.2,2.64,23.11-2.55,2.88-7.85-3.31-9.05-10.33-13.76-7.01-4.72-57.07-28.79-61.97-27.96-4.9.83-6.22-.64-8.92,1Z"></path>
        <path class="cls-22" d="m105.06,198.39s-6.41,6.44,1.54,11.82c7.94,5.38,47.89,26.52,56.52,31.27,8.62,4.75,20.99,2.67,22.9-2.52,2.87-7.82-3.25-8.98-10.25-13.69-6.99-4.7-56.92-28.71-61.8-27.89-4.88.83-6.21-.64-8.89,1Z"></path>
        <path class="cls-46" d="m105.17,198.45s-6.29,6.36,1.63,11.72c7.92,5.36,47.76,26.45,56.36,31.18,8.6,4.74,20.79,2.69,22.69-2.48,2.87-7.8-3.2-8.92-10.18-13.61-6.98-4.69-56.76-28.64-61.63-27.81-4.87.83-6.19-.64-8.87,1Z"></path>
        <path class="cls-29" d="m105.28,198.51s-6.18,6.27,1.72,11.61c7.9,5.35,47.63,26.37,56.21,31.1,8.57,4.72,20.58,2.71,22.48-2.44,2.86-7.78-3.14-8.85-10.1-13.53-6.96-4.68-56.61-28.56-61.47-27.73-4.86.82-6.17-.64-8.84,1Z"></path>
        <path class="cls-37" d="m105.39,198.57s-6.06,6.18,1.82,11.51c7.88,5.33,47.49,26.3,56.05,31.01,8.55,4.71,20.38,2.74,22.27-2.41,2.85-7.76-3.08-8.79-10.02-13.45-6.94-4.66-56.45-28.48-61.3-27.66-4.84.82-6.16-.64-8.82.99Z"></path>
        <path class="cls-41" d="m105.5,198.63s-5.95,6.09,1.91,11.41c7.86,5.32,47.36,26.23,55.9,30.93,8.53,4.7,20.17,2.76,22.05-2.37,2.84-7.74-3.02-8.72-9.94-13.37-6.92-4.65-56.3-28.4-61.13-27.58-4.83.82-6.14-.63-8.8.99Z"></path>
        <path class="cls-36" d="m105.61,198.69s-5.83,6,2.01,11.31c7.83,5.3,47.23,26.16,55.74,30.84,8.5,4.68,19.97,2.78,21.84-2.33,2.83-7.72-2.96-8.66-9.86-13.3-6.9-4.64-56.14-28.32-60.96-27.51-4.82.82-6.12-.63-8.77.99Z"></path>
        <path class="cls-40" d="m105.72,198.75s-5.71,5.91,2.1,11.2c7.81,5.29,47.1,26.08,55.59,30.75,8.48,4.67,19.76,2.81,21.63-2.29,2.83-7.7-2.9-8.59-9.78-13.22-6.88-4.63-55.98-28.24-60.79-27.43-4.8.81-6.1-.63-8.75.99Z"></path>
        <path class="cls-32" d="m105.82,198.81s-5.6,5.83,2.19,11.1c7.79,5.27,46.97,26.01,55.43,30.67,8.46,4.66,19.55,2.83,21.42-2.26,2.82-7.67-2.84-8.53-9.71-13.14-6.86-4.61-55.83-28.17-60.62-27.35-4.79.81-6.09-.63-8.72.98Z"></path>
        <path class="cls-26" d="m105.93,198.87s-5.48,5.74,2.29,11c7.77,5.26,46.84,25.94,55.28,30.58,8.43,4.64,19.35,2.85,21.21-2.22,2.81-7.65-2.78-8.46-9.63-13.06-6.84-4.6-55.67-28.09-60.45-27.28-4.78.81-6.07-.63-8.7.98Z"></path>
        <path class="cls-31" d="m106.04,198.93s-5.37,5.65,2.38,10.89c7.75,5.24,46.71,25.87,55.13,30.5,8.41,4.63,19.14,2.87,21-2.18,2.8-7.63-2.72-8.4-9.55-12.98-6.82-4.59-55.52-28.01-60.28-27.2-4.76.81-6.05-.63-8.67.98Z"></path>
        <path class="cls-28" d="m106.15,198.99s-5.25,5.56,2.47,10.79c7.72,5.23,46.58,25.79,54.97,30.41,8.38,4.62,18.94,2.9,20.79-2.15,2.79-7.61-2.66-8.33-9.47-12.91-6.8-4.57-55.36-27.93-60.12-27.12-4.75.8-6.04-.62-8.65.97Z"></path>
        <path class="cls-44" d="m106.26,199.05s-5.14,5.47,2.57,10.69c7.7,5.21,46.45,25.72,54.82,30.33,8.36,4.61,18.73,2.92,20.58-2.11,2.79-7.59-2.61-8.27-9.39-12.83-6.78-4.56-55.21-27.85-59.95-27.05-4.74.8-6.02-.62-8.63.97Z"></path>
      </g>
      <path class="cls-83" d="m181.28,238.56c-.1.09-3.05,1.99-3.42,2.24.09-.06.17-.13.25-.2.24-.19.46-.41.66-.64.18-.19.34-.38.48-.6.03-.04.06-.09.09-.13.1-.13.17-.29.26-.45.12-.19.22-.4.32-.6.05-.16.11-.31.17-.45.06-.15.1-.31.15-.47.06-.16.1-.34.13-.51.03-.06.04-.13.06-.2.22-.98.31-1.99.34-3.01v-.29c.02-.54.02-1.07.02-1.59,0,0-.14-28.66-.33-62.43,0-.96,0-1.97-.01-2.95-.04-8.91-.07-18.13-.13-27.21-.01-.63-.01-1.24-.01-1.87-.06-9.87-.1-19.56-.15-28.53-.12-19.31-.2-35.28-.26-42.52-.01-.89-.01-1.65-.01-2.28-.01-1.33-.01-2.04-.01-2.04-.19-5.78-2.89-11.86-7.01-16.27-.18-.17-.37-.36-.54-.56-.01-.03-.03-.04-.04-.06-.17-.18-.35-.34-.52-.5-.18-.16-.35-.32-.53-.5-.43-.36-.87-.73-1.33-1.07-.19-.15-.38-.28-.58-.41-.04-.06-.12-.1-.17-.13-.22-.16-.42-.31-.66-.44-.37-.23-.73-.47-1.11-.66l-13.6-7.46-7.9-4.34-10.84-5.94-22.82-12.52c-1.97-1.08-3.84-1.59-5.48-1.59-.26,0-.51.01-.75.04-.22.01-.44.06-.66.1h-.07c-.22.04-.42.1-.64.18-.03,0-.09.01-.15.04-.18.06-.35.13-.51.2-.19.09-.38.19-.56.29.48-.32,2.58-1.72,3.36-2.21,2.22-1.4,5.4-1.26,8.92.67l55.16,30.26c6.54,3.58,11.51,11.35,12.39,18.74.35,2.99.58,25.37.74,53.05.05,8.82.09,18.19.12,27.62,0,.63.01,1.25.01,1.88.03,7.29.04,14.59.06,21.75v3.24c.1,31.08.12,58.11.12,63.35,0,3.35.3,7.49-3,9.96Z"></path>
      <path class="cls-1" d="m180.79,234.04c-.03.9-.16,1.71-.35,2.48-.01.07-.03.15-.06.2-.03.17-.07.35-.13.51-.04.16-.09.32-.15.47-.06.15-.12.29-.17.45-.1.2-.21.41-.32.6-.09.16-.18.31-.26.45-.03.04-.06.09-.09.13-.15.22-.31.41-.48.6-.14.16-.29.31-.44.44-.07.06-.14.13-.22.2-.07.07-.16.15-.25.2-2.26,1.66-5.6,1.66-9.33-.4l-1.14-.63-15.12-8.37-1.98-1.08-3.27-1.81-8.27-4.57-12.4-6.87-2.79-1.55-6.5-3.59-4.63-2.57c-.91-.48-1.78-1.08-2.64-1.75-.19-.14-.38-.29-.56-.44-.41-.36-.82-.72-1.21-1.09-.77-.76-1.52-1.59-2.21-2.45-2.75-3.39-4.78-7.51-5.55-11.5v-.02c-.22-1.11-.35-2.23-.35-3.33V17.93c-.03-3.75,1.27-6.41,3.43-7.7.02,0,.03-.01.04-.01.17-.1.36-.2.56-.29.16-.07.33-.15.51-.2.06-.03.12-.04.15-.04.22-.07.42-.13.64-.18h.07c.22-.04.44-.09.66-.1.23-.03.48-.04.75-.04,1.64,0,3.51.51,5.48,1.59l22.82,12.52,10.84,5.94,7.9,4.34,13.6,7.46c.38.19.74.42,1.11.66.22.13.44.28.66.44.06.03.13.07.17.13.21.13.4.26.58.41.46.34.89.7,1.33,1.07.18.18.35.34.53.5.17.16.35.34.52.5.01.01.03.03.04.06.18.19.37.38.54.56.26.28.52.56.76.85.5.54.95,1.11,1.37,1.68,3.05,4.16,4.83,9.17,4.88,13.75,0,0,0,.72.01,2.04,0,.63,0,1.39.01,2.28,0,.69,0,1.43.01,2.26.03,8.06.12,22.79.22,40.24.04,8.97.09,18.65.15,28.54,0,.63,0,1.24.01,1.87.04,9.07.09,18.3.13,27.24.01.99.01,1.99.01,2.97.17,31.52.32,58.98.34,63.98v.29c.01.34.01.53.01.53Z"></path>
      <g class="cls-52">
        <polygon class="cls-16" points="102.29 187.12 178.33 227.54 178.43 227.15 102.4 186.73 102.29 187.12"></polygon>
      </g>
      <g class="cls-52">
        <polygon class="cls-16" points="103.29 16.66 176.49 56.33 176.59 55.94 103.39 16.27 103.29 16.66"></polygon>
      </g>
      <g class="cls-52">
        <polygon class="cls-16" points="155.48 220.82 166.59 226.72 166.7 226.33 155.59 220.43 155.48 220.82"></polygon>
      </g>
      <g class="cls-52">
        <polygon class="cls-16" points="155.34 222.8 166.44 228.71 166.55 228.31 155.45 222.41 155.34 222.8"></polygon>
      </g>
      <g class="cls-52">
        <polygon class="cls-16" points="155.2 224.78 166.31 230.68 166.41 230.29 155.31 224.39 155.2 224.78"></polygon>
      </g>
      <g class="cls-51">
        <path class="cls-25" d="m175.78,49.18c1.29,2.86,2.02,6.08,2.05,8.86,0,0,.85,173.14.85,173.34-.22,7.16-4.87,9.43-11.54,5.77l-56.75-31.53c-3.22-1.77-6.16-4.75-8.38-8.19,2.25,4.98,6.09,9.56,10.43,11.95l56.09,31.04c6.67,3.66,12.06.8,12.27-6.36,0-.2-.93-172.25-.93-172.25,0-4.46-1.59-8.72-4.1-12.61Z"></path>
        <path class="cls-57" d="m175.59,48.97c1.29,2.86,2.02,6.06,2.05,8.84,0,0,.86,173.06.85,173.26-.24,7.15-4.87,9.42-11.53,5.76l-56.67-31.49c-3.22-1.77-6.15-4.74-8.37-8.18,2.24,4.97,6.08,9.55,10.42,11.93l56.02,31c6.66,3.65,12.02.8,12.26-6.35,0-.2-.93-172.18-.93-172.18,0-4.43-1.59-8.7-4.09-12.58Z"></path>
        <path class="cls-55" d="m175.41,48.75c1.29,2.86,2.02,6.04,2.04,8.81,0,0,.86,172.99.85,173.18-.24,7.14-4.86,9.4-11.51,5.75l-56.6-31.45c-3.21-1.76-6.14-4.74-8.36-8.17,2.24,4.96,6.07,9.53,10.41,11.91l55.95,30.96c6.65,3.65,12,.8,12.24-6.34,0-.2-.93-172.1-.93-172.1,0-4.41-1.59-8.68-4.09-12.55Z"></path>
        <path class="cls-56" d="m175.23,48.53c1.29,2.85,2.02,6.03,2.04,8.79,0,0,.86,172.91.85,173.11-.24,7.14-4.85,9.39-11.5,5.74l-56.53-31.41c-3.21-1.76-6.14-4.73-8.35-8.16,2.24,4.96,6.06,9.52,10.39,11.9l55.88,30.92c6.64,3.64,11.99.8,12.23-6.34,0-.2-.93-172.03-.93-172.03,0-4.39-1.59-8.66-4.09-12.53Z"></path>
        <path class="cls-60" d="m175.04,48.31c1.29,2.85,2.02,6.01,2.04,8.77,0,0,.86,172.83.85,173.03-.24,7.13-4.85,9.38-11.48,5.74l-56.46-31.37c-3.2-1.76-6.13-4.72-8.34-8.15,2.23,4.95,6.06,9.51,10.38,11.88l55.81,30.88c6.63,3.64,11.97.8,12.21-6.33,0-.2-.93-171.95-.93-171.95,0-4.36-1.59-8.64-4.08-12.5Z"></path>
        <path class="cls-58" d="m174.86,48.1c1.28,2.85,2.02,5.99,2.04,8.75,0,0,.86,172.76.86,172.95-.24,7.12-4.84,9.37-11.47,5.73l-56.39-31.33c-3.2-1.76-6.12-4.72-8.33-8.14,2.23,4.94,6.05,9.5,10.37,11.87l55.74,30.85c6.62,3.64,11.96.8,12.19-6.32,0-.2-.93-171.88-.93-171.88,0-4.34-1.59-8.62-4.08-12.48Z"></path>
        <path class="cls-59" d="m174.67,47.88c1.28,2.84,2.02,5.97,2.04,8.73,0,0,.86,172.68.86,172.88-.24,7.11-4.84,9.35-11.45,5.72l-56.32-31.29c-3.2-1.76-6.11-4.71-8.32-8.13,2.23,4.94,6.04,9.49,10.35,11.85l55.67,30.81c6.62,3.63,11.94.8,12.18-6.31,0-.2-.93-171.8-.93-171.8,0-4.31-1.59-8.6-4.08-12.45Z"></path>
        <path class="cls-53" d="m174.49,47.66c1.28,2.84,2.02,5.96,2.04,8.71,0,0,.87,172.6.86,172.8-.24,7.1-4.83,9.34-11.44,5.71l-56.24-31.25c-3.19-1.75-6.1-4.7-8.31-8.12,2.23,4.93,6.03,9.47,10.34,11.84l55.59,30.77c6.61,3.63,11.93.79,12.16-6.3,0-.2-.94-171.73-.94-171.73-.01-4.29-1.59-8.58-4.07-12.43Z"></path>
        <path class="cls-54" d="m174.31,47.44c1.28,2.83,2.01,5.94,2.04,8.69,0,0,.87,172.53.86,172.72-.24,7.09-4.82,9.33-11.42,5.71l-56.17-31.21c-3.19-1.75-6.1-4.7-8.3-8.11,2.22,4.92,6.02,9.46,10.33,11.82l55.52,30.73c6.6,3.62,11.91.79,12.15-6.3,0-.2-.94-171.65-.94-171.65-.01-4.27-1.59-8.56-4.07-12.4Z"></path>
        <path class="cls-74" d="m174.12,47.23c1.28,2.83,2.01,5.92,2.04,8.67,0,0,.87,172.45.86,172.65-.24,7.08-4.82,9.32-11.41,5.7l-56.1-31.17c-3.18-1.75-6.09-4.69-8.29-8.1,2.22,4.92,6.02,9.45,10.31,11.81l55.45,30.69c6.59,3.62,11.9.79,12.13-6.29,0-.2-.94-171.58-.94-171.58-.01-4.24-1.59-8.54-4.06-12.38Z"></path>
        <path class="cls-75" d="m173.94,47.01c1.28,2.83,2.01,5.91,2.04,8.65,0,0,.87,172.37.87,172.57-.24,7.07-4.81,9.31-11.39,5.69l-56.03-31.13c-3.18-1.75-6.08-4.69-8.27-8.09,2.22,4.91,6.01,9.44,10.3,11.79l55.38,30.65c6.58,3.61,11.88.79,12.12-6.28,0-.2-.94-171.5-.94-171.5-.02-4.22-1.59-8.52-4.06-12.35Z"></path>
        <path class="cls-73" d="m173.76,46.79c1.27,2.82,2.01,5.89,2.03,8.63,0,0,.87,172.3.87,172.49-.24,7.06-4.8,9.29-11.38,5.69l-55.96-31.1c-3.18-1.74-6.07-4.68-8.26-8.08,2.21,4.91,6,9.42,10.29,11.78l55.31,30.61c6.57,3.61,11.86.79,12.1-6.27,0-.2-.94-171.42-.94-171.42-.02-4.2-1.59-8.5-4.06-12.33Z"></path>
        <path class="cls-72" d="m173.57,46.57c1.27,2.82,2.01,5.87,2.03,8.61,0,0,.88,172.22.87,172.42-.24,7.05-4.8,9.28-11.36,5.68l-55.89-31.06c-3.17-1.74-6.06-4.67-8.25-8.07,2.21,4.9,5.99,9.41,10.27,11.76l55.24,30.57c6.56,3.6,11.85.79,12.08-6.26,0-.2-.94-171.35-.94-171.35-.02-4.17-1.59-8.48-4.05-12.3Z"></path>
        <path class="cls-62" d="m173.39,46.35c1.27,2.82,2.01,5.85,2.03,8.59,0,0,.88,172.14.87,172.34-.24,7.04-4.79,9.27-11.35,5.67l-55.81-31.02c-3.17-1.74-6.06-4.67-8.24-8.06,2.21,4.89,5.99,9.4,10.26,11.75l55.17,30.54c6.56,3.6,11.83.79,12.07-6.26,0-.2-.95-171.27-.95-171.27-.02-4.15-1.59-8.46-4.05-12.27Z"></path>
        <path class="cls-68" d="m173.2,46.14c1.27,2.81,2.01,5.84,2.03,8.56,0,0,.88,172.07.87,172.26-.24,7.03-4.79,9.26-11.33,5.66l-55.74-30.98c-3.16-1.74-6.05-4.66-8.23-8.05,2.21,4.89,5.98,9.39,10.25,11.73l55.1,30.5c6.55,3.59,11.82.79,12.05-6.25,0-.2-.95-171.2-.95-171.2-.02-4.12-1.59-8.44-4.05-12.25Z"></path>
        <path class="cls-70" d="m173.02,45.92c1.27,2.81,2.01,5.82,2.03,8.54,0,0,.88,171.99.88,172.19-.24,7.02-4.78,9.25-11.32,5.66l-55.67-30.94c-3.16-1.73-6.04-4.66-8.22-8.04,2.2,4.88,5.97,9.38,10.23,11.72l55.03,30.46c6.54,3.59,11.8.79,12.04-6.24,0-.2-.95-171.12-.95-171.12-.02-4.1-1.59-8.41-4.04-12.22Z"></path>
        <path class="cls-71" d="m172.84,45.7c1.26,2.8,2.01,5.8,2.03,8.52,0,0,.88,171.91.88,172.11-.23,7.02-4.77,9.23-11.3,5.65l-55.6-30.9c-3.15-1.73-6.03-4.65-8.21-8.03,2.2,4.87,5.96,9.36,10.22,11.7l54.96,30.42c6.53,3.58,11.79.78,12.02-6.23,0-.2-.95-171.05-.95-171.05-.02-4.08-1.59-8.39-4.04-12.2Z"></path>
        <path class="cls-63" d="m172.65,45.48c1.26,2.8,2.01,5.79,2.03,8.5,0,0,.89,171.84.88,172.03-.23,7.01-4.77,9.22-11.29,5.64l-55.53-30.86c-3.15-1.73-6.02-4.64-8.2-8.01,2.2,4.87,5.95,9.35,10.21,11.69l54.89,30.38c6.52,3.58,11.77.78,12-6.22,0-.19-.95-170.97-.95-170.97-.03-4.05-1.59-8.37-4.04-12.17Z"></path>
        <path class="cls-69" d="m172.47,45.27c1.26,2.8,2.01,5.77,2.03,8.48,0,0,.89,171.76.88,171.96-.23,7-4.76,9.21-11.28,5.63l-55.46-30.82c-3.15-1.73-6.02-4.64-8.19-8,2.19,4.86,5.95,9.34,10.19,11.67l54.81,30.34c6.51,3.57,11.76.78,11.99-6.21,0-.19-.95-170.9-.95-170.9-.03-4.03-1.59-8.35-4.03-12.15Z"></path>
        <path class="cls-65" d="m172.29,45.05c1.26,2.79,2,5.75,2.03,8.46,0,0,.89,171.69.88,171.88-.23,6.99-4.76,9.2-11.26,5.63l-55.38-30.78c-3.14-1.72-6.01-4.63-8.18-7.99,2.19,4.85,5.94,9.33,10.18,11.65l54.74,30.3c6.51,3.57,11.74.78,11.97-6.21,0-.19-.95-170.82-.95-170.82-.03-4-1.59-8.33-4.03-12.12Z"></path>
        <path class="cls-66" d="m172.1,44.83c1.26,2.79,2,5.73,2.03,8.44,0,0,.89,171.61.88,171.8-.23,6.98-4.75,9.18-11.25,5.62l-55.31-30.74c-3.14-1.72-6-4.62-8.17-7.98,2.19,4.85,5.93,9.31,10.17,11.64l54.67,30.26c6.5,3.56,11.73.78,11.96-6.2,0-.19-.96-170.75-.96-170.75-.03-3.98-1.59-8.31-4.03-12.1Z"></path>
        <path class="cls-64" d="m171.92,44.61c1.26,2.79,2,5.72,2.02,8.42,0,0,.89,171.53.89,171.73-.23,6.97-4.74,9.17-11.23,5.61l-55.24-30.7c-3.13-1.72-5.99-4.62-8.15-7.97,2.19,4.84,5.92,9.3,10.15,11.62l54.6,30.22c6.49,3.56,11.71.78,11.94-6.19,0-.19-.96-170.67-.96-170.67-.03-3.96-1.59-8.29-4.02-12.07Z"></path>
        <path class="cls-67" d="m171.74,44.4c1.25,2.78,2,5.7,2.02,8.4,0,0,.89,171.46.89,171.65-.23,6.96-4.74,9.16-11.22,5.6l-55.17-30.66c-3.13-1.72-5.98-4.61-8.14-7.96,2.18,4.83,5.91,9.29,10.14,11.61l54.53,30.19c6.48,3.56,11.7.78,11.93-6.18,0-.19-.96-170.6-.96-170.6-.03-3.93-1.59-8.27-4.02-12.04Z"></path>
        <path class="cls-2" d="m171.55,44.18c1.25,2.78,2,5.68,2.02,8.38,0,0,.9,171.38.89,171.57-.21,6.95-4.73,9.15-11.2,5.6l-55.1-30.62c-3.13-1.72-5.98-4.61-8.13-7.95,2.18,4.83,5.91,9.28,10.13,11.59l54.46,30.15c6.47,3.55,11.7.78,11.91-6.17,0-.19-.96-170.52-.96-170.52-.04-3.91-1.59-8.25-4.02-12.02Z"></path>
      </g>
      <g class="cls-52">
        <path class="cls-16" d="m114.58,198.76l-4.81.61c-.07,0-.12.06-.13.12-.01.07,0,.15.06.22l3.99,5,.29-.24-3.74-4.7,4.49-.57-.14-.44Z"></path>
      </g>
      <g class="cls-51">
        <path class="cls-15" d="m120.07,238.71l-31-17.75c-.86-.49-1.83-.75-2.81-.75s-1.99.27-2.87.78l-30.93,16.87c-1.83,1.08-2.95,3.1-2.93,5.27.02,2.18,1.18,4.18,3.03,5.22l31.01,17.48c.85.48,1.81.73,2.78.73s1.96-.27,2.82-.76l30.92-16.6c1.84-1.06,2.98-3.08,2.98-5.26,0-2.18-1.15-4.19-3-5.25Z"></path>
        <path class="cls-11" d="m83.48,221.16l-30.84,16.82c-.71.42-1.39,1.03-1.85,1.69-.73,1-1.1,2.26-1.05,3.53.02,2.08,1.33,4.11,3.1,5.11l30.81,17.37c.55.31,1.16.52,1.77.62.31.06.66.07.98.07.94,0,1.97-.31,2.8-.78l30.72-16.5c.61-.35,1.21-.85,1.64-1.39.86-1.05,1.33-2.41,1.28-3.81,0-2.09-1.29-4.11-3.05-5.12l-30.71-17.58c-.82-.47-1.84-.77-2.77-.77-.29,0-.6,0-.88.05-.68.09-1.35.33-1.96.68Z"></path>
        <path class="cls-20" d="m83.57,221.33l-30.75,16.77c-.67.4-1.42,1.03-1.86,1.66-.74.99-1.1,2.26-1,3.5.02,1.99,1.48,4.04,3.17,5l30.61,17.25c.55.31,1.15.51,1.76.59.3.05.67.05.97.05.9,0,1.98-.35,2.77-.8l30.52-16.39c.58-.34,1.23-.85,1.64-1.37.88-1.03,1.32-2.41,1.22-3.77,0-1.99-1.42-4.04-3.1-5l-30.41-17.41c-.78-.45-1.84-.78-2.74-.78-.27,0-.6,0-.87.04-.67.08-1.34.3-1.94.65Z"></path>
        <path class="cls-6" d="m83.66,221.49l-30.66,16.72c-.64.38-1.45,1.04-1.87,1.64-.76.97-1.1,2.26-.95,3.48.02,1.89,1.63,3.98,3.24,4.88l30.41,17.14c.55.31,1.15.5,1.75.56.28.05.67.03.96.03.86,0,1.99-.39,2.74-.82l30.33-16.28c.55-.32,1.25-.85,1.64-1.34.89-1.01,1.31-2.4,1.16-3.73,0-1.9-1.55-3.96-3.16-4.88l-30.12-17.24c-.75-.43-1.85-.8-2.7-.8-.26,0-.6-.02-.86.02-.67.06-1.33.27-1.92.62Z"></path>
        <path class="cls-10" d="m83.75,221.66l-30.57,16.67c-.61.36-1.49,1.04-1.88,1.61-.78.95-1.1,2.27-.9,3.45.01,1.8,1.78,3.91,3.31,4.77l30.2,17.02c.54.31,1.14.48,1.74.53.27.05.67,0,.95,0,.81,0,2-.43,2.72-.83l30.13-16.18c.53-.3,1.27-.85,1.64-1.32.9-.99,1.3-2.39,1.11-3.68,0-1.8-1.69-3.88-3.21-4.75l-29.82-17.07c-.71-.41-1.85-.81-2.66-.81-.25,0-.6-.04-.84,0-.66.04-1.31.24-1.9.59Z"></path>
        <path class="cls-7" d="m83.84,221.82l-30.48,16.62c-.58.34-1.52,1.05-1.89,1.59-.79.94-1.1,2.27-.85,3.42.01,1.7,1.93,3.84,3.38,4.66l30,16.91c.54.3,1.14.47,1.73.5.26.05.67-.01.93-.01.77,0,2.01-.47,2.69-.85l29.93-16.07c.5-.29,1.29-.85,1.64-1.3.91-.97,1.29-2.39,1.05-3.64,0-1.71-1.82-3.81-3.26-4.63l-29.52-16.9c-.67-.38-1.86-.83-2.63-.83-.23,0-.6-.06-.83-.02-.65.03-1.3.22-1.89.56Z"></path>
        <path class="cls-21" d="m83.93,221.98l-30.39,16.57c-.55.32-1.55,1.05-1.9,1.56-.81.92-1.1,2.27-.8,3.39.01,1.61,2.09,3.77,3.45,4.55l29.8,16.8c.54.3,1.14.46,1.72.47.24.04.68-.04.92-.04.73,0,2.02-.51,2.66-.87l29.73-15.97c.47-.27,1.31-.86,1.64-1.27.92-.95,1.28-2.38.99-3.6,0-1.61-1.96-3.73-3.32-4.51l-29.23-16.73c-.64-.36-1.86-.85-2.59-.85-.22,0-.6-.07-.82-.04-.64,0-1.29.19-1.87.53Z"></path>
        <path class="cls-19" d="m84.02,222.15l-30.3,16.52c-.51.3-1.58,1.06-1.91,1.54-.83.91-1.1,2.27-.75,3.36.01,1.52,2.24,3.71,3.52,4.43l29.6,16.68c.53.3,1.13.45,1.71.45.23.04.68-.06.91-.06.69,0,2.03-.54,2.63-.89l29.53-15.86c.44-.26,1.32-.86,1.64-1.25.93-.93,1.27-2.38.93-3.56,0-1.52-2.09-3.65-3.37-4.39l-28.93-16.56c-.6-.34-1.87-.86-2.55-.86-.21,0-.6-.09-.81-.06-.63,0-1.28.16-1.85.5Z"></path>
        <path class="cls-9" d="m84.11,222.31l-30.21,16.48c-.48.28-1.61,1.06-1.92,1.51-.84.89-1.1,2.27-.7,3.33.01,1.42,2.39,3.64,3.6,4.32l29.39,16.57c.53.3,1.13.44,1.7.42.21.04.68-.08.9-.08.64,0,2.04-.58,2.61-.91l29.34-15.75c.42-.24,1.34-.86,1.64-1.23.94-.92,1.26-2.37.87-3.52,0-1.42-2.22-3.58-3.43-4.26l-28.64-16.39c-.56-.32-1.88-.88-2.52-.88-.2,0-.6-.11-.79-.07-.62-.02-1.27.13-1.83.47Z"></path>
        <path class="cls-13" d="m84.2,222.48l-30.12,16.43c-.45.26-1.64,1.07-1.93,1.49-.86.87-1.1,2.27-.66,3.3.01,1.33,2.54,3.57,3.67,4.21l29.19,16.45c.53.3,1.12.43,1.69.39.2.04.69-.1.89-.1.6,0,2.05-.62,2.58-.93l29.14-15.65c.39-.22,1.36-.86,1.64-1.2.95-.9,1.25-2.36.81-3.48,0-1.33-2.36-3.5-3.48-4.14l-28.34-16.22c-.52-.3-1.88-.9-2.48-.9-.18,0-.6-.12-.78-.09-.61-.04-1.25.11-1.82.44Z"></path>
        <path class="cls-22" d="m84.29,222.64l-30.03,16.38c-.42.25-1.67,1.07-1.94,1.46-.88.86-1.09,2.27-.61,3.27.01,1.23,2.69,3.5,3.74,4.09l28.99,16.34c.52.29,1.12.42,1.68.36.19.03.69-.12.88-.12.56,0,2.06-.66,2.55-.94l28.94-15.54c.36-.21,1.38-.86,1.64-1.18.96-.88,1.24-2.36.76-3.44,0-1.23-2.49-3.42-3.53-4.02l-28.04-16.05c-.49-.28-1.89-.91-2.44-.91-.17,0-.6-.14-.77-.11-.6-.06-1.24.08-1.8.41Z"></path>
        <path class="cls-47" d="m84.38,222.81l-29.94,16.33c-.38.23-1.7,1.07-1.95,1.43-.89.84-1.09,2.27-.56,3.25,0,1.14,2.84,3.44,3.81,3.98l28.78,16.22c.52.29,1.12.41,1.67.33.17.03.69-.14.86-.14.51,0,2.07-.7,2.52-.96l28.74-15.44c.33-.19,1.4-.86,1.64-1.16.97-.86,1.23-2.35.7-3.4,0-1.14-2.63-3.35-3.59-3.9l-27.75-15.88c-.45-.26-1.89-.93-2.4-.93-.16,0-.6-.15-.76-.13-.6-.08-1.23.05-1.78.38Z"></path>
        <path class="cls-48" d="m84.48,222.97l-29.85,16.28c-.35.21-1.73,1.08-1.96,1.41-.91.82-1.09,2.27-.51,3.22,0,1.04,3,3.37,3.88,3.87l28.58,16.11c.52.29,1.11.39,1.66.3.16.03.69-.16.85-.16.47,0,2.08-.74,2.5-.98l28.55-15.33c.3-.18,1.42-.86,1.64-1.13.98-.84,1.21-2.34.64-3.36,0-1.04-2.76-3.27-3.64-3.77l-27.45-15.71c-.41-.23-1.9-.94-2.37-.94-.14,0-.6-.17-.74-.15-.59-.09-1.22.02-1.76.35Z"></path>
        <path class="cls-38" d="m84.57,223.13l-29.76,16.23c-.32.19-1.76,1.08-1.97,1.38-.93.81-1.09,2.27-.46,3.19,0,.95,3.15,3.3,3.95,3.76l28.38,16c.51.29,1.11.38,1.65.28.14.03.7-.18.84-.18.43,0,2.09-.78,2.47-1l28.35-15.22c.28-.16,1.44-.86,1.63-1.11.99-.82,1.2-2.34.58-3.31,0-.95-2.89-3.19-3.7-3.65l-27.16-15.54c-.37-.21-1.9-.96-2.33-.96-.13,0-.6-.19-.73-.17-.58-.11-1.21,0-1.75.32Z"></path>
        <path class="cls-41" d="m84.66,223.3l-29.67,16.18c-.29.17-1.8,1.09-1.98,1.36-.94.79-1.09,2.27-.41,3.16,0,.85,3.3,3.23,4.02,3.64l28.18,15.88c.51.29,1.1.37,1.64.25.13.02.7-.2.83-.2.39,0,2.11-.82,2.44-1.02l28.15-15.12c.25-.14,1.46-.87,1.63-1.09,1-.8,1.19-2.33.52-3.27,0-.85-3.03-3.12-3.75-3.53l-26.86-15.38c-.34-.19-1.91-.98-2.29-.98-.12,0-.6-.2-.72-.18-.57-.13-1.19-.03-1.73.29Z"></path>
        <path class="cls-42" d="m84.75,223.46l-29.58,16.13c-.26.15-1.83,1.09-1.99,1.33-.96.77-1.09,2.27-.36,3.13,0,.76,3.45,3.17,4.09,3.53l27.97,15.77c.51.29,1.1.36,1.63.22.11.02.7-.22.82-.22.34,0,2.12-.86,2.42-1.03l27.95-15.01c.22-.13,1.48-.87,1.63-1.06,1.01-.78,1.18-2.32.46-3.23,0-.76-3.16-3.04-3.8-3.41l-26.57-15.21c-.3-.17-1.92-.99-2.26-.99-.1,0-.6-.22-.71-.2-.56-.14-1.18-.06-1.71.26Z"></path>
        <path class="cls-39" d="m84.84,223.63l-29.49,16.08c-.22.13-1.86,1.1-2,1.31-.98.76-1.09,2.27-.32,3.1,0,.66,3.6,3.1,4.16,3.42l27.77,15.65c.5.28,1.09.35,1.62.19.1.02.7-.24.81-.24.3,0,2.13-.9,2.39-1.05l27.75-14.9c.19-.11,1.5-.87,1.63-1.04,1.03-.77,1.17-2.32.41-3.19,0-.66-3.3-2.96-3.86-3.28l-26.27-15.04c-.26-.15-1.92-1.01-2.22-1.01-.09,0-.6-.23-.69-.22-.55-.16-1.17-.08-1.69.22Z"></path>
        <path class="cls-33" d="m84.93,223.79l-29.4,16.03c-.19.11-1.89,1.1-2.01,1.28-.99.74-1.09,2.27-.27,3.07,0,.57,3.75,3.03,4.24,3.3l27.57,15.54c.5.28,1.09.34,1.61.16.09.02.71-.26.79-.26.26,0,2.14-.94,2.36-1.07l27.56-14.8c.17-.1,1.52-.87,1.63-1.02,1.04-.75,1.16-2.31.35-3.15,0-.57-3.43-2.88-3.91-3.16l-25.97-14.87c-.22-.13-1.93-1.03-2.18-1.03-.08,0-.6-.25-.68-.24-.54-.18-1.16-.11-1.68.19Z"></path>
        <path class="cls-26" d="m85.02,223.96l-29.31,15.98c-.16.09-1.92,1.11-2.02,1.26-1.01.72-1.08,2.27-.22,3.04,0,.47,3.9,2.96,4.31,3.19l27.37,15.42c.5.28,1.09.33,1.6.13.07.01.71-.28.78-.28.21,0,2.15-.98,2.33-1.09l27.36-14.69c.14-.08,1.53-.87,1.63-.99,1.05-.73,1.15-2.3.29-3.11,0-.47-3.56-2.81-3.97-3.04l-25.68-14.7c-.19-.11-1.93-1.04-2.15-1.04-.07,0-.61-.27-.67-.26-.53-.19-1.14-.14-1.66.16Z"></path>
        <path class="cls-27" d="m85.11,224.12l-29.22,15.93c-.13.08-1.95,1.11-2.03,1.23-1.03.71-1.08,2.27-.17,3.01,0,.38,4.06,2.9,4.38,3.08l27.16,15.31c.49.28,1.08.31,1.59.11.06.01.71-.31.77-.31.17,0,2.16-1.02,2.31-1.11l27.16-14.59c.11-.06,1.55-.87,1.63-.97,1.06-.71,1.14-2.3.23-3.07,0-.38-3.7-2.73-4.02-2.91l-25.38-14.53c-.15-.09-1.94-1.06-2.11-1.06-.05,0-.61-.28-.66-.27-.52-.21-1.13-.17-1.64.13Z"></path>
        <path class="cls-28" d="m85.2,224.28l-29.13,15.89c-.1.06-1.98,1.12-2.04,1.21-1.04.69-1.08,2.27-.12,2.99,0,.28,4.21,2.83,4.45,2.97l26.96,15.2c.49.28,1.08.3,1.58.08.04,0,.72-.33.76-.33.13,0,2.17-1.06,2.28-1.13l26.96-14.48c.08-.05,1.57-.87,1.63-.95,1.07-.69,1.13-2.29.17-3.03,0-.28-3.83-2.65-4.07-2.79l-25.09-14.36c-.11-.06-1.95-1.07-2.07-1.07-.04,0-.61-.3-.64-.29-.52-.23-1.12-.19-1.62.1Z"></path>
        <path class="cls-43" d="m85.29,224.45l-29.04,15.84c-.06.04-2.01,1.12-2.05,1.18-1.06.68-1.08,2.28-.07,2.96,0,.19,4.36,2.76,4.52,2.85l26.76,15.08c.49.27,1.07.29,1.57.05.03,0,.72-.35.75-.35.09,0,2.18-1.1,2.25-1.14l26.77-14.37c.06-.03,1.59-.87,1.63-.92,1.08-.67,1.12-2.28.11-2.99,0-.19-3.97-2.58-4.13-2.67l-24.79-14.19c-.07-.04-1.95-1.09-2.04-1.09-.03,0-.61-.32-.63-.31-.51-.25-1.11-.22-1.61.07Z"></path>
        <path class="cls-35" d="m85.38,224.61l-28.95,15.79s-2.04,1.13-2.06,1.16c-1.08.66-1.08,2.28-.02,2.93,0,.09,4.51,2.7,4.59,2.74l26.55,14.97c.49.27,1.07.28,1.56.02.01,0,.72-.37.74-.37.04,0,2.19-1.14,2.22-1.16l26.57-14.27s1.61-.87,1.63-.9c1.09-.65,1.11-2.28.06-2.94,0-.09-4.1-2.5-4.18-2.55l-24.49-14.02s-1.96-1.11-2-1.11c-.01,0-.61-.33-.62-.33-.5-.26-1.1-.25-1.59.04Z"></path>
        <path class="cls-24" d="m87.04,224.77c-.49-.28-1.08-.28-1.57.01l-30.93,16.87c-1.09.64-1.08,2.28.02,2.9l31.01,17.48c.48.27,1.07.27,1.55,0l30.92-16.6c1.1-.63,1.1-2.27,0-2.9l-31-17.75Z"></path>
      </g>
      <path class="cls-81" d="m54.88,241.09l29.39-15.98c1.8-.98,3.98-.97,5.77.03l28.62,15.96c1.51.84,1.51,3.01,0,3.86l-28.62,15.96c-1.79,1-3.97,1.01-5.77.03l-29.39-15.98c-1.54-.84-1.54-3.04,0-3.88Z"></path>
      <rect class="cls-82" x="53.73" y="238.88" width="66.06" height="4.24" transform="translate(173.51 482) rotate(180)"></rect>
      <path class="cls-15" d="m54.88,236.75l29.39-15.98c1.8-.98,3.98-.97,5.77.03l28.62,15.96c1.51.84,1.51,3.01,0,3.85l-28.62,15.96c-1.79,1-3.97,1.01-5.77.03l-29.39-15.98c-1.54-.84-1.54-3.04,0-3.88Z"></path>
      <path class="cls-84" d="m118.66,240.09l-10.56,5.89-18.06,10.07c-1.79,1-3.97,1.01-5.77.03l-18.93-10.3-8.25-4.49-2.2-1.19c-1.54-.84-1.54-3.05,0-3.88l29.39-15.98c1.8-.98,3.98-.97,5.77.03l18.61,10.38,10.01,5.58c1.51.84,1.51,3.01,0,3.86Z"></path>
      <polygon class="cls-76" points="163.44 160.7 85.34 120.9 85.34 71.49 163.44 111.28 163.44 160.7"></polygon>
      <polygon class="cls-34" points="163.45 111.28 149.26 115.32 146.98 115.97 145.07 116.52 143.92 116.84 143.46 116.98 141.55 117.52 140.31 117.87 124.84 122.27 124.4 122.39 106.6 99.2 104.87 96.94 104.69 96.7 103.09 94.62 101.18 92.12 96.76 86.36 85.35 71.49 108.88 83.48 124.4 91.39 149.26 104.05 163.45 111.28"></polygon>
      <polygon class="cls-78" points="124.39 60.9 163.44 111.28 124.39 91.39 85.34 71.49 124.39 60.9"></polygon>
      <polygon class="cls-77" points="124.39 113.03 143.92 136.86 163.44 160.7 124.39 140.8 85.34 120.9 104.87 116.97 124.39 113.03"></polygon>
      <polygon class="cls-61" points="143.66 85.75 108.88 67.85 108.88 83.48 108.88 101.47 124.84 122.27 140.31 117.87 141.55 117.52 143.46 116.98 143.92 116.84 145.07 116.52 146.98 115.97 149.26 115.32 149.26 104.05 149.26 92.98 143.66 85.75"></polygon>
      <polygon class="cls-80" points="146.98 86.37 146.98 115.97 145.1 116.5 145.07 116.52 143.92 116.84 143.46 116.98 141.55 117.52 140.31 117.87 124.4 122.39 106.6 99.2 106.6 65.58 145.1 85.4 146.98 86.37"></polygon>
      <polygon class="cls-61" points="145.1 85.4 145.1 116.5 145.07 116.52 143.92 116.84 143.46 116.98 141.55 117.52 140.31 117.87 124.4 122.39 106.6 99.2 106.6 65.58 145.1 85.4"></polygon>
      <polygon class="cls-4" points="143.46 77.93 143.46 116.98 141.55 117.52 140.31 117.87 124.4 122.39 104.87 96.94 104.69 96.7 103.09 94.62 103.09 57.14 143.46 77.93"></polygon>
      <polygon class="cls-3" points="125.52 120.55 106 95.09 105.81 94.86 103.09 91.3 103.09 94.62 104.69 96.7 104.87 96.94 124.4 122.39 140.31 117.87 141.55 117.52 143.46 116.98 143.46 115.55 125.52 120.55"></polygon>
      <path class="cls-8" d="m121.56,181.57c0,9.49-1.19,35.78-13.83,45.91l-6.26,5.45-.56-2.02c-3.08.79-6.61.85-10.67-.08-.19-.04-.37-.08-.56-.12-10.17-9.13-17.87-20.63-23.67-32.45-8.34-17.01-12.77-34.65-15.04-46.76l-.23-.21-9.84-8.28v-.02l7.88-6.84c19.01,7.34,29.37,2.37,33.26-.44l.02-.02c.98-.73,1.56-1.29,1.75-1.5l.06-.06c.41.79,9.9,19.61,29.55,37.27,2.52,2.27,5.22,4.52,8.07,6.7,0,0,.06,1.29.06,3.47Z"></path>
      <path class="cls-50" d="m121.49,178.1l-7.88,6.86-5.12.9-17.1,2.99-1.62-2.31-8.84-12.6-3.62-24.06-1.33-8.9,6.05-5.26.02-.02,1.75-1.5.06-.06c.41.79,9.9,19.61,29.55,37.27,2.52,2.27,5.22,4.52,8.07,6.7Z"></path>
      <path class="cls-49" d="m101.46,232.92c-4.62,4.54-10.96,6.78-19.65,4.66-10.88-9.77-18.91-22.23-24.83-34.88-13.5-28.85-15.99-58.68-16.08-59.69v-.02c25.08,9.69,35.09-2.02,35.09-2.02,0,0,9.59,19.51,29.93,37.6,2.41,2.18,4.97,4.31,7.7,6.39,0,0,1.66,34.36-12.15,47.96Z"></path>
      <path class="cls-30" d="m76.4,148.13s-8.54,9.98-29.93,1.72c0,0,4.1,52.98,34.88,80.63,29.66,7.22,27.13-44.86,27.13-44.86-21.86-16.69-32.08-37.5-32.08-37.5Z"></path>
      <path class="cls-45" d="m84.49,190.08c1.26-.52,2.05-1.8,2.05-3.72,0-3.81-3.09-8.68-6.9-10.88-3.81-2.2-6.9-.9-6.9,2.92,0,2.23,1.06,4.82,2.7,7.02.17.23.24.5.2.78l-2.68,16.14c-.07.43.13.87.51,1.09l11.09,6.59c.77.46,1.72-.18,1.6-1.06l-2.45-17.72c-.07-.53.29-.96.79-1.16Z"></path>
      <path class="cls-23" d="m78.16,204.37c-.38-.22-.58-.66-.51-1.09l2.69-16.14c.05-.28-.03-.55-.2-.78-1.64-2.21-2.7-4.79-2.7-7.02,0-2.04.9-3.33,2.31-3.78-.04-.02-.07-.05-.11-.07-3.81-2.2-6.9-.9-6.9,2.91,0,2.23,1.06,4.82,2.7,7.02.17.23.24.5.2.78l-2.68,16.14c-.07.43.13.87.51,1.09l11.09,6.59c.72.43,1.57-.12,1.57-.92l-7.97-4.73Z"></path>
    </g>
  </g>
</svg>
