<?xml version="1.0" encoding="UTF-8"?>
<svg xmlns="http://www.w3.org/2000/svg" xmlns:xlink="http://www.w3.org/1999/xlink" viewBox="0 0 155.91 155.91">
  <defs>
    <style>.cls-1{mix-blend-mode:screen;opacity:.25;}.cls-1,.cls-2{fill:#fff;}.cls-3{fill:url(#linear-gradient);}.cls-4{fill:#043746;}.cls-5{fill:#e9edf6;}.cls-6{fill:#9e2a40;}.cls-7,.cls-8{fill:#e0395c;}.cls-9{fill:#211a45;}.cls-10{fill:url(#linear-gradient-2);}.cls-10,.cls-8{mix-blend-mode:multiply;}.cls-11{isolation:isolate;}</style>
    <linearGradient id="linear-gradient" x1="6.57" y1="101.69" x2="60.83" y2="101.69" gradientTransform="translate(134.25) rotate(-180) scale(1 -1) skewX(7)" gradientUnits="userSpaceOnUse">
      <stop offset="0" stop-color="#003b4d"></stop>
      <stop offset=".55" stop-color="#476080"></stop>
      <stop offset="1" stop-color="#41607f"></stop>
    </linearGradient>
    <linearGradient id="linear-gradient-2" x1="24.94" y1="81.16" x2="76.95" y2="81.16" gradientTransform="translate(139.01) rotate(-180) scale(1 -1)" gradientUnits="userSpaceOnUse">
      <stop offset="0" stop-color="#3164ad"></stop>
      <stop offset="1" stop-color="#459ad5"></stop>
    </linearGradient>
  </defs>
  <g class="cls-11">
    <g id="Layer_1">
      <path class="cls-8" d="m80.66,34.63l-61.34,35.94c-5.7,3.34-5.67,11.58.05,14.89l35.24,20.35c5.95,3.43,13.27,3.44,19.22.02l62.23-35.26c5.74-3.3,5.77-11.58.04-14.91l-36.02-21.06c-6-3.49-13.42-3.48-19.42.03Z"></path>
      <path class="cls-6" d="m136.06,67.02l-62.23,35.26c-5.95,3.42-13.28,3.41-19.22-.02l-35.23-20.35c-2.28-1.32-3.64-3.42-4.11-5.68-.71,3.43.65,7.24,4.11,9.24l35.23,20.35c5.95,3.43,13.27,3.44,19.22.02l62.23-35.26c3.47-1.99,4.84-5.8,4.12-9.24-.47,2.27-1.83,4.38-4.12,5.69Z"></path>
      <path class="cls-5" d="m96.51,61.56l-2.73-2.93c-.05-.06-.15-.09-.27-.08l-5.86.28c-.29.01-.41-.19-.21-.34l4.14-3.14c.08-.06.12-.14.09-.21l-1.13-3.47c-.06-.17.24-.35.5-.3l5.29.99c.1.02.23,0,.33-.04l5.17-2.42c.25-.12.56-.03.52.16l-.87,3.75c-.02.07.02.14.11.18l4.32,1.97c.21.1.11.33-.18.4l-5.83,1.33c-.11.03-.21.08-.26.16l-2.5,3.64c-.12.18-.49.23-.63.09Z"></path>
      <path class="cls-5" d="m76.1,73.37l-2.73-2.93c-.05-.06-.15-.09-.27-.08l-5.86.28c-.29.01-.41-.19-.21-.34l4.14-3.14c.08-.06.12-.14.09-.21l-1.13-3.47c-.06-.17.24-.35.5-.3l5.29.99c.1.02.23,0,.33-.04l5.17-2.42c.25-.12.56-.03.52.16l-.87,3.75c-.02.07.02.14.11.18l4.32,1.97c.21.1.11.33-.18.4l-5.83,1.33c-.11.03-.21.08-.26.16l-2.5,3.64c-.12.18-.49.23-.63.09Z"></path>
      <path class="cls-5" d="m55.69,85.19l-2.73-2.93c-.05-.06-.15-.09-.27-.08l-5.86.28c-.29.01-.41-.19-.21-.34l4.14-3.14c.08-.06.12-.14.09-.21l-1.13-3.47c-.06-.17.24-.35.5-.3l5.29.99c.1.02.23,0,.33-.04l5.17-2.42c.25-.12.56-.03.52.16l-.87,3.75c-.02.07.02.14.11.18l4.32,1.97c.21.1.11.33-.18.4l-5.83,1.33c-.11.03-.21.08-.26.16l-2.5,3.64c-.12.18-.49.23-.63.09Z"></path>
      <path class="cls-4" d="m60.78,92.02v5.03s.01,40.05.01,40.05c0,.96,1.22,1.49,2.22.96l3.89-2.05,43.91-23.05c1.23-.64,2-1.78,1.99-2.96v-45.08c0-.96-1.23-1.48-2.23-.96l-47.79,25.11c-1.22.64-1.98,1.78-1.99,2.96Z"></path>
      <path class="cls-9" d="m60.78,92.02v5.03s1.28.83,1.28.83l49.12-28.55,1.62-1.25v-3.17c0-.96-1.23-1.48-2.23-.96l-47.79,25.11c-1.22.64-1.98,1.78-1.99,2.96Z"></path>
      <path class="cls-3" d="m62.05,92.7v5.18s0,39.9,0,39.9c0,.95,1.23,1.49,2.23.96l3.88-2.05,43.92-23.05c.28-.14.52-.31.75-.5.78-.65,1.24-1.55,1.24-2.46v-40.28s0-4.81,0-4.81c-.01-.95-1.23-1.48-2.24-.96l-47.79,25.1c-1.23.65-1.98,1.77-1.99,2.96Z"></path>
      <path class="cls-6" d="m69.91,110.28h0s1.72,1.07,1.72,1.07l.57-.87c.4-.11.82-.28,1.25-.53,2.62-1.51,4.73-5.01,4.71-7.82,0-.24-.02-.47-.06-.68l.6-.92-1.59-.97c-.13-.11-.28-.19-.43-.27h-.02s0,0,0,0c-.86-.39-2.02-.27-3.29.46-2.62,1.51-4.73,5.01-4.71,7.83.01,1.32.49,2.24,1.25,2.71Z"></path>
      <path class="cls-6" d="m79.87,116.35c0-1.01-.22-1.91-.59-2.65l.22-.62s-1.62-1-1.68-1.04l-.2-.12c-1.12-.59-2.56-.57-4.14.34-3.52,2.02-6.36,7.63-6.33,11.41l1.84,1.14,4.1-3.81-.81-.28,7.6-4.37Z"></path>
      <path class="cls-7" d="m75.2,100.89c-2.62,1.51-4.72,5.01-4.71,7.82.02,2.82,2.16,3.88,4.79,2.37,2.62-1.51,4.72-5.01,4.71-7.83-.02-2.82-2.17-3.87-4.79-2.37Z"></path>
      <path class="cls-7" d="m75.32,113.39c-3.52,2.02-6.36,7.63-6.33,11.41l12.73-7.31c-.03-3.77-2.88-6.12-6.4-4.1Z"></path>
      <path class="cls-10" d="m62.06,92.7v5.18s52.02-27.48,52.02-27.48v-4.81c-.02-.95-1.23-1.48-2.24-.96l-47.79,25.1c-1.23.65-1.98,1.78-1.99,2.96Z"></path>
      <path class="cls-1" d="m72.9,85.07l39.93,28.07c.78-.65,1.24-1.55,1.24-2.46v-40.28s0-4.81,0-4.81c-.01-.95-1.23-1.48-2.24-.96l-38.93,20.43Z"></path>
      <path class="cls-2" d="m76.16,89l4.69-2.56c.13-.07.25-.23.25-.35,0-.12-.11-.16-.25-.08l-4.69,2.56c-.14.07-.25.23-.25.35,0,.12.11.16.25.08Z"></path>
      <path class="cls-2" d="m65.06,95.07c.07-.04.14-.11.19-.18l2.99-4.82c.08-.14.07-.27-.03-.29-.1-.02-.26.08-.35.22l-2.99,4.82c-.08.14-.07.27.03.29.04,0,.1,0,.16-.03Z"></path>
      <path class="cls-2" d="m68.06,93.43c.06-.03.11-.08.16-.14.1-.13.12-.28.03-.33l-3.01-1.54c-.09-.04-.24.03-.35.16-.11.13-.12.28-.03.33l3.01,1.54c.05.03.12.01.19-.02Z"></path>
      <path class="cls-2" d="m70.16,90.47c0-1,.92-2.33,2.06-2.95,1.14-.62,2.07-.31,2.07.69,0,1-.92,2.33-2.06,2.95-1.14.62-2.07.31-2.08-.69Zm.5-.27c0,.77.71,1,1.58.53.87-.47,1.57-1.48,1.57-2.25,0-.76-.71-1-1.58-.52-.87.47-1.57,1.48-1.57,2.24Z"></path>
    </g>
  </g>
</svg>
