<?xml version="1.0" encoding="UTF-8"?>
<svg xmlns="http://www.w3.org/2000/svg" xmlns:xlink="http://www.w3.org/1999/xlink" id="Layer_1" viewBox="0 0 249 301">
  <defs>
    <style>.cls-1{fill:url(#linear-gradient);}.cls-2{fill:#f0f0f3;}.cls-3{fill:#f4f8fd;}.cls-4{fill:#fff;}.cls-5{fill:#9e2a40;}.cls-6{fill:#e0395c;}.cls-7{fill:#d4daee;}.cls-8{fill:url(#_ÂÁ_Ï_ÌÌ_È_ËÂÌÚ_6-21);}.cls-9{fill:url(#_ÂÁ_Ï_ÌÌ_È_ËÂÌÚ_6-22);}.cls-10{fill:url(#_ÂÁ_Ï_ÌÌ_È_ËÂÌÚ_6-20);}.cls-11{fill:url(#_ÂÁ_Ï_ÌÌ_È_ËÂÌÚ_6-10);}.cls-12{fill:url(#_ÂÁ_Ï_ÌÌ_È_ËÂÌÚ_6-11);}.cls-13{fill:url(#_ÂÁ_Ï_ÌÌ_È_ËÂÌÚ_6-19);}.cls-14{fill:url(#_ÂÁ_Ï_ÌÌ_È_ËÂÌÚ_6-18);}.cls-15{fill:url(#_ÂÁ_Ï_ÌÌ_È_ËÂÌÚ_6-17);}.cls-16{fill:url(#_ÂÁ_Ï_ÌÌ_È_ËÂÌÚ_6-16);}.cls-17{fill:url(#_ÂÁ_Ï_ÌÌ_È_ËÂÌÚ_6-15);}.cls-18{fill:url(#_ÂÁ_Ï_ÌÌ_È_ËÂÌÚ_6-14);}.cls-19{fill:url(#_ÂÁ_Ï_ÌÌ_È_ËÂÌÚ_6-13);}.cls-20{fill:url(#_ÂÁ_Ï_ÌÌ_È_ËÂÌÚ_6-12);}.cls-21{fill:url(#linear-gradient-2);}.cls-22{fill:url(#_ÂÁ_Ï_ÌÌ_È_ËÂÌÚ_6-6);}.cls-23{fill:url(#_ÂÁ_Ï_ÌÌ_È_ËÂÌÚ_6-3);}.cls-24{fill:url(#_ÂÁ_Ï_ÌÌ_È_ËÂÌÚ_6-2);}.cls-25{fill:url(#_ÂÁ_Ï_ÌÌ_È_ËÂÌÚ_6-9);}.cls-26{fill:url(#_ÂÁ_Ï_ÌÌ_È_ËÂÌÚ_6-4);}.cls-27{fill:url(#_ÂÁ_Ï_ÌÌ_È_ËÂÌÚ_6-7);}.cls-28{fill:url(#_ÂÁ_Ï_ÌÌ_È_ËÂÌÚ_6-8);}.cls-29{fill:url(#_ÂÁ_Ï_ÌÌ_È_ËÂÌÚ_6-5);}.cls-30{fill:url(#_ÂÁ_Ï_ÌÌ_È_ËÂÌÚ_6);}</style>
    <linearGradient id="linear-gradient" x1="10394.67" y1="95.57" x2="10531" y2="95.57" gradientTransform="translate(10559.83) rotate(-180) scale(1 -1)" gradientUnits="userSpaceOnUse">
      <stop offset="0" stop-color="#e0e8f4"></stop>
      <stop offset="1" stop-color="#93a4d4"></stop>
    </linearGradient>
    <linearGradient id="_ÂÁ_Ï_ÌÌ_È_ËÂÌÚ_6" x1="75.81" y1="164.58" x2="224.28" y2="164.58" gradientTransform="translate(4.09 -3.99) rotate(.22)" gradientUnits="userSpaceOnUse">
      <stop offset="0" stop-color="#bbcbe8"></stop>
      <stop offset="1" stop-color="#aab6dc"></stop>
    </linearGradient>
    <linearGradient id="_ÂÁ_Ï_ÌÌ_È_ËÂÌÚ_6-2" x1="81.89" y1="156.08" x2="218.89" y2="156.08" xlink:href="#_ÂÁ_Ï_ÌÌ_È_ËÂÌÚ_6"></linearGradient>
    <linearGradient id="linear-gradient-2" x1="92.13" y1="156.35" x2="215.61" y2="156.35" gradientUnits="userSpaceOnUse">
      <stop offset="0" stop-color="#003b4d"></stop>
      <stop offset=".55" stop-color="#476080"></stop>
      <stop offset="1" stop-color="#41607f"></stop>
    </linearGradient>
    <linearGradient id="_ÂÁ_Ï_ÌÌ_È_ËÂÌÚ_6-3" x1="137.15" y1="156.11" x2="180.51" y2="156.11" xlink:href="#_ÂÁ_Ï_ÌÌ_È_ËÂÌÚ_6"></linearGradient>
    <linearGradient id="_ÂÁ_Ï_ÌÌ_È_ËÂÌÚ_6-4" x1="144.08" y1="163.35" x2="175.73" y2="163.35" xlink:href="#_ÂÁ_Ï_ÌÌ_È_ËÂÌÚ_6"></linearGradient>
    <linearGradient id="_ÂÁ_Ï_ÌÌ_È_ËÂÌÚ_6-5" x1="128.06" y1="152.7" x2="186.2" y2="152.7" xlink:href="#_ÂÁ_Ï_ÌÌ_È_ËÂÌÚ_6"></linearGradient>
    <linearGradient id="_ÂÁ_Ï_ÌÌ_È_ËÂÌÚ_6-6" x1="148.42" y1="164.57" x2="155.87" y2="164.57" xlink:href="#_ÂÁ_Ï_ÌÌ_È_ËÂÌÚ_6"></linearGradient>
    <linearGradient id="_ÂÁ_Ï_ÌÌ_È_ËÂÌÚ_6-7" x1="156.54" y1="163.15" x2="167.82" y2="163.15" xlink:href="#_ÂÁ_Ï_ÌÌ_È_ËÂÌÚ_6"></linearGradient>
    <linearGradient id="_ÂÁ_Ï_ÌÌ_È_ËÂÌÚ_6-8" x1="132.86" y1="166.55" x2="146.13" y2="166.55" xlink:href="#_ÂÁ_Ï_ÌÌ_È_ËÂÌÚ_6"></linearGradient>
    <linearGradient id="_ÂÁ_Ï_ÌÌ_È_ËÂÌÚ_6-9" x1="146.88" y1="170.77" x2="153.84" y2="170.77" xlink:href="#_ÂÁ_Ï_ÌÌ_È_ËÂÌÚ_6"></linearGradient>
    <linearGradient id="_ÂÁ_Ï_ÌÌ_È_ËÂÌÚ_6-10" x1="120.55" y1="145.53" x2="166.71" y2="145.53" xlink:href="#_ÂÁ_Ï_ÌÌ_È_ËÂÌÚ_6"></linearGradient>
    <linearGradient id="_ÂÁ_Ï_ÌÌ_È_ËÂÌÚ_6-11" x1="108.91" y1="146.13" x2="140.34" y2="146.13" xlink:href="#_ÂÁ_Ï_ÌÌ_È_ËÂÌÚ_6"></linearGradient>
    <linearGradient id="_ÂÁ_Ï_ÌÌ_È_ËÂÌÚ_6-12" x1="116.77" y1="161.04" x2="121.88" y2="161.04" xlink:href="#_ÂÁ_Ï_ÌÌ_È_ËÂÌÚ_6"></linearGradient>
    <linearGradient id="_ÂÁ_Ï_ÌÌ_È_ËÂÌÚ_6-13" x1="161.35" y1="172.81" x2="183.72" y2="172.81" xlink:href="#_ÂÁ_Ï_ÌÌ_È_ËÂÌÚ_6"></linearGradient>
    <linearGradient id="_ÂÁ_Ï_ÌÌ_È_ËÂÌÚ_6-14" x1="179.38" y1="176.15" x2="191.05" y2="176.15" xlink:href="#_ÂÁ_Ï_ÌÌ_È_ËÂÌÚ_6"></linearGradient>
    <linearGradient id="_ÂÁ_Ï_ÌÌ_È_ËÂÌÚ_6-15" x1="124.67" y1="168.61" x2="155.64" y2="168.61" xlink:href="#_ÂÁ_Ï_ÌÌ_È_ËÂÌÚ_6"></linearGradient>
    <linearGradient id="_ÂÁ_Ï_ÌÌ_È_ËÂÌÚ_6-16" x1="132.86" y1="165.56" x2="183.75" y2="165.56" xlink:href="#_ÂÁ_Ï_ÌÌ_È_ËÂÌÚ_6"></linearGradient>
    <linearGradient id="_ÂÁ_Ï_ÌÌ_È_ËÂÌÚ_6-17" x1="148.42" y1="166.28" x2="155.9" y2="166.28" xlink:href="#_ÂÁ_Ï_ÌÌ_È_ËÂÌÚ_6"></linearGradient>
    <linearGradient id="_ÂÁ_Ï_ÌÌ_È_ËÂÌÚ_6-18" x1="144.08" y1="165.57" x2="175.73" y2="165.57" xlink:href="#_ÂÁ_Ï_ÌÌ_È_ËÂÌÚ_6"></linearGradient>
    <linearGradient id="_ÂÁ_Ï_ÌÌ_È_ËÂÌÚ_6-19" x1="124.67" y1="164.29" x2="186.2" y2="164.29" xlink:href="#_ÂÁ_Ï_ÌÌ_È_ËÂÌÚ_6"></linearGradient>
    <linearGradient id="_ÂÁ_Ï_ÌÌ_È_ËÂÌÚ_6-20" x1="116.78" y1="154.59" x2="166.74" y2="154.59" xlink:href="#_ÂÁ_Ï_ÌÌ_È_ËÂÌÚ_6"></linearGradient>
    <linearGradient id="_ÂÁ_Ï_ÌÌ_È_ËÂÌÚ_6-21" x1="179.38" y1="178.23" x2="191.05" y2="178.23" xlink:href="#_ÂÁ_Ï_ÌÌ_È_ËÂÌÚ_6"></linearGradient>
    <linearGradient id="_ÂÁ_Ï_ÌÌ_È_ËÂÌÚ_6-22" x1="108.91" y1="148.22" x2="140.34" y2="148.22" xlink:href="#_ÂÁ_Ï_ÌÌ_È_ËÂÌÚ_6"></linearGradient>
  </defs>
  <circle class="cls-6" cx="124.73" cy="177.47" r="115.84"></circle>
  <path class="cls-3" d="m157.36,4.55L36.35,74.42c-4.65,2.69-7.52,7.65-7.52,13.02v94.36c0,4.62,5,7.51,9.01,5.2l121.01-69.87c4.65-2.69,7.52-7.65,7.52-13.02V9.75c0-4.62-5-7.51-9.01-5.2Z"></path>
  <path class="cls-1" d="m36.35,74.42L157.36,4.55c2.79-1.61,6.07-.69,7.8,1.59-1.59-.62-3.46-.58-5.15.4L39,76.4c-4.65,2.69-7.52,7.65-7.52,13.02v94.36c0,1.4.46,2.63,1.21,3.61-2.18-.84-3.86-2.93-3.86-5.6v-94.36c0-5.37,2.87-10.34,7.52-13.02Z"></path>
  <polygon class="cls-5" points="158.43 18.01 40.66 85.92 40.66 143.03 158.43 75.13 158.43 18.01"></polygon>
  <polygon class="cls-7" points="158.43 82.69 40.66 150.59 40.66 157.33 158.43 89.42 158.43 82.69"></polygon>
  <polygon class="cls-7" points="91.49 139.66 40.66 168.87 40.66 175.6 91.49 146.4 91.49 139.66"></polygon>
  <path class="cls-30" d="m206.05,122.78c-28.87-16.82-75.8-17-104.81-.4-14.16,8.1-21.43,18.7-21.8,29.39-.22,6.08-.24,12.16-.07,18.24.29,10.69,7.48,21.34,21.57,29.55,28.87,16.82,75.8,17,104.81.4,14.16-8.1,21.43-18.7,21.8-29.39.22-6.08.24-12.16.07-18.24-.29-10.69-7.47-21.34-21.57-29.55Z"></path>
  <path class="cls-2" d="m206.05,122.78c28.88,16.82,28.77,43.91-.23,60.51-29,16.6-75.93,16.42-104.81-.4-28.88-16.82-28.78-43.91.23-60.51,29-16.6,75.93-16.42,104.81.4Z"></path>
  <path class="cls-24" d="m105.55,126.16c26.81-14.44,70.18-14.27,96.88.37,26.69,14.65,26.6,38.22-.2,52.65-26.81,14.44-70.18,14.27-96.88-.37-26.7-14.64-26.61-38.21.2-52.65Z"></path>
  <path class="cls-21" d="m110.3,132.45c24.16-13.01,63.26-12.86,87.32.34,24.06,13.2,23.98,34.44-.18,47.46-24.16,13.01-63.26,12.86-87.32-.34-24.06-13.2-23.98-34.45.18-47.46Z"></path>
  <polygon class="cls-23" points="140.65 150.83 141.73 152.62 148.5 149.67 155.38 149.3 163.4 150.08 170.62 152.73 177.42 155.87 182.67 159.86 183.97 160.71 181.99 156.2 176.99 151.27 170.76 148.41 163.95 146.04 155.66 144.82 148.96 145.53 143.66 147.76 140.65 150.83"></polygon>
  <polygon class="cls-26" points="147.58 151.16 147.56 155.29 150.16 155.88 152.64 154.29 156.31 153.7 167.9 155.55 174.11 159.82 175.99 161.58 174.47 165.05 172.24 165.97 172.22 170.25 176.95 168.34 179.17 166.23 179.18 162.02 176.48 157.97 172.73 154.52 167.66 151.71 161.8 150.21 154.19 149.69 147.58 151.16"></polygon>
  <polygon class="cls-29" points="189.69 153.96 189.67 158.02 186.62 156.64 173.84 148.68 166.61 146.58 154.57 144.56 144.83 144.95 136.2 148.27 131.56 150.22 133.93 145.55 144.84 141.26 155.69 140.71 165.34 141.94 171.34 143.67 176.69 145.55 185.17 150.51 189.69 153.96"></polygon>
  <polygon class="cls-22" points="159.32 162.45 159.31 166.56 154.9 164.49 151.88 161.49 151.89 157.59 156.88 155.79 156.86 159.9 155.31 160.47 159.32 162.45"></polygon>
  <path class="cls-27" d="m160.02,154.32l-.02,4.11,7.11,2.32,4.14,4.52.02-4.32-1.59-.89-2.4-2.78s-1.67-1.49-1.86-1.55c-.19-.06-3.64-1.14-3.64-1.14l-1.76-.27Z"></path>
  <polygon class="cls-28" points="149.56 167.54 149.55 171.47 144.14 168.62 139.02 162.54 136.33 158.73 136.34 154.72 138.19 155.47 140.3 160.82 143.23 164.87 145.89 166.39 149.56 167.54"></polygon>
  <path class="cls-25" d="m150.32,164.1l-.02,4.09,3.71,1.05,1.24,1.38s2.06-.38,1.99-.53c-.06-.15-1.66-3.4-1.66-3.4l-4-2.46-1.27-.14Z"></path>
  <polygon class="cls-11" points="170.26 138.91 170.24 143.32 162.75 141.09 152.59 139.94 141.61 140.66 132.31 143.52 125.86 148.23 124.07 146.07 132.65 139.41 148.81 135.88 166.62 137.49 170.26 138.91"></polygon>
  <polygon class="cls-12" points="112.42 149.23 112.4 153.34 114.48 152.94 119.51 143.47 127.25 139.39 141.82 135.37 143.89 135.9 143.91 131.91 139.93 132.03 134.02 132.69 125.14 135.74 118.77 140.57 114.89 146.92 112.42 149.23"></polygon>
  <polygon class="cls-20" points="125.35 158.39 125.33 162.49 120.25 156.13 120.26 152.54 122.97 153.72 125.35 158.39"></polygon>
  <polygon class="cls-19" points="164.8 164.92 164.78 168.76 167.8 171.91 172.72 174.65 178.77 174.92 184.23 171.22 186.64 167.93 187.16 167.15 187.17 164.1 184.73 165.48 180.93 169.73 174.62 171.21 170.86 169.24 164.8 164.92"></polygon>
  <polygon class="cls-18" points="194.48 167.28 194.46 171.38 185.38 177.48 182.77 178.47 182.79 174.45 184.96 174.37 194.48 167.28"></polygon>
  <polygon class="cls-17" points="159.06 170.14 159.05 174.06 155 176.92 146.64 175.93 140.61 172.6 133.43 165.92 128.14 157.63 128.16 153.38 130.08 156.17 133.23 161.29 136.13 165.13 141.05 169 146.19 171.63 151.83 172.94 155.57 172.06 159.06 170.14"></polygon>
  <path class="cls-16" d="m182.81,174.44c1.18-.69,2.14-1.5,2.85-2.41.95-1.21,1.46-2.58,1.52-4.08.09-2.34-.93-4.9-2.95-7.4-1.81-2.26-4.43-4.41-7.55-6.24-4.06-2.37-8.87-4.15-13.91-5.12-2.59-.5-5.17-.78-7.68-.83-5.56-.11-10.32.89-13.77,2.9-8.32,4.85-6,14.11,5.17,20.64.85.5,2.06.6,2.69.23.63-.37.45-1.07-.4-1.57-9.47-5.54-11.44-13.39-4.38-17.5,2.92-1.7,6.95-2.55,11.67-2.46,2.13.04,4.32.28,6.52.71,4.26.83,8.34,2.33,11.79,4.34,2.65,1.56,4.88,3.4,6.44,5.33,1.72,2.13,2.58,4.3,2.51,6.29-.05,1.25-.47,2.4-1.25,3.4-.76.96-1.84,1.79-3.22,2.44-2.12,1.01-4.36,1.2-8.4-1.17-1.45-.84-2.03-1.78-1.79-2.87.17-.75.67-1.3.83-1.46,3.08-1.88,2.16-5.4-2.1-7.89-1.57-.92-3.44-1.6-5.39-1.98-1.06-.2-1.96.11-2,.69-.05.58.77,1.22,1.84,1.43,1.18.23,2.31.64,3.26,1.2,2.61,1.52,3.15,3.68,1.21,4.81l-.09.05-.07.06c-1.44,1.27-2.88,4.44,2.01,7.3,5.13,2.99,9.7,3.58,13.6,1.72.36-.17.71-.36,1.05-.55Z"></path>
  <path class="cls-15" d="m158.95,166.98s.05-.03.08-.05c.57-.4.31-1.11-.58-1.58-1.62-.85-2.63-2-2.72-3.09-.05-.67.25-1.27.87-1.72.56-.41.27-1.12-.63-1.59-.9-.47-2.09-.51-2.65-.1-1.03.76-1.53,1.74-1.44,2.86.14,1.79,1.82,3.7,4.49,5.1.86.45,1.98.52,2.58.17Z"></path>
  <path class="cls-14" d="m175.68,171.34c2.9-1.69,4.04-4.17,3.23-6.98-.81-2.81-3.48-5.57-7.51-7.77-7.44-4.06-17.73-4.95-23.41-2.02-.67.35-.55,1.04.27,1.56.82.51,2.03.65,2.7.31,4.44-2.29,12.48-1.59,18.29,1.58,3.15,1.72,5.23,3.88,5.87,6.07.63,2.2-.26,4.13-2.53,5.45-.63.37-.45,1.07.4,1.57.85.5,2.05.6,2.69.23Z"></path>
  <path class="cls-13" d="m189.29,158.61c.47-.27.52-.76.06-1.23-2.11-2.12-4.74-4.11-7.81-5.91-7.29-4.26-16.26-7-25.24-7.7-8.97-.7-16.8.72-22.04,4.01-5.05,3.17-7.07,7.7-5.68,12.75,1.39,5.05,6.03,10.1,13.08,14.21.93.54,1.89,1.07,2.87,1.56,2.3,1.15,5.03,1.82,7.5,1.84.16,0,.33,0,.5.01,1.45.03,3.66.09,5.28-1.45,2.36-2.23.95-4.57-.65-6.13-1.65-1.61-3.83-2.72-3.92-2.76-.92-.46-2.1-.49-2.64-.07-.54.42-.24,1.13.67,1.59,0,0,1.63.84,2.8,2.01,1.43,1.43,1.53,2.69.32,3.84-.84.79-1.58.77-2.81.75-.2,0-.4,0-.6-.01-1.44-.01-3.07-.42-4.46-1.11-.87-.44-1.73-.9-2.54-1.38-12.94-7.56-15.82-18.04-6.55-23.86,4.63-2.91,11.56-4.17,19.5-3.55,7.94.62,15.88,3.04,22.33,6.82,2.72,1.59,5.05,3.35,6.92,5.23.59.59,1.78.92,2.66.74.19-.04.35-.1.47-.17Z"></path>
  <path class="cls-10" d="m169.89,143.42c.17-.1.29-.24.35-.4.18-.55-.52-1.23-1.57-1.51-7.42-1.97-15.05-2.82-22.08-2.48-7.22.35-13.5,1.98-18.15,4.68-7.49,4.37-9.99,11.06-6.89,18.38.26.62,1.31,1.14,2.34,1.17,1.03.03,1.65-.46,1.38-1.07-2.81-6.64-.54-12.72,6.25-16.68,8.49-4.95,22.47-5.72,36.49-2,.74.2,1.45.14,1.88-.1Z"></path>
  <path class="cls-8" d="m187.23,179.16c.06-.04.12-.07.18-.1,3.39-2.02,5.75-4.51,7-7.41.23-.54-.42-1.22-1.45-1.53-1.04-.31-2.07-.11-2.3.43-1.13,2.63-3.27,4.88-6.35,6.72-.36.22-.73.42-1.11.62-.67.35-.54,1.05.28,1.56.83.51,2.04.64,2.7.29.35-.19.71-.38,1.05-.58Z"></path>
  <path class="cls-9" d="m115.86,154.62c.22-.13.36-.31.38-.52.47-4.92,3.56-9.16,8.92-12.29,4.58-2.67,10.66-4.39,17.6-4.99.97-.08,1.39-.65.96-1.26-.44-.62-1.58-1.05-2.54-.96-7.52.65-14.13,2.52-19.09,5.41-5.82,3.39-9.16,8-9.68,13.33-.05.58.76,1.23,1.82,1.44.67.13,1.27.06,1.64-.15Z"></path>
  <path class="cls-4" d="m182.82,170.33c1.18-.69,2.14-1.5,2.85-2.41.95-1.21,1.46-2.58,1.52-4.08.09-2.34-.93-4.9-2.95-7.4-1.81-2.26-4.43-4.41-7.55-6.24-4.06-2.37-8.87-4.15-13.91-5.12-2.59-.5-5.17-.78-7.68-.83-5.56-.11-10.32.9-13.77,2.9-8.32,4.85-6,14.11,5.17,20.64.85.5,2.06.6,2.69.23.63-.37.45-1.07-.4-1.57-9.47-5.54-11.44-13.39-4.38-17.5,2.92-1.7,6.95-2.55,11.67-2.46,2.13.04,4.32.28,6.52.7,4.26.83,8.34,2.33,11.79,4.34,2.65,1.56,4.88,3.4,6.44,5.32,1.72,2.13,2.58,4.31,2.51,6.29-.05,1.25-.47,2.39-1.25,3.4-.76.96-1.84,1.79-3.22,2.44-2.12,1.01-4.36,1.2-8.4-1.17-1.45-.84-2.03-1.78-1.79-2.87.17-.74.67-1.3.83-1.46,3.08-1.88,2.16-5.4-2.1-7.89-1.57-.92-3.44-1.6-5.39-1.98-1.06-.2-1.96.11-2,.69-.05.58.77,1.22,1.84,1.43,1.18.23,2.31.64,3.26,1.2,2.61,1.52,3.15,3.68,1.21,4.81l-.09.05-.07.06c-1.44,1.27-2.88,4.44,2.01,7.3,5.13,3,9.7,3.58,13.6,1.73.36-.17.71-.36,1.05-.55Z"></path>
  <path class="cls-4" d="m158.97,162.87s.05-.03.08-.05c.57-.4.31-1.11-.58-1.58-1.62-.85-2.63-2-2.72-3.09-.05-.67.25-1.27.87-1.73.56-.41.27-1.12-.63-1.58-.9-.47-2.09-.51-2.65-.1-1.03.76-1.53,1.74-1.44,2.85.14,1.79,1.82,3.7,4.49,5.1.86.45,1.98.52,2.58.17Z"></path>
  <path class="cls-4" d="m175.7,167.23c2.9-1.69,4.04-4.17,3.23-6.98-.81-2.81-3.48-5.57-7.51-7.77-7.44-4.06-17.73-4.95-23.41-2.02-.67.35-.55,1.04.27,1.56.82.51,2.03.65,2.7.31,4.44-2.29,12.48-1.6,18.29,1.58,3.15,1.72,5.23,3.88,5.87,6.07.63,2.2-.26,4.13-2.53,5.45-.63.37-.45,1.07.4,1.57.85.5,2.05.6,2.69.23Z"></path>
  <path class="cls-4" d="m189.3,154.5c.47-.27.52-.76.06-1.23-2.11-2.12-4.74-4.11-7.81-5.91-7.29-4.26-16.26-7-25.24-7.71-8.97-.7-16.8.72-22.04,4.01-5.05,3.17-7.07,7.7-5.68,12.75,1.39,5.05,6.03,10.1,13.08,14.22.93.54,1.89,1.06,2.87,1.55,2.3,1.15,5.03,1.83,7.5,1.84.16,0,.33,0,.5.01,1.45.03,3.66.09,5.28-1.45,2.36-2.23.95-4.57-.65-6.13-1.65-1.61-3.83-2.72-3.92-2.76-.92-.46-2.1-.49-2.64-.07-.54.42-.24,1.13.67,1.59,0,0,1.63.84,2.8,2.01,1.43,1.43,1.53,2.69.32,3.84-.84.79-1.58.77-2.81.75-.2,0-.4-.01-.6-.01-1.44-.01-3.07-.42-4.46-1.11-.87-.44-1.73-.9-2.54-1.38-12.94-7.56-15.82-18.04-6.55-23.86,4.63-2.91,11.56-4.17,19.5-3.55,7.94.62,15.88,3.04,22.33,6.82,2.72,1.59,5.05,3.35,6.92,5.23.59.6,1.78.93,2.66.75.19-.04.35-.1.47-.17Z"></path>
  <path class="cls-4" d="m169.9,139.31c.17-.1.29-.24.35-.4.18-.55-.52-1.23-1.57-1.5-7.42-1.97-15.05-2.82-22.08-2.48-7.22.35-13.5,1.97-18.15,4.68-7.49,4.36-9.99,11.06-6.89,18.38.26.62,1.31,1.14,2.34,1.17,1.03.02,1.65-.46,1.38-1.07-2.81-6.64-.54-12.72,6.25-16.68,8.49-4.95,22.47-5.72,36.49-2,.74.2,1.45.14,1.88-.1Z"></path>
  <path class="cls-4" d="m187.25,175.06c.06-.04.12-.07.18-.11,3.39-2.01,5.75-4.51,7-7.41.23-.54-.42-1.23-1.45-1.53-1.04-.31-2.07-.12-2.3.42-1.13,2.63-3.27,4.89-6.35,6.72-.36.21-.73.42-1.11.62-.67.34-.54,1.05.28,1.56.83.51,2.04.64,2.7.3.35-.19.71-.38,1.05-.58Z"></path>
  <path class="cls-4" d="m115.88,150.51c.22-.13.36-.31.38-.52.47-4.92,3.56-9.16,8.92-12.29,4.58-2.67,10.66-4.39,17.6-4.99.97-.08,1.39-.65.96-1.26-.44-.62-1.58-1.05-2.54-.96-7.52.65-14.13,2.52-19.09,5.41-5.82,3.39-9.16,8-9.68,13.33-.05.58.76,1.23,1.82,1.44.67.13,1.27.06,1.64-.15Z"></path>
</svg>
