<?xml version="1.0" encoding="UTF-8"?>
<svg xmlns="http://www.w3.org/2000/svg" xmlns:xlink="http://www.w3.org/1999/xlink" id="Layer_1" viewBox="0 0 155.91 155.91">
  <defs>
    <style>.cls-1{fill:url(#linear-gradient);}.cls-2{fill:#003b4d;}.cls-3{fill:#9e2a40;}.cls-4{fill:#e0395c;}.cls-5{fill:url(#linear-gradient-3);}.cls-6{fill:url(#linear-gradient-4);}.cls-7{fill:url(#linear-gradient-2);}.cls-8{fill:url(#linear-gradient-5);}</style>
    <linearGradient id="linear-gradient" x1="102.28" y1="93.97" x2="145.71" y2="58" gradientUnits="userSpaceOnUse">
      <stop offset="0" stop-color="#003b4d"></stop>
      <stop offset=".55" stop-color="#476080"></stop>
      <stop offset="1" stop-color="#41607f"></stop>
    </linearGradient>
    <linearGradient id="linear-gradient-2" x1="39.96" y1="42.95" x2="114.09" y2="42.95" gradientUnits="userSpaceOnUse">
      <stop offset="0" stop-color="#f29300"></stop>
      <stop offset=".73" stop-color="#f8b203"></stop>
      <stop offset="1" stop-color="#fbbf05"></stop>
    </linearGradient>
    <linearGradient id="linear-gradient-3" y1="59.1" x2="77.02" y2="59.1" xlink:href="#linear-gradient-2"></linearGradient>
    <linearGradient id="linear-gradient-4" x1="77.02" y1="59.1" x2="114.09" y2="59.1" gradientUnits="userSpaceOnUse">
      <stop offset="0" stop-color="#f39322"></stop>
      <stop offset=".8" stop-color="#f8b229"></stop>
      <stop offset="1" stop-color="#fabb2b"></stop>
    </linearGradient>
    <linearGradient id="linear-gradient-5" x1="77.02" y1="67.85" x2="129.37" y2="67.85" xlink:href="#linear-gradient"></linearGradient>
  </defs>
  <path class="cls-3" d="m129.37,79.59h-5.86c-2.4-2.68-5.54-5.2-9.43-7.44-20.38-11.77-53.74-11.77-74.13,0-3.88,2.24-7.02,4.76-9.43,7.44h-5.86v13.85h0c-.05,7.79,5.04,15.6,15.28,21.51,20.38,11.77,53.74,11.77,74.13,0,10.24-5.91,15.33-13.71,15.28-21.51h0v-13.85Z"></path>
  <path class="cls-4" d="m39.86,58.37c20.33-11.87,53.68-12.03,74.13-.35,20.44,11.67,20.53,30.93.2,42.8-20.33,11.87-53.68,12.03-74.13.35-20.44-11.67-20.53-30.93-.2-42.8Z"></path>
  <path class="cls-1" d="m129.36,79.87c0-.19,0-.37,0-.56v-11.46h-4.07c-2.55-3.52-6.28-6.81-11.21-9.66-14.4-8.31-4.73,23.44,0,42.8v13.95c9.98-5.76,15.06-13.32,15.27-20.92v-14.15Z"></path>
  <path class="cls-7" d="m114.09,34.71c-20.38-11.77-53.74-11.77-74.13,0l37.06,25.31,37.06-25.31Z"></path>
  <polygon class="cls-5" points="39.96 34.71 39.96 58.19 77.02 83.5 77.02 60.02 39.96 34.71"></polygon>
  <polygon class="cls-6" points="77.02 60.02 114.09 34.71 114.09 58.19 77.02 83.5 77.02 60.02"></polygon>
  <path class="cls-8" d="m114.09,46.45c20.38,11.77,20.38,31.03,0,42.8l-37.06-17.48,37.06-25.31Z"></path>
  <polygon class="cls-2" points="77.02 71.76 77.02 83.5 114.09 100.99 114.09 89.24 77.02 71.76"></polygon>
</svg>
