<?xml version="1.0" encoding="UTF-8"?>
<svg xmlns="http://www.w3.org/2000/svg" xmlns:xlink="http://www.w3.org/1999/xlink" id="Layer_1" viewBox="0 0 249 301">
  <defs>
    <style>.cls-1{fill:url(#linear-gradient);}.cls-2{fill:#f4f8fd;}.cls-3,.cls-4{fill:#fff;}.cls-5{fill:#f39322;}.cls-6{fill:#3164ad;}.cls-7{fill:#e0395c;}.cls-8{fill:url(#linear-gradient-2);}.cls-4{opacity:0;}.cls-9{fill:#7295c7;opacity:.68;}.cls-10{fill:#81a0cd;opacity:.61;}.cls-11{fill:#86a4cf;opacity:.59;}.cls-12{fill:#95afd5;opacity:.51;}.cls-13{fill:#8ba8d1;opacity:.56;}.cls-14{fill:#90acd3;opacity:.54;}.cls-15{fill:#9ab3d7;opacity:.49;}.cls-16{fill:#4a77b7;opacity:.88;}.cls-17{fill:#4573b5;opacity:.9;}.cls-18{fill:#406fb3;opacity:.93;}.cls-19{fill:#5982bd;opacity:.8;}.cls-20{fill:#547ebb;opacity:.83;}.cls-21{fill:#4f7ab9;opacity:.85;}.cls-22{fill:#6389c1;opacity:.76;}.cls-23{fill:#5e86bf;opacity:.78;}.cls-24{fill:#688dc3;opacity:.73;}.cls-25{fill:#6d91c5;opacity:.71;}.cls-26{fill:#9fb7d9;opacity:.46;}.cls-27{fill:#7c9ccb;opacity:.63;}.cls-28{fill:#7799c9;opacity:.66;}.cls-29{fill:#3b6bb1;opacity:.95;}.cls-30{fill:#3667af;opacity:.98;}</style>
    <linearGradient id="linear-gradient" x1="95.55" y1="144.21" x2="230.16" y2="144.21" gradientUnits="userSpaceOnUse">
      <stop offset="0" stop-color="#003b4d"></stop>
      <stop offset=".55" stop-color="#476080"></stop>
      <stop offset="1" stop-color="#41607f"></stop>
    </linearGradient>
    <linearGradient id="linear-gradient-2" x1="1.8" y1="204" x2="230.14" y2="204" gradientUnits="userSpaceOnUse">
      <stop offset="0" stop-color="#93a4d4"></stop>
      <stop offset="1" stop-color="#cfdbef"></stop>
    </linearGradient>
  </defs>
  <circle class="cls-7" cx="124.73" cy="177.47" r="115.84"></circle>
  <path class="cls-5" d="m94.61,142.57c0,6.08-4.93,11.01-11.01,11.01s-11.01-4.93-11.01-11.01,4.93-11.01,11.01-11.01,11.01,4.93,11.01,11.01"></path>
  <path class="cls-5" d="m94.61,178.94c0,6.08-4.93,11.01-11.01,11.01s-11.01-4.93-11.01-11.01,4.93-11.01,11.01-11.01,11.01,4.93,11.01,11.01"></path>
  <path class="cls-4" d="m105.46,104.39c4.17-2.47,11.03-2.51,15.23-.08l117.1,67.61c4.2,2.43,4.2,6.39,0,8.82l-115.43,66.64c-4.2,2.43-11.07,2.43-15.28,0L-8.36,180.73c-4.2-2.42-4.22-6.43-.05-8.9l113.86-67.44Z"></path>
  <path class="cls-26" d="m106.54,112.72c3.69-2.18,9.74-2.22,13.45-.07l103.45,59.73c3.71,2.14,3.71,5.65,0,7.79l-101.98,58.88c-3.71,2.14-9.78,2.14-13.49,0L5.99,180.16c-3.71-2.14-3.73-5.68-.04-7.87l100.59-59.58Z"></path>
  <path class="cls-15" d="m106.59,113.16c3.66-2.17,9.67-2.2,13.36-.07l102.73,59.31c3.69,2.13,3.69,5.61,0,7.74l-101.27,58.47c-3.69,2.13-9.72,2.13-13.4,0L6.74,180.13c-3.69-2.13-3.71-5.64-.04-7.81l99.89-59.16Z"></path>
  <path class="cls-12" d="m106.65,113.59c3.64-2.15,9.6-2.19,13.26-.07l102.01,58.9c3.66,2.11,3.66,5.57,0,7.68l-100.56,58.06c-3.66,2.11-9.65,2.11-13.31,0L7.5,180.1c-3.66-2.11-3.68-5.6-.04-7.76l99.19-58.75Z"></path>
  <path class="cls-14" d="m106.71,114.03c3.61-2.14,9.54-2.17,13.17-.07l101.29,58.48c3.63,2.1,3.63,5.53,0,7.63l-99.85,57.65c-3.63,2.1-9.58,2.1-13.21,0L8.25,180.07c-3.63-2.1-3.65-5.56-.04-7.7l98.5-58.33Z"></path>
  <path class="cls-13" d="m106.76,114.47c3.58-2.12,9.47-2.16,13.08-.07l100.57,58.07c3.61,2.08,3.61,5.49,0,7.57l-99.14,57.24c-3.61,2.08-9.51,2.08-13.12,0L9.01,180.04c-3.61-2.08-3.63-5.52-.04-7.65l97.8-57.92Z"></path>
  <path class="cls-11" d="m106.82,114.91c3.56-2.11,9.4-2.14,12.98-.07l99.86,57.65c3.58,2.07,3.58,5.45,0,7.52l-98.43,56.83c-3.58,2.07-9.44,2.07-13.03,0L9.76,180.01c-3.58-2.07-3.6-5.48-.04-7.59l97.1-57.51Z"></path>
  <path class="cls-10" d="m106.88,115.35c3.53-2.09,9.33-2.12,12.89-.07l99.14,57.24c3.56,2.05,3.56,5.41,0,7.47l-97.73,56.42c-3.56,2.05-9.38,2.05-12.93,0L10.52,179.98c-3.56-2.05-3.58-5.45-.04-7.54l96.4-57.09Z"></path>
  <path class="cls-27" d="m106.93,115.79c3.51-2.08,9.27-2.11,12.8-.07l98.42,56.82c3.53,2.04,3.53,5.37,0,7.41l-97.02,56.01c-3.53,2.04-9.31,2.04-12.84,0L11.27,179.95c-3.53-2.04-3.55-5.41-.04-7.48l95.7-56.68Z"></path>
  <path class="cls-28" d="m106.99,116.22c3.48-2.06,9.2-2.09,12.7-.07l97.7,56.41c3.51,2.02,3.51,5.33,0,7.36l-96.31,55.6c-3.5,2.02-9.24,2.02-12.74,0L12.03,179.92c-3.51-2.02-3.52-5.37-.04-7.43l95-56.27Z"></path>
  <path class="cls-9" d="m107.05,116.66c3.46-2.05,9.13-2.08,12.61-.07l96.98,55.99c3.48,2.01,3.48,5.3,0,7.3l-95.6,55.2c-3.48,2.01-9.17,2.01-12.65,0L12.78,179.89c-3.48-2.01-3.5-5.33-.04-7.37l94.3-55.85Z"></path>
  <path class="cls-25" d="m107.1,117.1c3.43-2.03,9.06-2.06,12.52-.07l96.26,55.58c3.45,1.99,3.45,5.26,0,7.25l-94.89,54.79c-3.45,1.99-9.1,1.99-12.56,0L13.54,179.86c-3.45-1.99-3.47-5.29-.04-7.32l93.61-55.44Z"></path>
  <path class="cls-24" d="m107.16,117.54c3.41-2.02,9-2.05,12.42-.07l95.55,55.16c3.43,1.98,3.43,5.22,0,7.2l-94.19,54.38c-3.43,1.98-9.04,1.98-12.46,0L14.29,179.83c-3.43-1.98-3.45-5.25-.04-7.27l92.91-55.03Z"></path>
  <path class="cls-22" d="m107.22,117.98c3.38-2,8.93-2.03,12.33-.07l94.83,54.75c3.4,1.96,3.4,5.18,0,7.14l-93.48,53.97c-3.4,1.96-8.97,1.96-12.37,0L15.05,179.8c-3.4-1.96-3.42-5.21-.04-7.21l92.21-54.61Z"></path>
  <path class="cls-23" d="m107.27,118.42c3.35-1.99,8.86-2.02,12.24-.07l94.11,54.33c3.38,1.95,3.38,5.14,0,7.09l-92.77,53.56c-3.38,1.95-8.9,1.95-12.28,0L15.8,179.77c-3.38-1.95-3.39-5.17-.04-7.16l91.51-54.2Z"></path>
  <path class="cls-19" d="m107.33,118.85c3.33-1.97,8.79-2,12.14-.07l93.39,53.92c3.35,1.93,3.35,5.1,0,7.03l-92.06,53.15c-3.35,1.93-8.83,1.93-12.18,0l-92.06-53.15c-3.35-1.93-3.37-5.13-.04-7.1l90.81-53.78Z"></path>
  <path class="cls-20" d="m107.39,119.29c3.3-1.96,8.73-1.99,12.05-.07l92.67,53.5c3.32,1.92,3.32,5.06,0,6.98l-91.35,52.74c-3.32,1.92-8.76,1.92-12.09,0l-91.35-52.74c-3.32-1.92-3.34-5.09-.04-7.05l90.11-53.37Z"></path>
  <path class="cls-21" d="m107.44,119.73c3.28-1.94,8.66-1.97,11.96-.07l91.95,53.09c3.3,1.9,3.3,5.02,0,6.93l-90.65,52.33c-3.3,1.9-8.7,1.9-12,0l-90.65-52.33c-3.3-1.9-3.32-5.05-.04-6.99l89.41-52.96Z"></path>
  <path class="cls-16" d="m107.5,120.17c3.25-1.93,8.59-1.96,11.86-.07l91.24,52.67c3.27,1.89,3.27,4.98,0,6.87l-89.94,51.93c-3.27,1.89-8.63,1.89-11.9,0l-89.94-51.93c-3.27-1.89-3.29-5.01-.04-6.94l88.72-52.54Z"></path>
  <path class="cls-17" d="m107.56,120.61c3.23-1.91,8.52-1.94,11.77-.07l90.52,52.26c3.25,1.88,3.25,4.94,0,6.82l-89.23,51.52c-3.25,1.87-8.56,1.87-11.81,0l-89.23-51.52c-3.25-1.87-3.26-4.97-.04-6.88l88.02-52.13Z"></path>
  <path class="cls-18" d="m107.61,121.05c3.2-1.9,8.46-1.92,11.68-.06l89.8,51.85c3.22,1.86,3.22,4.9,0,6.76l-88.52,51.11c-3.22,1.86-8.49,1.86-11.71,0l-88.52-51.11c-3.22-1.86-3.24-4.93-.04-6.83l87.32-51.72Z"></path>
  <path class="cls-29" d="m107.67,121.48c3.18-1.88,8.39-1.91,11.58-.06l89.08,51.43c3.2,1.85,3.2,4.86,0,6.71l-87.81,50.7c-3.2,1.84-8.42,1.84-11.62,0l-87.81-50.7c-3.2-1.84-3.21-4.89-.04-6.77l86.62-51.3Z"></path>
  <path class="cls-30" d="m107.73,121.92c3.15-1.86,8.32-1.89,11.49-.06l88.36,51.02c3.17,1.83,3.17,4.82,0,6.65l-87.1,50.29c-3.17,1.83-8.36,1.83-11.53,0l-87.1-50.29c-3.17-1.83-3.19-4.85-.04-6.72l85.92-50.89Z"></path>
  <path class="cls-6" d="m107.78,122.36c3.12-1.85,8.25-1.88,11.4-.06l87.64,50.6c3.14,1.82,3.14,4.79,0,6.6l-86.4,49.88c-3.14,1.82-8.29,1.82-11.43,0l-86.4-49.88c-3.14-1.82-3.16-4.81-.04-6.66l85.22-50.47Z"></path>
  <path class="cls-2" d="m107.61,106.99c3.78-2.24,9.97-2.27,13.77-.08l105.93,61.16c3.8,2.19,3.8,5.78,0,7.98l-104.42,60.29c-3.8,2.19-10.02,2.19-13.82,0L4.65,176.05c-3.8-2.19-3.82-5.82-.04-8.05l103-61Z"></path>
  <path class="cls-1" d="m227.31,168.07l-105.93-61.16c-3.8-2.19-10-2.16-13.77.08l-12.06,7.14,119.5,68.99,12.26-7.08c3.8-2.19,3.8-5.78,0-7.98Z"></path>
  <path class="cls-3" d="m121.27,118.21c1.53-.88,1.53-2.32,0-3.2-1.53-.88-4.03-.88-5.56,0-1.52.88-1.52,2.32,0,3.2,1.52.88,4.03.88,5.56,0Z"></path>
  <path class="cls-3" d="m130.16,123.87c1.53-.88,1.53-2.32,0-3.2-1.53-.88-4.03-.88-5.56,0-1.52.88-1.52,2.32,0,3.2,1.52.88,4.03.88,5.56,0Z"></path>
  <path class="cls-3" d="m139.05,129.23c1.53-.88,1.53-2.32,0-3.2s-4.03-.88-5.56,0c-1.52.88-1.52,2.32,0,3.2,1.52.88,4.03.88,5.56,0Z"></path>
  <path class="cls-8" d="m227.31,172.06l-104.42,60.29c-3.8,2.19-10.02,2.19-13.82,0L4.65,172.06c-1.03-.59-1.76-1.3-2.23-2.04-1.3,2.04-.56,4.42,2.23,6.03l104.42,60.29c3.8,2.19,10.02,2.19,13.82,0l104.42-60.29c2.79-1.61,3.51-3.97,2.2-5.98-.47.73-1.19,1.41-2.2,1.99Z"></path>
  <path class="cls-7" d="m74.16,147.07l2.78-4.19,24.44,6.14-2.98,4.49-16.07-4.16,9.99,13.33-3,4.52-15.14-20.14Z"></path>
  <path class="cls-7" d="m124.84,159.63l5.78,3.84-35.71,16.67-5.74-3.81,35.67-16.7Z"></path>
  <path class="cls-7" d="m147.54,189.77l-2.78,4.19-24.43-6.14,3-4.52,16.16,4.03-10.07-13.2,2.98-4.49,15.14,20.14Z"></path>
</svg>
