<?xml version="1.0" encoding="UTF-8"?>
<svg xmlns="http://www.w3.org/2000/svg" xmlns:xlink="http://www.w3.org/1999/xlink" viewBox="0 0 155.91 155.91">
  <defs>
    <style>.cls-1{mix-blend-mode:screen;opacity:.25;}.cls-1,.cls-2{fill:#fff;}.cls-3{fill:url(#linear-gradient);}.cls-4{fill:#043746;}.cls-5{fill:#e9edf6;}.cls-6{fill:#9e2a40;}.cls-7,.cls-8{fill:#e0395c;}.cls-9{fill:#211a45;}.cls-10{fill:url(#linear-gradient-2);}.cls-10,.cls-8{mix-blend-mode:multiply;}.cls-11{isolation:isolate;}</style>
    <linearGradient id="linear-gradient" x1="18.65" y1="106.41" x2="82.03" y2="106.41" gradientTransform="translate(4.76) skewX(7)" gradientUnits="userSpaceOnUse">
      <stop offset="0" stop-color="#003b4d"></stop>
      <stop offset=".55" stop-color="#476080"></stop>
      <stop offset="1" stop-color="#41607f"></stop>
    </linearGradient>
    <linearGradient id="linear-gradient-2" x1="37.79" y1="82.43" x2="98.54" y2="82.43" gradientUnits="userSpaceOnUse">
      <stop offset="0" stop-color="#3164ad"></stop>
      <stop offset="1" stop-color="#459ad5"></stop>
    </linearGradient>
  </defs>
  <g class="cls-11">
    <g id="Layer_1">
      <path class="cls-8" d="m76.81,28.08l71.64,41.98c6.66,3.9,6.63,13.53-.05,17.39l-41.15,23.77c-6.95,4.01-15.5,4.02-22.45.02L12.1,70.07c-6.71-3.85-6.73-13.52-.05-17.41l42.07-24.6c7.01-4.08,15.68-4.07,22.68.03Z"></path>
      <path class="cls-6" d="m12.1,65.92l72.68,41.18c6.95,4,15.51,3.99,22.45-.02l41.15-23.77c2.66-1.54,4.25-3.99,4.8-6.64.83,4.01-.76,8.46-4.8,10.79l-41.15,23.77c-6.95,4.01-15.5,4.02-22.45.02L12.1,70.07c-4.05-2.33-5.65-6.78-4.82-10.8.55,2.65,2.14,5.11,4.82,6.65Z"></path>
      <path class="cls-5" d="m57.56,59.44l-2.92-4.26c-.06-.08-.17-.15-.3-.18l-6.8-1.55c-.33-.08-.46-.35-.21-.46l5.05-2.31c.1-.05.15-.12.13-.21l-1.02-4.38c-.05-.22.31-.33.6-.19l6.03,2.83c.12.06.26.08.38.05l6.18-1.15c.3-.06.65.15.58.35l-1.32,4.06c-.03.08.02.17.11.24l4.83,3.67c.24.18.09.42-.24.4l-6.85-.32c-.13,0-.25.03-.31.1l-3.19,3.42c-.16.17-.59.11-.73-.1Z"></path>
      <path class="cls-5" d="m81.4,73.24l-2.92-4.26c-.06-.08-.17-.15-.3-.18l-6.8-1.55c-.33-.08-.46-.35-.21-.46l5.05-2.31c.1-.05.15-.12.13-.21l-1.02-4.38c-.05-.22.31-.33.6-.19l6.03,2.83c.12.06.26.08.38.05l6.18-1.15c.3-.06.65.15.58.35l-1.32,4.06c-.03.08.02.17.11.24l4.83,3.67c.24.18.09.42-.24.4l-6.85-.32c-.13,0-.25.03-.31.1l-3.19,3.42c-.16.17-.59.11-.73-.1Z"></path>
      <path class="cls-5" d="m105.25,87.03l-2.92-4.26c-.06-.08-.17-.15-.3-.18l-6.8-1.55c-.33-.08-.46-.35-.21-.46l5.05-2.31c.1-.05.15-.12.13-.21l-1.02-4.38c-.05-.22.31-.33.6-.19l6.03,2.83c.12.06.26.08.38.05l6.18-1.15c.3-.06.65.15.58.35l-1.32,4.06c-.03.08.02.17.11.24l4.83,3.67c.24.18.09.42-.24.4l-6.85-.32c-.13,0-.25.03-.31.1l-3.19,3.42c-.16.17-.59.11-.73-.1Z"></path>
      <path class="cls-4" d="m100.03,95.12v52.65c-.01,1.12-1.44,1.74-2.61,1.12l-4.54-2.39-51.28-26.93c-1.44-.75-2.33-2.08-2.32-3.45v-52.66c0-1.12,1.44-1.73,2.61-1.13l55.82,29.33c1.43.75,2.31,2.08,2.32,3.45Z"></path>
      <path class="cls-9" d="m100.03,95.12v5.87l-1.49.97-57.37-33.34-1.89-1.46v-3.7c0-1.12,1.44-1.73,2.61-1.13l55.82,29.33c1.43.75,2.31,2.08,2.32,3.45Z"></path>
      <path class="cls-3" d="m98.54,95.92v6.05s0,46.6,0,46.6c0,1.11-1.43,1.74-2.6,1.12l-4.53-2.39-51.29-26.92c-.32-.17-.61-.36-.87-.59-.91-.76-1.45-1.81-1.45-2.87v-52.66c.02-1.11,1.44-1.73,2.61-1.12l55.82,29.32c1.43.75,2.32,2.07,2.32,3.46Z"></path>
      <path class="cls-6" d="m89.37,116.45h0s-2.01,1.25-2.01,1.25l-.66-1.02c-.47-.13-.95-.33-1.46-.62-3.06-1.76-5.52-5.85-5.5-9.14,0-.28.03-.54.06-.79l-.7-1.07,1.85-1.13c.16-.12.33-.23.51-.31h.02s0,0,0,0c1-.45,2.36-.31,3.85.54,3.06,1.76,5.52,5.85,5.5,9.14-.01,1.54-.57,2.62-1.47,3.16Z"></path>
      <path class="cls-6" d="m77.74,123.53c0-1.17.26-2.23.69-3.1l-.26-.73s1.89-1.17,1.96-1.21l.24-.14c1.3-.69,2.99-.67,4.84.39,4.11,2.36,7.43,8.91,7.4,13.33l-2.15,1.33-4.79-4.45.95-.33-8.88-5.1Z"></path>
      <path class="cls-7" d="m83.19,105.48c3.06,1.76,5.52,5.85,5.5,9.14-.03,3.29-2.53,4.53-5.59,2.77-3.06-1.76-5.52-5.85-5.5-9.14.03-3.29,2.53-4.53,5.59-2.77Z"></path>
      <path class="cls-7" d="m83.05,120.08c4.11,2.36,7.43,8.91,7.4,13.32l-14.87-8.54c.03-4.41,3.37-7.15,7.47-4.79Z"></path>
      <path class="cls-10" d="m98.54,95.91v6.05s-60.76-32.1-60.76-32.1v-5.61c.02-1.11,1.44-1.73,2.61-1.12l55.82,29.32c1.43.75,2.32,2.07,2.32,3.46Z"></path>
      <path class="cls-1" d="m85.88,86.99l-46.64,32.79c-.91-.76-1.45-1.81-1.45-2.87v-52.66c.02-1.11,1.44-1.73,2.61-1.12l45.47,23.86Z"></path>
      <path class="cls-2" d="m82.07,91.59l-5.48-3c-.16-.09-.29-.27-.29-.41s.13-.18.29-.1l5.48,3c.16.09.29.27.29.41,0,.14-.13.19-.29.1Z"></path>
      <path class="cls-2" d="m95.04,98.68c-.09-.05-.17-.12-.22-.21l-3.5-5.63c-.1-.16-.08-.32.04-.34.12-.02.3.09.4.25l3.5,5.63c.1.16.08.31-.04.34-.05,0-.12,0-.18-.04Z"></path>
      <path class="cls-2" d="m91.53,96.76c-.06-.04-.13-.09-.19-.16-.12-.16-.14-.33-.03-.38l3.52-1.8c.11-.05.28.03.4.19.12.16.14.33.04.38l-3.52,1.8c-.06.03-.14.02-.22-.03Z"></path>
      <path class="cls-2" d="m86.65,94.11c-1.33-.73-2.41-2.27-2.41-3.45,0-1.17,1.09-1.54,2.42-.81,1.33.73,2.41,2.27,2.41,3.45,0,1.17-1.09,1.54-2.42.81Zm.01-3.75c-1.01-.55-1.84-.28-1.84.61,0,.9.82,2.07,1.83,2.62,1.01.56,1.84.28,1.84-.62,0-.89-.82-2.07-1.83-2.62Z"></path>
    </g>
  </g>
</svg>
