<?xml version="1.0" encoding="UTF-8"?>
<!-- Generator: Adobe Illustrator 27.3.1, SVG Export Plug-In . SVG Version: 6.00 Build 0)  -->
<svg xmlns="http://www.w3.org/2000/svg" xmlns:xlink="http://www.w3.org/1999/xlink" version="1.1" id="Layer_1" x="0px" y="0px" viewBox="0 0 249 301" style="enable-background:new 0 0 249 301;" xml:space="preserve">
<style type="text/css">
	.st0{fill:#E0395C;}
	.st1{fill:#FFFFFF;}
	.st2{fill:#FEFEFE;}
	.st3{fill:#FDFDFD;}
	.st4{fill:#FCFCFC;}
	.st5{fill:#FBFBFB;}
	.st6{fill:#FAFAFA;}
	.st7{fill:#F9F9FA;}
	.st8{fill:#F8F8F9;}
	.st9{fill:#F7F7F8;}
	.st10{fill:#F6F6F7;}
	.st11{fill:#F5F5F6;}
	.st12{fill:#F4F4F5;}
	.st13{fill:#F3F3F4;}
	.st14{fill:#F2F2F3;}
	.st15{fill:#F1F1F2;}
	.st16{fill:#F0F0F1;}
	.st17{fill:#EFEFF0;}
	.st18{fill:#EEEFF0;}
	.st19{fill:#EDEEEF;}
	.st20{fill:#ECEDEE;}
	.st21{fill:#EBECED;}
	.st22{fill:#EAEBEC;}
	.st23{fill:#E9EAEB;}
	.st24{fill:#E8E9EA;}
	.st25{fill:#E7E8E9;}
	.st26{fill:#E6E7E8;}
	.st27{fill:#E5E6E7;}
	.st28{fill:#E4E5E6;}
	.st29{fill:#E3E4E6;}
	.st30{fill:#E2E3E5;}
	.st31{fill:#E1E2E4;}
	.st32{fill:#E0E1E3;}
	.st33{fill:#DFE0E2;}
	.st34{fill:#DFDFE1;}
	.st35{fill:#DEDEE0;}
	.st36{fill:#DDDDDF;}
	.st37{fill:#DCDCDE;}
	.st38{fill:#DBDBDD;}
	.st39{fill:#DADADC;}
	.st40{fill:#D9D9DC;}
	.st41{fill:#D8D8DB;}
	.st42{fill:#D7D7DA;}
	.st43{fill:#D6D6D9;}
	.st44{fill:#D5D5D8;}
	.st45{fill:#D4D4D7;}
	.st46{fill:#D3D3D6;}
	.st47{fill:#D2D2D5;}
	.st48{fill:#D1D1D4;}
	.st49{fill:#D0D0D3;}
	.st50{fill:#CFCFD2;}
	.st51{fill:#CECFD2;}
	.st52{fill:#CDCED1;}
	.st53{fill:#CCCDD0;}
	.st54{fill:#CBCCCF;}
	.st55{fill:#CACBCE;}
	.st56{fill:#C9CACD;}
	.st57{fill:#C8C9CC;}
	.st58{fill:#C7C8CB;}
	.st59{fill:#C6C7CA;}
	.st60{fill:#C5C6C9;}
	.st61{fill:#C4C5C8;}
	.st62{fill:#C3C4C8;}
	.st63{fill:#C2C3C7;}
	.st64{fill:#C1C2C6;}
	.st65{fill:#C0C1C5;}
	.st66{fill:#BFC0C4;}
	.st67{fill:#BEBFC3;}
	.st68{fill:url(#SVGID_1_);}
	.st69{fill:#F6F5F8;}
	.st70{fill:url(#SVGID_00000004516044422360436910000014340534356236909960_);}
	.st71{fill:url(#SVGID_00000159466394747271481730000006849219633597353368_);}
	.st72{fill:#BEC8E5;}
	.st73{clip-path:url(#SVGID_00000181084104647995683830000014633765775878463880_);}
	.st74{fill:#435AA4;}
	.st75{fill:url(#SVGID_00000005972449326776077120000005840214730061365694_);}
	.st76{fill:url(#SVGID_00000147212596631636139160000007568911387612197786_);}
	.st77{fill:url(#SVGID_00000101067363718496354310000001006578293770406319_);}
	.st78{fill:url(#SVGID_00000132048348607773824120000013279237296591645843_);}
	.st79{fill:#EBEAEF;}
	.st80{fill:url(#SVGID_00000075148873833120677320000000868526392135338416_);}
	.st81{fill:url(#SVGID_00000085954828929340785890000002435907942201064328_);}
	.st82{fill:#585CA5;}
	.st83{fill:#232752;}
	.st84{fill:url(#SVGID_00000100352566447449914010000005036120282468764852_);}
</style>
<circle class="st0" cx="129.8" cy="184.2" r="113.2"></circle>
<g>
	<path class="st1" d="M126.8,259.1c1,0,2-0.2,2.8-0.7l30.6-16.8c1.3-0.7,2.1-2,2.1-3.3c0-1.3-0.7-2.6-2-3.3L97.6,199   c-0.8-0.5-1.8-0.7-2.8-0.7c-1,0-2,0.2-2.8,0.7l-30.6,16.8c-1.3,0.7-2.1,2-2.1,3.3c0,1.3,0.7,2.6,2,3.3l62.7,36.1   C124.8,258.8,125.8,259.1,126.8,259.1z"></path>
	<path class="st2" d="M61.4,215.7c-1.3,0.7-2.1,1.9-2.1,3.3c0,1.3,0.7,2.5,1.9,3.2l62.7,36.1c0.8,0.5,1.8,0.7,2.8,0.7   c1,0,2-0.3,2.8-0.7l30.6-16.7c1.3-0.7,2-1.9,2.1-3.3c0-1.3-0.7-2.5-1.9-3.2L97.6,199c-0.8-0.5-1.8-0.7-2.8-0.7c-1,0-2,0.2-2.8,0.7   L61.4,215.7z"></path>
	<path class="st3" d="M61.4,215.8c-1.3,0.7-2,1.9-2,3.2c0,1.3,0.7,2.5,1.9,3.2l62.7,36.1c0.8,0.5,1.8,0.7,2.8,0.7c1,0,2-0.3,2.8-0.7   l30.5-16.7c1.3-0.7,2-1.9,2-3.2c0-1.3-0.7-2.5-1.9-3.2l-62.7-36c-0.8-0.4-1.8-0.7-2.8-0.7c-1,0-2,0.2-2.8,0.7L61.4,215.8z"></path>
	<path class="st4" d="M61.5,215.8c-1.3,0.7-2,1.9-2,3.2c0,1.3,0.7,2.5,1.9,3.2l62.7,36.1c0.8,0.5,1.8,0.7,2.8,0.7c1,0,2-0.3,2.8-0.7   l30.5-16.7c1.3-0.7,2-1.9,2-3.2c0-1.3-0.7-2.5-1.9-3.2l-62.6-36c-0.8-0.4-1.8-0.7-2.8-0.7c-1,0-2,0.2-2.8,0.7L61.5,215.8z"></path>
	<path class="st5" d="M61.5,215.8c-1.2,0.7-2,1.9-2,3.2c0,1.3,0.7,2.4,1.9,3.1l62.7,36.1c0.8,0.5,1.8,0.7,2.8,0.7c1,0,2-0.3,2.8-0.7   l30.5-16.7c1.2-0.7,2-1.9,2-3.1c0-1.3-0.7-2.4-1.9-3.1l-62.6-36c-0.8-0.4-1.8-0.7-2.8-0.7c-1,0-2,0.2-2.8,0.6L61.5,215.8z"></path>
	<path class="st6" d="M61.5,215.9c-1.2,0.7-2,1.8-2,3.1c0,1.3,0.7,2.4,1.9,3.1l62.7,36.1c0.8,0.5,1.8,0.7,2.8,0.7   c0.9,0,2-0.3,2.7-0.7l30.4-16.7c1.2-0.7,2-1.8,2-3.1c0-1.3-0.7-2.4-1.9-3.1l-62.6-36c-0.7-0.4-1.8-0.8-2.8-0.8c-1,0-2,0.2-2.8,0.6   L61.5,215.9z"></path>
	<path class="st7" d="M61.5,215.9c-1.2,0.7-1.9,1.8-1.9,3.1c0,1.2,0.7,2.4,1.8,3.1l62.7,36.1c0.8,0.5,1.8,0.7,2.8,0.6   c0.9,0,2-0.3,2.7-0.7l30.4-16.6c1.2-0.7,1.9-1.8,2-3.1c0-1.2-0.7-2.4-1.8-3.1l-62.5-36c-0.7-0.4-1.8-0.8-2.8-0.8   c-1,0-2,0.2-2.8,0.6L61.5,215.9z"></path>
	<path class="st8" d="M61.5,216c-1.2,0.7-1.9,1.8-1.9,3c0,1.2,0.7,2.3,1.8,3l62.7,36.1c0.8,0.5,1.8,0.7,2.8,0.6c0.9,0,2-0.3,2.7-0.7   l30.3-16.6c1.2-0.7,1.9-1.8,1.9-3c0-1.2-0.7-2.3-1.8-3l-62.5-35.9c-0.7-0.4-1.8-0.8-2.7-0.8c-1,0-2,0.2-2.8,0.6L61.5,216z"></path>
	<path class="st9" d="M61.6,216c-1.2,0.7-1.9,1.8-1.9,3c0,1.2,0.7,2.3,1.8,3l62.7,36.1c0.8,0.5,1.8,0.7,2.8,0.6c0.9,0,2-0.4,2.7-0.8   l30.3-16.6c1.2-0.7,1.9-1.8,1.9-3c0-1.2-0.7-2.3-1.8-3l-62.5-35.9c-0.7-0.4-1.8-0.8-2.7-0.8c-1-0.1-2,0.2-2.8,0.6L61.6,216z"></path>
	<path class="st10" d="M61.6,216c-1.2,0.7-1.9,1.8-1.9,3c0,1.2,0.6,2.3,1.8,2.9l62.7,36.1c0.8,0.5,1.8,0.7,2.8,0.6   c0.9,0,2-0.4,2.7-0.8l30.3-16.6c1.2-0.6,1.9-1.8,1.9-3c0-1.2-0.6-2.3-1.8-2.9l-62.4-35.9c-0.7-0.4-1.8-0.8-2.7-0.8   c-1-0.1-2,0.1-2.8,0.6L61.6,216z"></path>
	<path class="st11" d="M61.6,216.1c-1.2,0.6-1.8,1.7-1.9,2.9c0,1.2,0.6,2.3,1.7,2.9l62.7,36.1c0.8,0.5,1.8,0.7,2.8,0.6   c0.9,0,2-0.4,2.7-0.8l30.2-16.6c1.2-0.6,1.8-1.7,1.9-2.9c0-1.2-0.6-2.3-1.7-2.9l-62.4-35.9c-0.7-0.4-1.9-0.8-2.7-0.8   c-1-0.1-2,0.1-2.8,0.6L61.6,216.1z"></path>
	<path class="st12" d="M61.6,216.1c-1.1,0.6-1.8,1.7-1.8,2.9c0,1.2,0.6,2.2,1.7,2.9l62.7,36.1c0.8,0.5,1.8,0.7,2.8,0.6   c0.8,0,2-0.4,2.7-0.8l30.2-16.5c1.1-0.6,1.8-1.7,1.8-2.9c0-1.2-0.6-2.2-1.7-2.9l-62.4-35.9c-0.7-0.4-1.9-0.8-2.7-0.8   c-1-0.1-2,0.1-2.8,0.6L61.6,216.1z"></path>
	<path class="st13" d="M61.7,216.2c-1.1,0.6-1.8,1.7-1.8,2.8c0,1.1,0.6,2.2,1.7,2.8l62.7,36.1c0.8,0.5,1.8,0.7,2.8,0.6   c0.8,0,2-0.4,2.7-0.8l30.2-16.5c1.1-0.6,1.8-1.7,1.8-2.8c0-1.1-0.6-2.2-1.7-2.8l-62.3-35.8c-0.7-0.4-1.9-0.8-2.7-0.8   c-1-0.1-2,0.1-2.8,0.6L61.7,216.2z"></path>
	<path class="st14" d="M61.7,216.2c-1.1,0.6-1.8,1.7-1.8,2.8c0,1.1,0.6,2.2,1.7,2.8l62.7,36.1c0.8,0.5,1.8,0.7,2.8,0.6   c0.8,0,2-0.4,2.7-0.8l30.1-16.5c1.1-0.6,1.8-1.7,1.8-2.8c0-1.1-0.6-2.2-1.7-2.8l-62.3-35.8c-0.6-0.4-1.9-0.8-2.7-0.8   c-1-0.1-2,0.1-2.8,0.6L61.7,216.2z"></path>
	<path class="st15" d="M61.7,216.2c-1.1,0.6-1.8,1.6-1.8,2.8c0,1.1,0.6,2.1,1.7,2.7l62.7,36.1c0.8,0.5,1.8,0.6,2.8,0.6   c0.8,0,2-0.5,2.7-0.8l30.1-16.5c1.1-0.6,1.8-1.6,1.8-2.8c0-1.1-0.6-2.1-1.7-2.7l-62.2-35.8c-0.6-0.4-1.9-0.9-2.7-0.9   c-1-0.1-2,0.1-2.8,0.5L61.7,216.2z"></path>
	<path class="st16" d="M61.7,216.3c-1.1,0.6-1.7,1.6-1.7,2.7c0,1.1,0.6,2.1,1.6,2.7l62.7,36.1c0.8,0.5,1.8,0.6,2.8,0.5   c0.8,0,2.1-0.5,2.7-0.8l30.1-16.5c1.1-0.6,1.7-1.6,1.7-2.7c0-1.1-0.6-2.1-1.6-2.7l-62.2-35.8c-0.6-0.4-1.9-0.9-2.7-0.9   c-1-0.1-2,0.1-2.8,0.5L61.7,216.3z"></path>
	<path class="st17" d="M61.7,216.3c-1.1,0.6-1.7,1.6-1.7,2.7c0,1.1,0.6,2.1,1.6,2.7l62.7,36.1c0.8,0.5,1.8,0.6,2.8,0.5   c0.8,0,2.1-0.5,2.7-0.8l30-16.4c1.1-0.6,1.7-1.6,1.7-2.7c0-1.1-0.6-2.1-1.6-2.7l-62.2-35.8c-0.6-0.4-1.9-0.9-2.7-0.9   c-0.9-0.1-2,0.1-2.8,0.5L61.7,216.3z"></path>
	<path class="st18" d="M61.8,216.3c-1.1,0.6-1.7,1.6-1.7,2.7c0,1.1,0.6,2,1.6,2.6l62.7,36.1c0.8,0.5,1.8,0.6,2.8,0.5   c0.8,0,2.1-0.5,2.7-0.8l30-16.4c1.1-0.6,1.7-1.6,1.7-2.7c0-1.1-0.6-2-1.6-2.6L97.8,200c-0.6-0.3-1.9-0.9-2.7-0.9   c-0.9-0.1-2,0.1-2.8,0.5L61.8,216.3z"></path>
	<path class="st19" d="M61.8,216.4c-1,0.6-1.7,1.6-1.7,2.6c0,1,0.6,2,1.6,2.6l62.7,36.1c0.8,0.5,1.8,0.6,2.8,0.5   c0.7,0,2.1-0.5,2.7-0.8l30-16.4c1-0.6,1.7-1.6,1.7-2.6c0-1-0.6-2-1.6-2.6L97.8,200c-0.6-0.3-1.9-0.9-2.7-0.9   c-0.9-0.1-2,0.1-2.8,0.5L61.8,216.4z"></path>
	<path class="st20" d="M61.8,216.4c-1,0.6-1.6,1.5-1.7,2.6c0,1,0.6,2,1.6,2.6l62.7,36.1c0.8,0.5,1.8,0.6,2.8,0.5   c0.7,0,2.1-0.5,2.7-0.9l29.9-16.4c1-0.6,1.6-1.5,1.7-2.6c0-1-0.6-2-1.6-2.6l-62.1-35.7c-0.6-0.3-1.9-0.9-2.7-0.9   c-0.9-0.1-2,0-2.8,0.5L61.8,216.4z"></path>
	<path class="st21" d="M61.8,216.5c-1,0.6-1.6,1.5-1.6,2.5c0,1,0.6,1.9,1.5,2.5l62.7,36.1c0.8,0.5,1.8,0.6,2.8,0.5   c0.7,0,2.1-0.6,2.6-0.9l29.9-16.4c1-0.6,1.6-1.5,1.6-2.5c0-1-0.6-1.9-1.5-2.5l-62-35.7c-0.6-0.3-2-0.9-2.7-0.9   c-0.9-0.1-2,0-2.8,0.5L61.8,216.5z"></path>
	<path class="st22" d="M61.8,216.5c-1,0.6-1.6,1.5-1.6,2.5c0,1,0.5,1.9,1.5,2.5l62.7,36.1c0.8,0.5,1.8,0.6,2.8,0.5   c0.7,0,2.1-0.6,2.6-0.9l29.8-16.3c1-0.6,1.6-1.5,1.6-2.5c0-1-0.5-1.9-1.5-2.5l-62-35.7c-0.5-0.3-2-0.9-2.7-0.9   c-0.9-0.1-2,0-2.8,0.5L61.8,216.5z"></path>
	<path class="st23" d="M61.9,216.5c-1,0.6-1.6,1.5-1.6,2.5c0,1,0.5,1.9,1.5,2.4l62.7,36.1c0.8,0.5,1.8,0.6,2.8,0.5   c0.7,0,2.1-0.6,2.6-0.9l29.8-16.3c1-0.6,1.6-1.5,1.6-2.5c0-1-0.5-1.9-1.5-2.4l-62-35.6c-0.5-0.3-2-0.9-2.7-0.9   c-0.9-0.1-2,0-2.8,0.5L61.9,216.5z"></path>
	<path class="st24" d="M61.9,216.6c-1,0.5-1.6,1.4-1.6,2.4c0,1,0.5,1.9,1.5,2.4l62.7,36.1c0.8,0.5,1.8,0.6,2.8,0.5   c0.7,0,2.1-0.6,2.6-0.9l29.8-16.3c1-0.5,1.6-1.4,1.6-2.4c0-1-0.5-1.9-1.5-2.4l-61.9-35.6c-0.5-0.3-2-0.9-2.6-0.9   c-0.9-0.1-2,0-2.8,0.5L61.9,216.6z"></path>
	<path class="st25" d="M61.9,216.6c-1,0.5-1.5,1.4-1.5,2.4c0,0.9,0.5,1.8,1.4,2.4l62.7,36.1c0.8,0.4,1.8,0.6,2.8,0.4   c0.6,0,2.1-0.6,2.6-0.9l29.7-16.3c1-0.5,1.5-1.4,1.5-2.4c0-0.9-0.5-1.8-1.4-2.4l-61.9-35.6c-0.5-0.3-2-1-2.6-1   c-0.9-0.2-2,0-2.8,0.4L61.9,216.6z"></path>
	<path class="st26" d="M61.9,216.7c-0.9,0.5-1.5,1.4-1.5,2.3c0,0.9,0.5,1.8,1.4,2.3l62.7,36.1c0.8,0.4,1.8,0.6,2.8,0.4   c0.6,0,2.1-0.6,2.6-0.9l29.7-16.3c0.9-0.5,1.5-1.4,1.5-2.3c0-0.9-0.5-1.8-1.4-2.3l-61.8-35.6c-0.5-0.3-2-1-2.6-1   c-0.9-0.2-2,0-2.8,0.4L61.9,216.7z"></path>
	<path class="st27" d="M62,216.7c-0.9,0.5-1.5,1.4-1.5,2.3c0,0.9,0.5,1.8,1.4,2.3l62.7,36.1c0.8,0.4,1.8,0.6,2.8,0.4   c0.6,0,2.1-0.6,2.6-0.9l29.7-16.3c0.9-0.5,1.5-1.4,1.5-2.3c0-0.9-0.5-1.8-1.4-2.3l-61.8-35.5c-0.5-0.3-2-1-2.6-1   c-0.9-0.2-2,0-2.8,0.4L62,216.7z"></path>
	<path class="st28" d="M62,216.7c-0.9,0.5-1.5,1.4-1.5,2.3c0,0.9,0.5,1.7,1.4,2.2l62.7,36.1c0.8,0.4,1.8,0.6,2.8,0.4   c0.6,0,2.1-0.7,2.6-0.9l29.6-16.2c0.9-0.5,1.5-1.4,1.5-2.3c0-0.9-0.5-1.7-1.4-2.3l-61.8-35.5c-0.5-0.3-2-1-2.6-1   c-0.9-0.2-2,0-2.8,0.4L62,216.7z"></path>
	<path class="st29" d="M62,216.8c-0.9,0.5-1.4,1.3-1.5,2.2c0,0.9,0.5,1.7,1.4,2.2l62.7,36.1c0.8,0.4,1.8,0.6,2.8,0.4   c0.6,0,2.1-0.7,2.6-0.9l29.6-16.2c0.9-0.5,1.4-1.3,1.5-2.2c0-0.9-0.5-1.7-1.4-2.2L98,200.6c-0.5-0.3-2-1-2.6-1   c-0.9-0.2-2,0-2.8,0.4L62,216.8z"></path>
	<path class="st30" d="M62,216.8c-0.9,0.5-1.4,1.3-1.4,2.2c0,0.9,0.5,1.7,1.3,2.2l62.7,36.1c0.8,0.4,1.8,0.6,2.7,0.4   c0.6,0,2.1-0.7,2.6-0.9l29.6-16.2c0.9-0.5,1.4-1.3,1.4-2.2c0-0.9-0.5-1.7-1.3-2.2L98,200.7c-0.4-0.3-2-1-2.6-1   c-0.9-0.2-2-0.1-2.7,0.4L62,216.8z"></path>
	<path class="st31" d="M62,216.8c-0.9,0.5-1.4,1.3-1.4,2.2c0,0.9,0.5,1.6,1.3,2.1l62.7,36.1c0.8,0.4,1.8,0.6,2.7,0.4   c0.6,0,2.1-0.7,2.6-1l29.5-16.2c0.9-0.5,1.4-1.3,1.4-2.2c0-0.9-0.5-1.6-1.3-2.1L98,200.7c-0.4-0.3-2-1-2.6-1   c-0.9-0.2-2-0.1-2.7,0.4L62,216.8z"></path>
	<path class="st32" d="M62.1,216.9c-0.9,0.5-1.4,1.3-1.4,2.1c0,0.8,0.5,1.6,1.3,2.1l62.7,36.1c0.8,0.4,1.8,0.6,2.7,0.4   c0.5,0,2.1-0.7,2.6-1l29.5-16.2c0.9-0.5,1.4-1.3,1.4-2.1c0-0.8-0.5-1.6-1.3-2.1L98,200.8c-0.4-0.2-2.1-1-2.6-1   c-0.9-0.2-2-0.1-2.7,0.4L62.1,216.9z"></path>
	<path class="st33" d="M62.1,216.9c-0.9,0.5-1.4,1.2-1.4,2.1c0,0.8,0.5,1.6,1.3,2.1l62.7,36.1c0.8,0.4,1.8,0.6,2.7,0.4   c0.5,0,2.1-0.7,2.6-1l29.5-16.1c0.9-0.5,1.4-1.2,1.4-2.1c0-0.8-0.5-1.6-1.3-2.1L98,200.8c-0.4-0.2-2.1-1-2.6-1   c-0.9-0.2-2-0.1-2.7,0.4L62.1,216.9z"></path>
	<path class="st34" d="M62.1,217c-0.8,0.5-1.3,1.2-1.3,2c0,0.8,0.4,1.6,1.2,2l62.7,36.1c0.8,0.4,1.8,0.6,2.7,0.4   c0.5,0,2.2-0.8,2.6-1l29.4-16.1c0.8-0.5,1.3-1.2,1.3-2c0-0.8-0.4-1.6-1.2-2L98,200.9c-0.4-0.2-2.1-1-2.6-1c-0.9-0.2-2-0.1-2.7,0.3   L62.1,217z"></path>
	<path class="st35" d="M62.1,217c-0.8,0.5-1.3,1.2-1.3,2c0,0.8,0.4,1.5,1.2,2l62.7,36.1c0.8,0.4,1.8,0.6,2.7,0.3   c0.5,0,2.2-0.8,2.5-1l29.4-16.1c0.8-0.5,1.3-1.2,1.3-2c0-0.8-0.4-1.5-1.2-2L98,201c-0.4-0.2-2.1-1.1-2.6-1.1   c-0.9-0.2-2-0.1-2.7,0.3L62.1,217z"></path>
	<path class="st36" d="M62.1,217c-0.8,0.5-1.3,1.2-1.3,2c0,0.8,0.4,1.5,1.2,1.9l62.7,36.1c0.8,0.4,1.9,0.6,2.7,0.3   c0.5,0,2.2-0.8,2.5-1l29.4-16.1c0.8-0.5,1.3-1.2,1.3-2c0-0.8-0.4-1.5-1.2-1.9L98.1,201c-0.4-0.2-2.1-1.1-2.6-1.1   c-0.9-0.2-2-0.1-2.7,0.3L62.1,217z"></path>
	<path class="st37" d="M62.2,217.1c-0.8,0.4-1.3,1.2-1.3,1.9c0,0.8,0.4,1.5,1.2,1.9l62.7,36.1c0.8,0.4,1.9,0.6,2.7,0.3   c0.5,0,2.2-0.8,2.5-1l29.3-16.1c0.8-0.4,1.3-1.2,1.3-1.9c0-0.8-0.4-1.5-1.2-1.9l-61.4-35.3c-0.4-0.2-2.1-1.1-2.6-1.1   c-0.9-0.2-2-0.1-2.7,0.3L62.2,217.1z"></path>
	<path class="st38" d="M62.2,217.1c-0.8,0.4-1.2,1.1-1.2,1.9c0,0.7,0.4,1.4,1.2,1.9l62.7,36.1c0.8,0.4,1.9,0.5,2.7,0.3   c0.4,0,2.2-0.8,2.5-1l29.3-16c0.8-0.4,1.2-1.1,1.3-1.9c0-0.7-0.4-1.4-1.2-1.9l-61.4-35.3c-0.4-0.2-2.1-1.1-2.6-1.1   c-0.9-0.2-2-0.1-2.7,0.3L62.2,217.1z"></path>
	<path class="st39" d="M62.2,217.2c-0.8,0.4-1.2,1.1-1.2,1.8c0,0.7,0.4,1.4,1.1,1.8l62.7,36.1c0.8,0.4,1.9,0.5,2.7,0.3   c0.4,0,2.2-0.8,2.5-1l29.2-16c0.8-0.4,1.2-1.1,1.2-1.8c0-0.7-0.4-1.4-1.1-1.8l-61.4-35.3c-0.3-0.2-2.1-1.1-2.6-1.1   c-0.8-0.2-2-0.1-2.7,0.3L62.2,217.2z"></path>
	<path class="st40" d="M62.2,217.2c-0.8,0.4-1.2,1.1-1.2,1.8c0,0.7,0.4,1.4,1.1,1.8l62.7,36.1c0.8,0.4,1.9,0.5,2.7,0.3   c0.4,0,2.2-0.9,2.5-1l29.2-16c0.8-0.4,1.2-1.1,1.2-1.8c0-0.7-0.4-1.4-1.1-1.8l-61.3-35.3c-0.3-0.2-2.1-1.1-2.6-1.1   c-0.8-0.2-2-0.2-2.7,0.3L62.2,217.2z"></path>
	<path class="st41" d="M62.3,217.2c-0.7,0.4-1.2,1.1-1.2,1.8c0,0.7,0.4,1.3,1.1,1.8l62.7,36.1c0.8,0.4,1.9,0.5,2.7,0.3   c0.4,0,2.2-0.9,2.5-1l29.2-16c0.7-0.4,1.2-1.1,1.2-1.8c0-0.7-0.4-1.3-1.1-1.8l-61.3-35.3c-0.3-0.2-2.1-1.1-2.5-1.1   c-0.8-0.3-2-0.2-2.7,0.3L62.3,217.2z"></path>
	<path class="st42" d="M62.3,217.3c-0.7,0.4-1.1,1-1.2,1.7c0,0.7,0.4,1.3,1.1,1.7l62.7,36.1c0.8,0.4,1.9,0.5,2.7,0.3   c0.4,0,2.2-0.9,2.5-1.1l29.1-16c0.7-0.4,1.1-1,1.2-1.7c0-0.7-0.4-1.3-1.1-1.7l-61.3-35.2c-0.3-0.2-2.2-1.1-2.5-1.1   c-0.8-0.3-2-0.2-2.7,0.3L62.3,217.3z"></path>
	<path class="st43" d="M62.3,217.3c-0.7,0.4-1.1,1-1.1,1.7c0,0.7,0.4,1.3,1,1.7l62.7,36.1c0.8,0.4,1.9,0.5,2.7,0.3   c0.4,0,2.2-0.9,2.5-1.1l29.1-15.9c0.7-0.4,1.1-1,1.1-1.7c0-0.7-0.4-1.3-1-1.7l-61.2-35.2c-0.3-0.2-2.2-1.1-2.5-1.1   c-0.8-0.3-2-0.2-2.7,0.3L62.3,217.3z"></path>
	<path class="st44" d="M62.3,217.3c-0.7,0.4-1.1,1-1.1,1.7c0,0.6,0.4,1.2,1,1.6l62.7,36.1c0.7,0.4,1.9,0.5,2.7,0.2   c0.4,0,2.2-0.9,2.5-1.1l29.1-15.9c0.7-0.4,1.1-1,1.1-1.7c0-0.6-0.4-1.2-1-1.6l-61.2-35.2c-0.3-0.2-2.2-1.1-2.5-1.1   c-0.8-0.3-1.9-0.2-2.7,0.2L62.3,217.3z"></path>
	<path class="st45" d="M62.3,217.4c-0.7,0.4-1.1,1-1.1,1.6c0,0.6,0.4,1.2,1,1.6l62.7,36.1c0.7,0.4,1.9,0.5,2.7,0.2   c0.3,0,2.2-0.9,2.5-1.1l29-15.9c0.7-0.4,1.1-1,1.1-1.6c0-0.6-0.4-1.2-1-1.6l-61.2-35.2c-0.3-0.2-2.2-1.2-2.5-1.2   c-0.8-0.3-1.9-0.2-2.7,0.2L62.3,217.4z"></path>
	<path class="st46" d="M62.4,217.4c-0.7,0.4-1.1,1-1.1,1.6c0,0.6,0.3,1.2,1,1.6l62.7,36.1c0.7,0.4,1.9,0.5,2.7,0.2   c0.3,0,2.2-0.9,2.5-1.1l29-15.9c0.7-0.4,1.1-1,1.1-1.6c0-0.6-0.3-1.2-1-1.6l-61.1-35.2c-0.3-0.1-2.2-1.2-2.5-1.2   c-0.8-0.3-1.9-0.2-2.7,0.2L62.4,217.4z"></path>
	<path class="st47" d="M62.4,217.5c-0.7,0.4-1,0.9-1,1.5c0,0.6,0.3,1.2,1,1.5l62.7,36.1c0.7,0.4,1.9,0.5,2.7,0.2   c0.3,0,2.2-1,2.5-1.1l29-15.9c0.7-0.4,1-0.9,1-1.5c0-0.6-0.3-1.2-1-1.5l-61.1-35.1c-0.2-0.1-2.2-1.2-2.5-1.2   c-0.8-0.3-1.9-0.2-2.7,0.2L62.4,217.5z"></path>
	<path class="st48" d="M62.4,217.5c-0.6,0.4-1,0.9-1,1.5c0,0.6,0.3,1.1,0.9,1.5l62.7,36.1c0.7,0.4,1.9,0.5,2.7,0.2   c0.3,0,2.2-1,2.5-1.1l28.9-15.8c0.6-0.4,1-0.9,1-1.5c0-0.6-0.3-1.1-0.9-1.5l-61-35.1c-0.2-0.1-2.2-1.2-2.5-1.2   c-0.8-0.3-1.9-0.2-2.7,0.2L62.4,217.5z"></path>
	<path class="st49" d="M62.4,217.5c-0.6,0.4-1,0.9-1,1.5c0,0.6,0.3,1.1,0.9,1.4l62.7,36.1c0.7,0.4,1.9,0.5,2.7,0.2   c0.3,0,2.2-1,2.5-1.1l28.9-15.8c0.6-0.4,1-0.9,1-1.5c0-0.6-0.3-1.1-0.9-1.4l-61-35.1c-0.2-0.1-2.2-1.2-2.5-1.2   c-0.8-0.3-1.9-0.2-2.7,0.2L62.4,217.5z"></path>
	<path class="st50" d="M62.4,217.6c-0.6,0.3-1,0.9-1,1.4c0,0.5,0.3,1.1,0.9,1.4l62.7,36.1c0.7,0.4,1.9,0.5,2.7,0.2   c0.3,0,2.2-1,2.4-1.1l28.9-15.8c0.6-0.3,1-0.9,1-1.4c0-0.5-0.3-1.1-0.9-1.4l-61-35.1c-0.2-0.1-2.2-1.2-2.5-1.2   c-0.8-0.3-1.9-0.3-2.7,0.2L62.4,217.6z"></path>
	<path class="st51" d="M62.5,217.6c-0.6,0.3-0.9,0.9-1,1.4c0,0.5,0.3,1,0.9,1.4l62.7,36.1c0.7,0.4,1.9,0.5,2.7,0.2   c0.2,0,2.2-1,2.4-1.1l28.8-15.8c0.6-0.3,0.9-0.9,1-1.4c0-0.5-0.3-1-0.9-1.4l-60.9-35.1c-0.2-0.1-2.2-1.2-2.5-1.2   c-0.8-0.3-1.9-0.3-2.7,0.2L62.5,217.6z"></path>
	<path class="st52" d="M62.5,217.7c-0.6,0.3-0.9,0.8-0.9,1.4c0,0.5,0.3,1,0.9,1.3l62.7,36.1c0.7,0.4,1.9,0.5,2.7,0.2   c0.2,0,2.2-1,2.4-1.1l28.8-15.8c0.6-0.3,0.9-0.8,0.9-1.4c0-0.5-0.3-1-0.9-1.3l-60.9-35c-0.2-0.1-2.2-1.2-2.5-1.2   c-0.8-0.3-1.9-0.3-2.7,0.2L62.5,217.7z"></path>
	<path class="st53" d="M62.5,217.7c-0.6,0.3-0.9,0.8-0.9,1.3c0,0.5,0.3,1,0.8,1.3l62.7,36.1c0.7,0.4,1.9,0.5,2.7,0.1   c0.2,0,2.3-1.1,2.4-1.2l28.8-15.7c0.6-0.3,0.9-0.8,0.9-1.3c0-0.5-0.3-1-0.8-1.3l-60.9-35c-0.2-0.1-2.3-1.2-2.5-1.2   c-0.8-0.3-1.9-0.3-2.7,0.2L62.5,217.7z"></path>
	<path class="st54" d="M62.5,217.7c-0.6,0.3-0.9,0.8-0.9,1.3c0,0.5,0.3,0.9,0.8,1.3l62.7,36.1c0.7,0.4,1.9,0.5,2.7,0.1   c0.2,0,2.3-1.1,2.4-1.2l28.7-15.7c0.6-0.3,0.9-0.8,0.9-1.3c0-0.5-0.3-0.9-0.8-1.3l-60.8-35c-0.2-0.1-2.3-1.2-2.5-1.2   c-0.8-0.3-1.9-0.3-2.7,0.1L62.5,217.7z"></path>
	<path class="st55" d="M62.6,217.8c-0.6,0.3-0.9,0.8-0.9,1.2c0,0.5,0.3,0.9,0.8,1.2l62.7,36.1c0.7,0.4,1.9,0.5,2.7,0.1   c0.2,0,2.3-1.1,2.4-1.2l28.7-15.7c0.6-0.3,0.9-0.8,0.9-1.2c0-0.5-0.3-0.9-0.8-1.2l-60.8-35c-0.1-0.1-2.3-1.3-2.5-1.3   c-0.8-0.3-1.9-0.3-2.7,0.1L62.6,217.8z"></path>
	<path class="st56" d="M62.6,217.8c-0.5,0.3-0.8,0.7-0.8,1.2c0,0.5,0.3,0.9,0.8,1.2l62.7,36.1c0.7,0.4,1.9,0.5,2.7,0.1   c0.2,0,2.3-1.1,2.4-1.2l28.6-15.7c0.5-0.3,0.8-0.7,0.8-1.2c0-0.5-0.3-0.9-0.8-1.2l-60.8-34.9c-0.1-0.1-2.3-1.3-2.5-1.3   c-0.8-0.4-1.9-0.3-2.7,0.1L62.6,217.8z"></path>
	<path class="st57" d="M62.6,217.8c-0.5,0.3-0.8,0.7-0.8,1.2c0,0.4,0.2,0.9,0.7,1.1l62.7,36.1c0.7,0.4,1.9,0.5,2.7,0.1   c0.2,0,2.3-1.1,2.4-1.2l28.6-15.7c0.5-0.3,0.8-0.7,0.8-1.2c0-0.4-0.2-0.9-0.7-1.1l-60.7-34.9c-0.1-0.1-2.3-1.3-2.4-1.3   c-0.8-0.4-1.9-0.3-2.7,0.1L62.6,217.8z"></path>
	<path class="st58" d="M62.6,217.9c-0.5,0.3-0.8,0.7-0.8,1.1c0,0.4,0.2,0.8,0.7,1.1l62.7,36.1c0.7,0.4,1.9,0.5,2.7,0.1   c0.1,0,2.3-1.1,2.4-1.2l28.6-15.7c0.5-0.3,0.8-0.7,0.8-1.1c0-0.4-0.2-0.8-0.7-1.1l-60.7-34.9c-0.1-0.1-2.3-1.3-2.4-1.3   c-0.8-0.4-1.9-0.3-2.7,0.1L62.6,217.9z"></path>
	<path class="st59" d="M62.6,217.9c-0.5,0.3-0.8,0.7-0.8,1.1c0,0.4,0.2,0.8,0.7,1.1l62.7,36.1c0.7,0.4,1.9,0.5,2.7,0.1   c0.1,0,2.3-1.1,2.4-1.2l28.5-15.6c0.5-0.3,0.8-0.7,0.8-1.1c0-0.4-0.2-0.8-0.7-1.1l-60.6-34.9c-0.1-0.1-2.3-1.3-2.4-1.3   c-0.8-0.4-1.9-0.3-2.7,0.1L62.6,217.9z"></path>
	<path class="st60" d="M62.7,218c-0.5,0.3-0.7,0.7-0.8,1c0,0.4,0.2,0.8,0.7,1l62.7,36.1c0.7,0.4,1.9,0.5,2.7,0.1   c0.1,0,2.3-1.2,2.4-1.2l28.5-15.6c0.5-0.3,0.7-0.7,0.8-1c0-0.4-0.2-0.8-0.7-1l-60.6-34.9c-0.1,0-2.3-1.3-2.4-1.3   c-0.8-0.4-1.9-0.4-2.7,0.1L62.7,218z"></path>
	<path class="st61" d="M62.7,218c-0.5,0.3-0.7,0.6-0.7,1c0,0.4,0.2,0.7,0.7,1l62.7,36.1c0.7,0.4,1.9,0.4,2.7,0.1   c0.1,0,2.3-1.2,2.4-1.2l28.5-15.6c0.5-0.3,0.7-0.6,0.7-1c0-0.4-0.2-0.7-0.7-1l-60.6-34.8c-0.1,0-2.3-1.3-2.4-1.3   c-0.8-0.4-1.9-0.4-2.7,0.1L62.7,218z"></path>
	<path class="st62" d="M62.7,218c-0.5,0.3-0.7,0.6-0.7,1c0,0.4,0.2,0.7,0.6,0.9l62.7,36.1c0.7,0.4,1.9,0.4,2.7,0   c0.1,0,2.3-1.2,2.4-1.2l28.4-15.6c0.5-0.3,0.7-0.6,0.7-1c0-0.4-0.2-0.7-0.6-0.9l-60.5-34.8c-0.1,0-2.3-1.3-2.4-1.3   c-0.7-0.4-1.9-0.4-2.7,0.1L62.7,218z"></path>
	<path class="st63" d="M62.7,218.1c-0.4,0.2-0.7,0.6-0.7,0.9c0,0.3,0.2,0.7,0.6,0.9l62.7,36.1c0.7,0.4,1.9,0.4,2.7,0   c0.1,0,2.3-1.2,2.4-1.2l28.4-15.6c0.4-0.2,0.7-0.6,0.7-0.9c0-0.3-0.2-0.7-0.6-0.9l-60.5-34.8c0,0-2.4-1.3-2.4-1.3   c-0.7-0.4-1.9-0.4-2.7,0L62.7,218.1z"></path>
	<path class="st64" d="M62.7,218.1c-0.4,0.2-0.7,0.6-0.7,0.9c0,0.3,0.2,0.6,0.6,0.9l62.7,36.1c0.7,0.4,1.9,0.4,2.7,0   c0,0,2.3-1.2,2.3-1.2l28.4-15.5c0.4-0.2,0.7-0.6,0.7-0.9c0-0.3-0.2-0.6-0.6-0.9l-60.5-34.8c0,0-2.4-1.3-2.4-1.3   c-0.7-0.4-1.9-0.4-2.7,0L62.7,218.1z"></path>
	<path class="st65" d="M62.8,218.2c-0.4,0.2-0.6,0.5-0.6,0.9c0,0.3,0.2,0.6,0.6,0.8l62.7,36.1c0.7,0.4,1.9,0.4,2.7,0   c0,0,2.3-1.2,2.3-1.3l28.3-15.5c0.4-0.2,0.6-0.5,0.6-0.9c0-0.3-0.2-0.6-0.6-0.8l-60.4-34.8c0,0-2.4-1.4-2.4-1.4   c-0.7-0.4-1.9-0.4-2.7,0L62.8,218.2z"></path>
	<path class="st66" d="M62.8,218.2c-0.4,0.2-0.6,0.5-0.6,0.8c0,0.3,0.2,0.6,0.5,0.8l62.7,36.1c0.7,0.4,1.9,0.4,2.7,0   c0,0,2.3-1.3,2.3-1.3l28.3-15.5c0.4-0.2,0.6-0.5,0.6-0.8c0-0.3-0.2-0.6-0.5-0.8l-60.4-34.7c0,0-2.4-1.4-2.4-1.4   c-0.7-0.4-1.9-0.4-2.7,0L62.8,218.2z"></path>
	<path class="st67" d="M158.9,237.6l-62.7-36.1c-0.7-0.4-1.9-0.4-2.7,0l-30.6,16.8c-0.8,0.4-0.8,1.1-0.1,1.5l62.7,36.1   c0.7,0.4,1.9,0.4,2.7,0l30.6-16.8C159.5,238.7,159.6,238,158.9,237.6z"></path>
</g>
<linearGradient id="SVGID_1_" gradientUnits="userSpaceOnUse" x1="61.5906" y1="228.2046" x2="160.8831" y2="228.2046">
	<stop offset="8.000000e-08" style="stop-color:#CAD4EB"></stop>
	<stop offset="1" style="stop-color:#B9BEE0"></stop>
</linearGradient>
<path class="st68" d="M61.6,215.4h4.3v0.8l25.8-14c2-1.2,5.5-1,7.8,0.3l57,31.7v-0.6h4.3v3.4h0c0,0.1-0.1,0.3-0.2,0.4l-30.8,17.1  c-1.9,1.1-5.2,1-7.3-0.3l-60.7-34.8c-0.2-0.1-0.2-0.3-0.2-0.5h0V215.4z"></path>
<path class="st69" d="M61.8,214.9c-0.3,0.2-0.3,0.6,0,0.8l60.7,34.8c2.2,1.3,5.4,1.4,7.3,0.3l30.8-17.1c0.3-0.2,0.3-0.6,0.1-0.8  c0,0,0,0,0,0l-61.1-34c-2.3-1.3-5.8-1.5-7.8-0.3L61.8,214.9C61.8,214.9,61.8,214.9,61.8,214.9z"></path>
<linearGradient id="SVGID_00000047035000448369863020000015911476142201083829_" gradientUnits="userSpaceOnUse" x1="100.0531" y1="182.6854" x2="142.1055" y2="182.6854">
	<stop offset="8.000000e-08" style="stop-color:#CAD4EB"></stop>
	<stop offset="1" style="stop-color:#B9BEE0"></stop>
</linearGradient>
<path style="fill:url(#SVGID_00000047035000448369863020000015911476142201083829_);" d="M128.3,138.3L128.3,138.3  c-13.7-7.7-28.4-0.2-28.2,14.5l39.3,77.4l2.7-1.5l-0.6-68.9C141.4,151.2,136.2,142.8,128.3,138.3z"></path>
<linearGradient id="SVGID_00000025443967785984792950000010291805249751763343_" gradientUnits="userSpaceOnUse" x1="97.3073" y1="183.4528" x2="139.357" y2="183.4528">
	<stop offset="0" style="stop-color:#EFEFF6"></stop>
	<stop offset="1" style="stop-color:#D3D5EA"></stop>
</linearGradient>
<path style="fill:url(#SVGID_00000025443967785984792950000010291805249751763343_);" d="M125.6,139.8L125.6,139.8  c-13.7-7.7-28.4-0.2-28.2,14.5l0.5,52.3l41.6,23.6l-0.6-68.9C138.6,152.8,133.4,144.3,125.6,139.8z"></path>
<path class="st72" d="M220.1,103.2l-15.8,129c-0.4,3.5-2.4,8.7-9,8.6c-0.8,0-1.8-0.1-2.8-0.3c0,0-0.1,0-0.1,0l-0.1,0l-50.4-30.3  l-2.8-1.7l-15.5-9.3l-26.1-15.7l-69.1-41.5c-1.8-1-2.8-2.8-2.6-4.6L39.2,9.5c0.2-1.3,0.8-2.4,1.7-3.3c2.7-2.6,7.7-3.2,10.6-1.6  L83.9,23l101.2,57.3l32.3,18.3C219.3,99.7,220.3,101.4,220.1,103.2z"></path>
<path class="st69" d="M214.3,100.8L48.6,5.6c-3.8-2.2-9.2,0-9.7,3.9L22.8,140.2c-0.2,1.9,0.7,3.6,2.5,4.7L191.1,240  c3.8,2.2,9.2,0,9.7-3.9l16-130.6C217.1,103.6,216.1,101.8,214.3,100.8z"></path>
<g>
	<defs>
		<path id="SVGID_00000047036949646636026040000002330291269087404938_" d="M209.7,109.7L195,229.2c-0.3,2.2-3.2,3.4-5.3,2.2    l-8.2-4.7h0l-19-10.8h0l-13-7.3l-21.8-12.3l-14.4-8.2l-21.4-12.1l-58.3-32.9c-2.6-1.5-4-4.1-3.7-6.7L44.5,16.9    c0.3-2.2,3.2-3.4,5.3-2.2l9.9,5.6l21.4,12l14.4,8.1l21.7,12.3l13,7.4l18.1,10.2l57.7,32.6C208.6,104.4,210,107,209.7,109.7z"></path>
	</defs>
	<clipPath id="SVGID_00000058582778672349578920000010421911992789856439_">
		<use xlink:href="#SVGID_00000047036949646636026040000002330291269087404938_" style="overflow:visible;"></use>
	</clipPath>
	<g style="clip-path:url(#SVGID_00000058582778672349578920000010421911992789856439_);">
		<g>
			<polygon class="st74" points="92.3,140.5 74.3,130 73.8,134.3 91.8,144.7    "></polygon>
			<polygon class="st74" points="134.3,165.2 116.2,154.7 115.7,159 133.7,169.4    "></polygon>
			<polygon class="st74" points="113.1,152.6 95.1,142.2 94.6,146.5 112.6,156.9    "></polygon>
			<g>
				<polygon class="st74" points="117.7,118.2 124.6,122.2 124.7,120.6 117.9,116.6     "></polygon>
				<polygon class="st74" points="108.1,112.6 116.4,117.5 116.6,115.9 108.3,111     "></polygon>
				<polygon class="st74" points="99.1,107.4 105.5,111.1 105.7,109.5 99.3,105.8     "></polygon>
				<polygon class="st74" points="84.6,98.9 97.2,106.2 97.3,104.6 84.8,97.3     "></polygon>
				<polygon class="st74" points="126.5,123.3 151.5,137.6 151.7,136 126.7,121.7     "></polygon>
				<polygon class="st74" points="87.5,104.5 93.8,108.1 93.9,106.5 87.7,102.9     "></polygon>
				<polygon class="st74" points="77.8,98.8 84.4,102.6 84.6,101 78,97.2     "></polygon>
				<polygon class="st74" points="127.5,127.7 151,141.3 151.2,139.7 127.7,126.1     "></polygon>
				<polygon class="st74" points="120.1,123.5 126.2,127 126.4,125.4 120.3,121.9     "></polygon>
				<polygon class="st74" points="75.9,90 94.8,101 95,99.4 76.1,88.4     "></polygon>
				<polygon class="st74" points="128.3,120.5 151.9,134 152.1,132.4 128.5,118.9     "></polygon>
				<polygon class="st74" points="121,116.3 127,119.8 127.2,118.2 121.1,114.7     "></polygon>
				<polygon class="st74" points="101.9,97.4 122.4,109.4 122.5,107.7 102,95.8     "></polygon>
				<polygon class="st74" points="142.7,124.9 152.3,130.4 152.5,128.8 142.9,123.3     "></polygon>
				<polygon class="st74" points="132.5,118.9 140.3,123.4 140.4,121.8 132.6,117.3     "></polygon>
				<polygon class="st74" points="118.5,110.8 130.3,117.6 130.5,116 118.7,109.2     "></polygon>
				<polygon class="st74" points="105.6,103.3 116.9,109.9 117.1,108.3 105.8,101.7     "></polygon>
				<polygon class="st74" points="92.6,95.8 103.5,102.1 103.7,100.5 92.8,94.2     "></polygon>
				<polygon class="st74" points="81.5,89.3 90.6,94.6 90.8,93 81.7,87.7     "></polygon>
				<polygon class="st74" points="105.5,134.6 121.9,144.3 122.1,142.6 105.6,133     "></polygon>
				<polygon class="st74" points="82,121 102.9,133.1 103.1,131.5 82.2,119.4     "></polygon>
				<polygon class="st74" points="72.9,115.6 79.8,119.7 80,118.1 73.1,114     "></polygon>
				<polygon class="st74" points="123.9,145.4 141.3,155.4 141.5,153.8 124.1,143.8     "></polygon>
				<polygon class="st74" points="93.6,131.6 109.1,140.6 109.3,139 93.7,130     "></polygon>
				<polygon class="st74" points="110.4,141.4 116.1,144.7 116.3,143.1 110.6,139.8     "></polygon>
				<polygon class="st74" points="84.6,126.3 91.1,130.2 91.3,128.6 84.7,124.7     "></polygon>
				<polygon class="st74" points="75.8,121.2 83.2,125.6 83.4,124 76,119.6     "></polygon>
				<polygon class="st74" points="117.5,145.6 123.6,149.1 123.8,147.5 117.7,144     "></polygon>
				<polygon class="st74" points="84.8,118.7 92.2,123.1 92.4,121.5 85,117.1     "></polygon>
				<polygon class="st74" points="75.8,113.5 81.9,117.1 82.1,115.4 76,111.9     "></polygon>
				<polygon class="st74" points="125.7,142.6 149.3,156.1 149.5,154.5 125.9,141     "></polygon>
				<polygon class="st74" points="118.3,138.3 124.4,141.8 124.6,140.2 118.5,136.7     "></polygon>
				<polygon class="st74" points="111.2,122.4 142.9,140.8 143.1,139.2 111.4,120.8     "></polygon>
				<polygon class="st74" points="99.5,115.6 107.7,120.3 107.9,118.7 99.6,114     "></polygon>
				<polygon class="st74" points="82.4,105.7 97.3,114.3 97.5,112.8 97.7,112.8 82.6,104.1     "></polygon>
				<polygon class="st74" points="99.2,119.5 119.7,131.4 119.9,129.8 99.4,117.8     "></polygon>
				<polygon class="st74" points="74.3,104.9 96.2,117.7 96.4,116.1 74.5,103.3     "></polygon>
				<polygon class="st74" points="127.2,135.7 150.1,148.9 150.3,147.3 127.4,134.1     "></polygon>
				<polygon class="st74" points="122.4,132.9 126,135 126.2,133.4 122.6,131.3     "></polygon>
				<polygon class="st74" points="140.1,146.9 149.7,152.5 149.9,150.9 140.3,145.3     "></polygon>
				<polygon class="st74" points="131.3,141.8 137.6,145.5 137.8,143.9 131.5,140.2     "></polygon>
				<polygon class="st74" points="112.3,130.8 129.8,140.9 130,139.3 112.5,129.2     "></polygon>
				<polygon class="st74" points="92,119 100.4,123.9 100.6,122.3 92.2,117.4     "></polygon>
				<polygon class="st74" points="78.9,111.4 86,115.5 86.2,113.9 79.1,109.8     "></polygon>
				<polygon class="st74" points="87.1,116.2 90.7,118.2 90.9,116.6 87.3,114.6     "></polygon>
				<polygon class="st74" points="102.4,125 110.9,130 111.1,128.4 102.5,123.4     "></polygon>
			</g>
			<path class="st74" d="M74.1,77.6C74.1,77.6,74.1,77.6,74.1,77.6L74.1,77.6z"></path>
		</g>
	</g>
</g>
<path class="st0" d="M209.7,109.7L195,229.2c-0.3,2.2-3.2,3.4-5.3,2.2l-8.2-4.7h0l-19-10.8h0l-13-7.3l-21.8-12.3l-14.4-8.2  l-21.4-12.1l-58.3-32.9c-2.6-1.5-4-4.1-3.7-6.7L44.5,16.9c0.3-2.2,3.2-3.4,5.3-2.2l9.9,5.6l21.4,12l14.4,8.1l21.7,12.3l13,7.4  l18.1,10.2l57.7,32.6C208.6,104.4,210,107,209.7,109.7z"></path>
<linearGradient id="SVGID_00000166670596347037446880000015532655277387583650_" gradientUnits="userSpaceOnUse" x1="121.6789" y1="198.2286" x2="146.9601" y2="198.2286">
	<stop offset="0" style="stop-color:#003B4D"></stop>
	<stop offset="0.5506" style="stop-color:#476080"></stop>
	<stop offset="1" style="stop-color:#41607F"></stop>
</linearGradient>
<path style="fill:url(#SVGID_00000166670596347037446880000015532655277387583650_);" d="M132.6,208.1c0,0,6.5-0.5,12.5-6.6  c8.9-9-17.5-13.3-17.5-13.3l-5.9,11.4L132.6,208.1z"></path>
<g>
	
		<linearGradient id="SVGID_00000167376500141317816250000007471363023956576171_" gradientUnits="userSpaceOnUse" x1="27.6083" y1="124.7651" x2="148.4191" y2="124.7651">
		<stop offset="0" style="stop-color:#003B4D"></stop>
		<stop offset="0.5506" style="stop-color:#476080"></stop>
		<stop offset="1" style="stop-color:#41607F"></stop>
	</linearGradient>
	<path style="fill:url(#SVGID_00000167376500141317816250000007471363023956576171_);" d="M81,85.9c-4.7-2.7-8.1-8.5-8.1-14l0,0   c0-3.7-2-7-5.2-8.8L40.8,47.8c-6.8-3.8-13.3,0.1-13.2,8.1l0.6,75.7c0,5.6,3.4,11.3,8.1,14l98.9,56.2c6.8,3.8,13.3-0.1,13.2-8.1   l-0.5-59.3c-0.1-6.5-3.6-12.5-9.2-15.7L81,85.9z"></path>
	
		<linearGradient id="SVGID_00000104678748898368339830000016540953392447358620_" gradientUnits="userSpaceOnUse" x1="26.1594" y1="126.2639" x2="146.9696" y2="126.2639">
		<stop offset="0" style="stop-color:#003B4D"></stop>
		<stop offset="0.5506" style="stop-color:#476080"></stop>
		<stop offset="1" style="stop-color:#41607F"></stop>
	</linearGradient>
	<path style="fill:url(#SVGID_00000104678748898368339830000016540953392447358620_);" d="M145.7,199.4c1.4-2.3,1.1-2.3,1.2-3.8   c0-0.4,0.1-0.8,0.1-1.2l-0.5-59.3c-0.1-6.5-3.6-12.4-9.2-15.7L79.5,86.6c-4.7-2.7-8.1-8.5-8.1-14c0-3.7-2-7-5.2-8.8L39.4,48.5   c-6.8-3.8-13.3,0.1-13.2,8.1l0.6,75.7c0,5.6,3.4,11.3,8.1,14l88.2,50.1l-1.3,2.5l10.3,5.7c0,0,2.9,2.7,10.1-1.7   C143.7,201.4,145,200.6,145.7,199.4z"></path>
</g>
<g>
	
		<linearGradient id="SVGID_00000065789957458123871360000002484506666073626814_" gradientUnits="userSpaceOnUse" x1="33.2139" y1="123.9913" x2="131.2872" y2="123.9913">
		<stop offset="8.000000e-08" style="stop-color:#CAD4EB"></stop>
		<stop offset="1" style="stop-color:#B9BEE0"></stop>
	</linearGradient>
	<path style="fill:url(#SVGID_00000065789957458123871360000002484506666073626814_);" d="M129.9,93L39.8,43c-1.8-1-6.6,0-6.6,4.1   l2.5,103.4c0,1,0.5,1.9,1.4,2.4l88.4,52.2c1.8,1,5.8-0.4,5.8-4.7v-105C131.3,94.3,130.7,93.4,129.9,93z"></path>
	<path class="st79" d="M128.1,94.4L37.3,44c-1.8-1-4.1,0.3-4.1,2.4v105.6c0,1,0.5,1.9,1.4,2.4l90.8,50.3c1.8,1,4.1-0.3,4.1-2.4V96.8   C129.5,95.8,129,94.8,128.1,94.4z"></path>
	<g>
		<g>
			
				<linearGradient id="SVGID_00000021104006210268691830000016912820230205405084_" gradientUnits="userSpaceOnUse" x1="50.8381" y1="77.5086" x2="62.4694" y2="77.5086">
				<stop offset="8.000000e-08" style="stop-color:#CAD4EB"></stop>
				<stop offset="1" style="stop-color:#B9BEE0"></stop>
			</linearGradient>
			<path style="fill:url(#SVGID_00000021104006210268691830000016912820230205405084_);" d="M61,83.4L61,83.4l-2,1.2l-0.7-1     c-0.5-0.1-0.9-0.3-1.4-0.6c-3-1.7-5.5-5.8-5.5-9.1c0-0.3,0-0.5,0.1-0.8l-0.7-1.1l1.8-1.1c0.2-0.1,0.3-0.2,0.5-0.3l0,0l0,0     c1-0.4,2.3-0.3,3.8,0.5c3,1.7,5.5,5.8,5.5,9.1C62.5,81.8,61.9,82.8,61,83.4z"></path>
			
				<linearGradient id="SVGID_00000169521867689621817550000003570355315307305618_" gradientUnits="userSpaceOnUse" x1="49.4669" y1="92.5133" x2="64.2201" y2="92.5133">
				<stop offset="8.000000e-08" style="stop-color:#CAD4EB"></stop>
				<stop offset="1" style="stop-color:#B9BEE0"></stop>
			</linearGradient>
			<path style="fill:url(#SVGID_00000169521867689621817550000003570355315307305618_);" d="M49.5,90.4c0-1.2,0.3-2.2,0.7-3.1     l-0.3-0.7c0,0,1.9-1.2,1.9-1.2l0.2-0.1c1.3-0.7,3-0.7,4.8,0.4c4.1,2.3,7.4,8.8,7.3,13.2l-2.1,1.3l-4.8-4.4l0.9-0.3L49.5,90.4z"></path>
		</g>
		<g>
			<g>
				<g>
					<path class="st1" d="M54.9,72.5c3,1.7,5.5,5.8,5.5,9.1c0,3.3-2.5,4.5-5.6,2.8c-3-1.7-5.5-5.8-5.5-9.1       C49.4,72,51.8,70.8,54.9,72.5z"></path>
				</g>
				<g>
					<path class="st1" d="M54.7,87c4.1,2.3,7.4,8.8,7.3,13.2l-14.8-8.5C47.4,87.4,50.7,84.7,54.7,87z"></path>
				</g>
			</g>
		</g>
	</g>
	<polygon class="st82" points="63.7,161.1 45,150.5 45,154.9 63.7,165.5  "></polygon>
	<polygon class="st82" points="107.2,186.2 88.5,175.6 88.5,180 107.2,190.6  "></polygon>
	<polygon class="st82" points="85.3,173.5 66.6,162.9 66.6,167.3 85.3,177.9  "></polygon>
	<g>
		<polygon class="st82" points="85.8,138 92.9,142 92.9,140.3 85.8,136.3   "></polygon>
		<polygon class="st82" points="75.8,132.2 84.4,137.2 84.4,135.5 75.8,130.6   "></polygon>
		<polygon class="st82" points="66.5,126.9 73.1,130.7 73.1,129 66.5,125.3   "></polygon>
		<polygon class="st82" points="51.5,118.3 64.5,125.8 64.5,124.1 51.5,116.7   "></polygon>
		<polygon class="st82" points="94.9,143.1 120.7,157.7 120.7,156 94.9,141.5   "></polygon>
		<polygon class="st82" points="54.9,124 61.4,127.7 61.4,126.1 54.9,122.4   "></polygon>
		<polygon class="st82" points="44.8,118.3 51.7,122.2 51.7,120.5 44.8,116.6   "></polygon>
		<polygon class="st82" points="96.3,147.7 120.7,161.4 120.7,159.8 96.3,146   "></polygon>
		<polygon class="st82" points="88.7,143.4 95,146.9 95,145.3 88.7,141.7   "></polygon>
		<polygon class="st82" points="42,109.2 61.6,120.4 61.6,118.8 42,107.6   "></polygon>
		<polygon class="st82" points="96.3,140.2 120.7,154 120.7,152.3 96.3,138.6   "></polygon>
		<polygon class="st82" points="88.7,135.9 95,139.5 95,137.8 88.7,134.3   "></polygon>
		<polygon class="st82" points="68,116.6 89.2,128.8 89.2,127.1 68,115   "></polygon>
		<polygon class="st82" points="110.8,144.6 120.7,150.3 120.7,148.6 110.8,143   "></polygon>
		<polygon class="st82" points="100.1,138.5 108.2,143.1 108.2,141.5 100.1,136.9   "></polygon>
		<polygon class="st82" points="85.7,130.3 97.9,137.3 97.9,135.6 85.7,128.7   "></polygon>
		<polygon class="st82" points="72.4,122.7 84,129.4 84,127.7 72.4,121.1   "></polygon>
		<polygon class="st82" points="58.8,115 70.2,121.5 70.2,119.8 58.8,113.4   "></polygon>
		<polygon class="st82" points="47.3,108.5 56.8,113.9 56.8,112.2 47.3,106.8   "></polygon>
		<polygon class="st82" points="75.8,155 92.9,164.8 92.9,163.1 75.8,153.3   "></polygon>
		<polygon class="st82" points="51.5,141.1 73.1,153.5 73.1,151.8 51.5,139.4   "></polygon>
		<polygon class="st82" points="42,135.7 49.2,139.8 49.2,138.1 42,134   "></polygon>
		<polygon class="st82" points="94.9,165.9 112.9,176.1 112.9,174.4 94.9,164.2   "></polygon>
		<polygon class="st82" points="63.9,151.9 80,161.1 80,159.5 63.9,150.3   "></polygon>
		<polygon class="st82" points="81.3,161.9 87.3,165.3 87.3,163.6 81.3,160.2   "></polygon>
		<polygon class="st82" points="54.5,146.6 61.4,150.5 61.4,148.8 54.5,144.9   "></polygon>
		<polygon class="st82" points="45.5,141.4 53.2,145.8 53.2,144.1 45.5,139.7   "></polygon>
		<polygon class="st82" points="88.7,166.1 95,169.7 95,168 88.7,164.5   "></polygon>
		<polygon class="st82" points="53.9,138.8 61.6,143.2 61.6,141.5 53.9,137.1   "></polygon>
		<polygon class="st82" points="44.6,133.5 50.9,137.1 50.9,135.4 44.6,131.8   "></polygon>
		<polygon class="st82" points="96.3,163 120.7,176.7 120.7,175.1 96.3,161.3   "></polygon>
		<polygon class="st82" points="88.7,158.7 95,162.2 95,160.6 88.7,157   "></polygon>
		<polygon class="st82" points="79.9,142.3 112.8,161 112.8,159.4 79.9,140.6   "></polygon>
		<polygon class="st82" points="67.8,135.4 76.3,140.2 76.3,138.6 67.8,133.7   "></polygon>
		<polygon class="st82" points="50.1,125.3 65.6,134.1 65.6,132.6 65.7,132.6 50.1,123.7   "></polygon>
		<polygon class="st82" points="68,139.4 89.2,151.5 89.2,149.9 68,137.7   "></polygon>
		<polygon class="st82" points="42.1,124.6 64.8,137.6 64.8,135.9 42.1,122.9   "></polygon>
		<polygon class="st82" points="96.9,155.9 120.7,169.3 120.7,167.6 96.9,154.2   "></polygon>
		<polygon class="st82" points="92,153.1 95.8,155.2 95.8,153.6 92,151.4   "></polygon>
		<polygon class="st82" points="110.8,167.4 120.7,173 120.7,171.4 110.8,165.7   "></polygon>
		<polygon class="st82" points="101.7,162.2 108.2,165.9 108.2,164.2 101.7,160.5   "></polygon>
		<polygon class="st82" points="82,151 100.1,161.3 100.1,159.6 82,149.3   "></polygon>
		<polygon class="st82" points="60.9,139 69.6,143.9 69.6,142.3 60.9,137.3   "></polygon>
		<polygon class="st82" points="47.3,131.2 54.7,135.4 54.7,133.8 47.3,129.6   "></polygon>
		<polygon class="st82" points="55.8,136.1 59.6,138.2 59.6,136.6 55.8,134.4   "></polygon>
		<polygon class="st82" points="71.7,145.1 80.5,150.2 80.5,148.5 71.7,143.4   "></polygon>
	</g>
	<path class="st82" d="M38.8,96.4C38.8,96.4,38.8,96.4,38.8,96.4L38.8,96.4z"></path>
</g>
<g>
	<path class="st83" d="M73.2,90.4c-4.7-2.7-8.1-8.5-8.1-14l0,0c0-3.7-2-7-5.2-8.8L33,52.3c-6.8-3.8-13.3,0.1-13.2,8.1l0.6,75.7   c0,5.6,3.4,11.3,8.1,14l98.9,56.2c6.8,3.8,13.3-0.1,13.2-8.1l-0.5-59.3c0-6.5-3.6-12.5-9.2-15.7L73.2,90.4z"></path>
	
		<linearGradient id="SVGID_00000047025363447628419630000002905471871523646110_" gradientUnits="userSpaceOnUse" x1="18.3436" y1="129.9462" x2="139.1512" y2="129.9462">
		<stop offset="0" style="stop-color:#003B4D"></stop>
		<stop offset="0.5506" style="stop-color:#476080"></stop>
		<stop offset="1" style="stop-color:#41607F"></stop>
	</linearGradient>
	<path style="fill:url(#SVGID_00000047025363447628419630000002905471871523646110_);" d="M71.7,91.1c-4.7-2.7-8.1-8.5-8.1-14l0,0   c0-3.7-2-7-5.2-8.8L31.5,53c-6.8-3.8-13.3,0.1-13.2,8.1l0.6,75.7c0,5.6,3.4,11.3,8.1,14l98.9,56.2c6.8,3.8,13.3-0.1,13.2-8.1   l-0.5-59.3c-0.1-6.5-3.6-12.5-9.2-15.7L71.7,91.1z"></path>
</g>
<path class="st0" d="M209.6,109.6l-1.5,11.8L43.1,27.8l1.3-10.9c0.3-2.2,3.2-3.4,5.4-2.2L81,32.3l36.2,20.4l13,7.4l18.1,10.2  l57.7,32.6C208.5,104.3,209.9,106.9,209.6,109.6z"></path>
<g>
	<path class="st1" d="M178.6,101.2l-10-5.8c-0.3-0.2-0.5-0.5-0.5-0.8c0-0.3,0.3-0.4,0.6-0.2l10,5.8c0.3,0.2,0.5,0.5,0.5,0.8   C179.1,101.3,178.9,101.4,178.6,101.2z"></path>
	<g>
		<path class="st1" d="M202.1,115c-0.2-0.1-0.3-0.2-0.4-0.4l-5.5-11c-0.2-0.3-0.1-0.6,0.2-0.7c0.2,0,0.6,0.2,0.7,0.5l5.5,11    c0.2,0.3,0.1,0.6-0.2,0.7C202.4,115.1,202.3,115,202.1,115z"></path>
		<path class="st1" d="M195.8,111.2c-0.1-0.1-0.2-0.2-0.3-0.3c-0.2-0.3-0.2-0.6,0-0.7l7.3-3.5c0.2-0.1,0.5,0.1,0.7,0.4    c0.2,0.3,0.2,0.6,0,0.7l-7.3,3.5C196.1,111.4,195.9,111.3,195.8,111.2z"></path>
	</g>
	<path class="st1" d="M188,97.8c-2.4-1.4-4.6-0.7-4.9,1.6c-0.3,2.3,1.5,5.3,3.9,6.7c2.4,1.4,4.6,0.7,4.9-1.6   C192.1,102.2,190.4,99.2,188,97.8z M190.8,103.9c-0.2,1.7-1.9,2.3-3.7,1.2c-1.8-1.1-3.2-3.4-2.9-5.1c0.2-1.7,1.9-2.3,3.7-1.2   C189.7,99.9,191,102.2,190.8,103.9z"></path>
</g>
</svg>
