<?xml version="1.0" encoding="UTF-8"?>
<!-- Generator: Adobe Illustrator 27.3.1, SVG Export Plug-In . SVG Version: 6.00 Build 0)  -->
<svg xmlns="http://www.w3.org/2000/svg" xmlns:xlink="http://www.w3.org/1999/xlink" version="1.1" id="Layer_1" x="0px" y="0px" viewBox="0 0 249 301" style="enable-background:new 0 0 249 301;" xml:space="preserve">
<style type="text/css">
	.st0{fill:#E0395C;}
	.st1{fill:url(#SVGID_1_);}
	.st2{fill:url(#SVGID_00000159467953727940164850000003982918310022378174_);}
	.st3{opacity:0.3;fill:#FFFFFF;}
	.st4{fill:#CECFD3;}
	.st5{fill:url(#SVGID_00000101072554661583337570000003275706214585360527_);}
	.st6{fill:url(#SVGID_00000170256687870758975000000012078482590561225110_);}
	.st7{fill:url(#SVGID_00000086693638871883856160000002467642972995516580_);}
	.st8{fill:url(#SVGID_00000108286806211834640680000007200490484512766399_);}
	.st9{fill:url(#SVGID_00000145751965051808201570000016359896408716564667_);}
	.st10{fill:url(#SVGID_00000149359939853726148810000008139623404973259940_);}
	.st11{fill:url(#SVGID_00000097471127372970450480000008681520276976445374_);}
	.st12{fill:url(#SVGID_00000090252903472311498730000009902663159597299603_);}
	.st13{fill:url(#SVGID_00000138559807063257691560000001097289484665485467_);}
	.st14{fill:url(#SVGID_00000088135214258173172200000007397193674818273461_);}
	.st15{fill:url(#SVGID_00000048500334709830891190000013005657593967003289_);}
	.st16{fill:url(#SVGID_00000139258077283990254560000000063920704571015306_);}
	.st17{fill:url(#SVGID_00000099621080871219145210000014105349046049675397_);}
	.st18{fill:url(#SVGID_00000168812787516085637670000014322195887408090502_);}
	.st19{fill:url(#SVGID_00000009567880710845922980000009515349443286289035_);}
	.st20{fill:url(#SVGID_00000057838538662120843730000014949706238831464075_);}
	.st21{fill:url(#SVGID_00000060030356192791323760000006673732788354790285_);}
	.st22{fill:url(#SVGID_00000110463468576113760780000015879050063818088633_);}
	.st23{fill:url(#SVGID_00000116221481460371594590000005015134530316418457_);}
	.st24{fill:url(#SVGID_00000158717181575030759220000000789259648630265766_);}
	.st25{fill:url(#SVGID_00000049197341119295943390000001222972059020230295_);}
	.st26{fill:url(#SVGID_00000049201689209425059710000009974129380157451953_);}
	.st27{fill:url(#SVGID_00000149366423850506291940000015164088933333788595_);}
	.st28{fill:#D36750;}
	.st29{fill:url(#SVGID_00000078044613710070684700000007086657163029311666_);}
	.st30{fill:url(#SVGID_00000153706487921483574190000014111680518649368462_);}
	.st31{fill:#FFFFFF;}
</style>
<circle class="st0" cx="129.8" cy="184.2" r="113.2"></circle>
<g>
	<g>
		<linearGradient id="SVGID_1_" gradientUnits="userSpaceOnUse" x1="87.3636" y1="119.9376" x2="164.4116" y2="119.9376">
			<stop offset="8.000000e-08" style="stop-color:#CAD4EB"></stop>
			<stop offset="1" style="stop-color:#B9BEE0"></stop>
		</linearGradient>
		<path class="st1" d="M161.5,229.1c-0.1,0.1-2.9,1.9-3.3,2.1c0.1-0.1,0.2-0.1,0.2-0.2c0.2-0.2,0.4-0.4,0.6-0.6    c0.2-0.2,0.3-0.4,0.5-0.6c0,0,0.1-0.1,0.1-0.1c0.1-0.1,0.2-0.3,0.3-0.4c0.1-0.2,0.2-0.4,0.3-0.6c0.1-0.2,0.1-0.3,0.2-0.4    c0.1-0.1,0.1-0.3,0.1-0.4c0.1-0.2,0.1-0.3,0.1-0.5c0-0.1,0-0.1,0.1-0.2c0.2-0.9,0.3-1.9,0.3-2.9V224c0-0.5,0-1,0-1.5    c0,0-0.1-27.3-0.3-59.5c0-0.9,0-1.9,0-2.8c0-8.5-0.1-17.3-0.1-25.9c0-0.6,0-1.2,0-1.8c-0.1-9.4-0.1-18.6-0.1-27.2    c-0.1-18.4-0.2-33.6-0.3-40.5c0-0.8,0-1.6,0-2.2c0-1.3,0-1.9,0-1.9c-0.2-5.5-2.8-11.3-6.7-15.5c-0.2-0.2-0.3-0.3-0.5-0.5    c0,0,0,0,0-0.1c-0.2-0.2-0.3-0.3-0.5-0.5c-0.2-0.2-0.3-0.3-0.5-0.5c-0.4-0.3-0.8-0.7-1.3-1c-0.2-0.1-0.4-0.3-0.6-0.4    c0-0.1-0.1-0.1-0.2-0.1c-0.2-0.2-0.4-0.3-0.6-0.4c-0.3-0.2-0.7-0.4-1.1-0.6l-13-7.1l-7.5-4.1l-10.3-5.7L95.8,12.3    c-1.9-1-3.7-1.5-5.2-1.5c-0.3,0-0.5,0-0.7,0c-0.2,0-0.4,0.1-0.6,0.1h-0.1c-0.2,0-0.4,0.1-0.6,0.2c0,0-0.1,0-0.1,0    c-0.2,0.1-0.3,0.1-0.5,0.2c-0.2,0.1-0.4,0.2-0.5,0.3c0.5-0.3,2.5-1.6,3.2-2.1c2.1-1.3,5.1-1.2,8.5,0.6L151.6,39    c6.2,3.4,11,10.8,11.8,17.9c0.3,2.9,0.6,24.2,0.7,50.5c0,8.4,0.1,17.3,0.1,26.3c0,0.6,0,1.2,0,1.8c0,6.9,0,13.9,0.1,20.7v3.1    c0.1,29.6,0.1,55.3,0.1,60.3C164.4,222.8,164.7,226.8,161.5,229.1z"></path>
	</g>
	
		<linearGradient id="SVGID_00000127005888851450119620000009112093870383714438_" gradientUnits="userSpaceOnUse" x1="142.6281" y1="44.3453" x2="85.7664" y2="263.1768">
		<stop offset="0" style="stop-color:#003B4D"></stop>
		<stop offset="0.5506" style="stop-color:#476080"></stop>
		<stop offset="1" style="stop-color:#41607F"></stop>
	</linearGradient>
	<path style="fill:url(#SVGID_00000127005888851450119620000009112093870383714438_);" d="M161.1,224.8c0,0.9-0.2,1.6-0.3,2.4   c0,0.1,0,0.1-0.1,0.2c0,0.2-0.1,0.3-0.1,0.5c0,0.2-0.1,0.3-0.1,0.4c-0.1,0.1-0.1,0.3-0.2,0.4c-0.1,0.2-0.2,0.4-0.3,0.6   c-0.1,0.2-0.2,0.3-0.3,0.4c0,0-0.1,0.1-0.1,0.1c-0.1,0.2-0.3,0.4-0.5,0.6c-0.1,0.2-0.3,0.3-0.4,0.4c-0.1,0.1-0.1,0.1-0.2,0.2   c-0.1,0.1-0.2,0.1-0.2,0.2c-2.2,1.6-5.3,1.6-8.9-0.4l-1.1-0.6l-14.4-8l-1.9-1l-3.1-1.7l-7.9-4.4l-11.8-6.5l-2.7-1.5l-6.2-3.4   l-4.4-2.4c-0.9-0.5-1.7-1-2.5-1.7c-0.2-0.1-0.4-0.3-0.5-0.4c-0.4-0.3-0.8-0.7-1.2-1c-0.7-0.7-1.4-1.5-2.1-2.3   c-2.6-3.2-4.5-7.2-5.3-10.9v0c-0.2-1.1-0.3-2.1-0.3-3.2V19c0-3.6,1.2-6.1,3.3-7.3c0,0,0,0,0,0c0.2-0.1,0.3-0.2,0.5-0.3   c0.2-0.1,0.3-0.1,0.5-0.2c0.1,0,0.1,0,0.1,0c0.2-0.1,0.4-0.1,0.6-0.2h0.1c0.2,0,0.4-0.1,0.6-0.1c0.2,0,0.5,0,0.7,0   c1.6,0,3.3,0.5,5.2,1.5l21.7,11.9l10.3,5.7l7.5,4.1l13,7.1c0.4,0.2,0.7,0.4,1.1,0.6c0.2,0.1,0.4,0.3,0.6,0.4c0.1,0,0.1,0.1,0.2,0.1   c0.2,0.1,0.4,0.3,0.6,0.4c0.4,0.3,0.9,0.7,1.3,1c0.2,0.2,0.3,0.3,0.5,0.5c0.2,0.2,0.3,0.3,0.5,0.5c0,0,0,0,0,0.1   c0.2,0.2,0.3,0.4,0.5,0.5c0.3,0.3,0.5,0.5,0.7,0.8c0.5,0.5,0.9,1.1,1.3,1.6c2.9,4,4.6,8.7,4.6,13.1c0,0,0,0.7,0,1.9   c0,0.6,0,1.3,0,2.2c0,0.7,0,1.4,0,2.2c0,7.7,0.1,21.7,0.2,38.3c0,8.5,0.1,17.8,0.1,27.2c0,0.6,0,1.2,0,1.8c0,8.6,0.1,17.4,0.1,25.9   c0,0.9,0,1.9,0,2.8c0.2,30,0.3,56.2,0.3,60.9v0.3C161.1,224.6,161.1,224.8,161.1,224.8z"></path>
	<g>
		<polygon class="st3" points="86.3,180.1 158.7,218.6 158.8,218.2 86.4,179.8   "></polygon>
	</g>
	<g>
		<polygon class="st3" points="87.3,17.8 157,55.5 157.1,55.2 87.4,17.4   "></polygon>
	</g>
	<g>
		<g>
			<polygon class="st3" points="137,212.2 147.6,217.8 147.7,217.5 137.1,211.8    "></polygon>
		</g>
		<g>
			<polygon class="st3" points="136.8,214.1 147.4,219.7 147.5,219.4 136.9,213.7    "></polygon>
		</g>
		<g>
			<polygon class="st3" points="136.7,216 147.3,221.6 147.4,221.2 136.8,215.6    "></polygon>
		</g>
	</g>
	<g>
		<path class="st4" d="M156.3,48.7c1.2,2.7,1.9,5.8,1.9,8.4c0,0,0.8,164.9,0.8,165.1c-0.2,6.8-4.6,9-11,5.5l-54.1-30    c-3.1-1.7-5.9-4.5-8-7.8c2.1,4.7,5.8,9.1,9.9,11.4l53.4,29.6c6.4,3.5,11.5,0.8,11.7-6.1c0-0.2-0.9-164.1-0.9-164.1    C160.2,56.5,158.7,52.4,156.3,48.7z"></path>
		
			<linearGradient id="SVGID_00000091701961572340076410000018308537476174193564_" gradientUnits="userSpaceOnUse" x1="92.8135" y1="140.303" x2="167.7742" y2="140.303" gradientTransform="matrix(1 0 0 1 -6.8623 0)">
			<stop offset="0" style="stop-color:#D0D1D5"></stop>
			<stop offset="1" style="stop-color:#CFD0D4"></stop>
		</linearGradient>
		<path style="fill:url(#SVGID_00000091701961572340076410000018308537476174193564_);" d="M156.1,48.5c1.2,2.7,1.9,5.8,1.9,8.4    c0,0,0.8,164.8,0.8,165c-0.2,6.8-4.6,9-11,5.5l-54-30c-3.1-1.7-5.9-4.5-8-7.8c2.1,4.7,5.8,9.1,9.9,11.4l53.4,29.5    c6.3,3.5,11.4,0.8,11.7-6.1c0-0.2-0.9-164-0.9-164C160,56.3,158.5,52.2,156.1,48.5z"></path>
		
			<linearGradient id="SVGID_00000011743922011723190240000016842918576483388576_" gradientUnits="userSpaceOnUse" x1="99.5942" y1="140.0428" x2="174.4596" y2="140.0428" gradientTransform="matrix(1 0 0 1 -13.7247 0)">
			<stop offset="0" style="stop-color:#D2D3D7"></stop>
			<stop offset="1" style="stop-color:#D0D1D5"></stop>
		</linearGradient>
		<path style="fill:url(#SVGID_00000011743922011723190240000016842918576483388576_);" d="M156,48.3c1.2,2.7,1.9,5.8,1.9,8.4    c0,0,0.8,164.8,0.8,165c-0.2,6.8-4.6,9-11,5.5l-53.9-30c-3.1-1.7-5.9-4.5-8-7.8c2.1,4.7,5.8,9.1,9.9,11.3l53.3,29.5    c6.3,3.5,11.4,0.8,11.7-6c0-0.2-0.9-163.9-0.9-163.9C159.8,56.1,158.3,52,156,48.3z"></path>
		
			<linearGradient id="SVGID_00000093888866834619581000000017003425035584714172_" gradientUnits="userSpaceOnUse" x1="106.3748" y1="139.7827" x2="181.145" y2="139.7827" gradientTransform="matrix(1 0 0 1 -20.587 0)">
			<stop offset="0" style="stop-color:#D4D5D9"></stop>
			<stop offset="1" style="stop-color:#D2D2D6"></stop>
		</linearGradient>
		<path style="fill:url(#SVGID_00000093888866834619581000000017003425035584714172_);" d="M155.8,48.1c1.2,2.7,1.9,5.7,1.9,8.4    c0,0,0.8,164.7,0.8,164.9c-0.2,6.8-4.6,8.9-11,5.5l-53.8-29.9c-3.1-1.7-5.8-4.5-8-7.8c2.1,4.7,5.8,9.1,9.9,11.3l53.2,29.5    c6.3,3.5,11.4,0.8,11.6-6c0-0.2-0.9-163.9-0.9-163.9C159.7,55.9,158.2,51.8,155.8,48.1z"></path>
		
			<linearGradient id="SVGID_00000075870685511762686890000001075063896033408955_" gradientUnits="userSpaceOnUse" x1="113.1555" y1="139.5225" x2="187.8305" y2="139.5225" gradientTransform="matrix(1 0 0 1 -27.4493 0)">
			<stop offset="0" style="stop-color:#D7D7DB"></stop>
			<stop offset="1" style="stop-color:#D3D4D7"></stop>
		</linearGradient>
		<path style="fill:url(#SVGID_00000075870685511762686890000001075063896033408955_);" d="M155.6,47.9c1.2,2.7,1.9,5.7,1.9,8.4    c0,0,0.8,164.6,0.8,164.8c-0.2,6.8-4.6,8.9-10.9,5.5l-53.8-29.9c-3.1-1.7-5.8-4.5-7.9-7.8c2.1,4.7,5.8,9.1,9.9,11.3l53.2,29.4    c6.3,3.5,11.4,0.8,11.6-6c0-0.2-0.9-163.8-0.9-163.8C159.5,55.7,158,51.6,155.6,47.9z"></path>
		
			<linearGradient id="SVGID_00000008107810637332261990000014907481678341059981_" gradientUnits="userSpaceOnUse" x1="119.9362" y1="139.2623" x2="194.5159" y2="139.2623" gradientTransform="matrix(1 0 0 1 -34.3116 0)">
			<stop offset="0" style="stop-color:#D9D9DD"></stop>
			<stop offset="1" style="stop-color:#D4D5D8"></stop>
		</linearGradient>
		<path style="fill:url(#SVGID_00000008107810637332261990000014907481678341059981_);" d="M155.4,47.7c1.2,2.7,1.9,5.7,1.9,8.3    c0,0,0.8,164.6,0.8,164.7c-0.2,6.8-4.6,8.9-10.9,5.5l-53.7-29.8c-3-1.7-5.8-4.5-7.9-7.8c2.1,4.7,5.8,9,9.9,11.3l53.1,29.4    c6.3,3.5,11.4,0.8,11.6-6c0-0.2-0.9-163.7-0.9-163.7C159.3,55.4,157.8,51.4,155.4,47.7z"></path>
		
			<linearGradient id="SVGID_00000059271020012995888580000008069819314462822277_" gradientUnits="userSpaceOnUse" x1="126.7168" y1="139.0022" x2="201.2013" y2="139.0022" gradientTransform="matrix(1 0 0 1 -41.174 0)">
			<stop offset="0" style="stop-color:#DBDCDE"></stop>
			<stop offset="1" style="stop-color:#D5D6D9"></stop>
		</linearGradient>
		<path style="fill:url(#SVGID_00000059271020012995888580000008069819314462822277_);" d="M155.3,47.5c1.2,2.7,1.9,5.7,1.9,8.3    c0,0,0.8,164.5,0.8,164.7c-0.2,6.8-4.6,8.9-10.9,5.5l-53.6-29.8c-3-1.7-5.8-4.5-7.9-7.7c2.1,4.7,5.8,9,9.9,11.3l53,29.3    c6.3,3.5,11.4,0.8,11.6-6c0-0.2-0.9-163.6-0.9-163.6C159.1,55.2,157.6,51.2,155.3,47.5z"></path>
		
			<linearGradient id="SVGID_00000172399316680391875810000013771753930352627619_" gradientUnits="userSpaceOnUse" x1="133.4975" y1="138.742" x2="207.8868" y2="138.742" gradientTransform="matrix(1 0 0 1 -48.0363 0)">
			<stop offset="0" style="stop-color:#DDDEE0"></stop>
			<stop offset="1" style="stop-color:#D6D7DA"></stop>
		</linearGradient>
		<path style="fill:url(#SVGID_00000172399316680391875810000013771753930352627619_);" d="M155.1,47.3c1.2,2.7,1.9,5.7,1.9,8.3    c0,0,0.8,164.4,0.8,164.6c-0.2,6.8-4.6,8.9-10.9,5.4l-53.6-29.8c-3-1.7-5.8-4.5-7.9-7.7c2.1,4.7,5.7,9,9.8,11.3l53,29.3    c6.3,3.5,11.4,0.8,11.6-6c0-0.2-0.9-163.6-0.9-163.6C158.9,55,157.4,50.9,155.1,47.3z"></path>
		
			<linearGradient id="SVGID_00000003067608215753422830000000976218003979387548_" gradientUnits="userSpaceOnUse" x1="140.2781" y1="138.4818" x2="214.5722" y2="138.4818" gradientTransform="matrix(1 0 0 1 -54.8986 0)">
			<stop offset="0" style="stop-color:#DFE0E2"></stop>
			<stop offset="1" style="stop-color:#D7D8DB"></stop>
		</linearGradient>
		<path style="fill:url(#SVGID_00000003067608215753422830000000976218003979387548_);" d="M154.9,47.1c1.2,2.7,1.9,5.7,1.9,8.3    c0,0,0.8,164.3,0.8,164.5c-0.2,6.8-4.6,8.9-10.9,5.4l-53.5-29.7c-3-1.7-5.8-4.5-7.9-7.7c2.1,4.7,5.7,9,9.8,11.3l52.9,29.3    c6.3,3.4,11.3,0.8,11.6-6c0-0.2-0.9-163.5-0.9-163.5C158.8,54.8,157.3,50.7,154.9,47.1z"></path>
		
			<linearGradient id="SVGID_00000084504868032498280880000010760479046330343103_" gradientUnits="userSpaceOnUse" x1="147.0588" y1="138.2216" x2="221.2577" y2="138.2216" gradientTransform="matrix(1 0 0 1 -61.7609 0)">
			<stop offset="0" style="stop-color:#E1E2E4"></stop>
			<stop offset="1" style="stop-color:#D9D9DC"></stop>
		</linearGradient>
		<path style="fill:url(#SVGID_00000084504868032498280880000010760479046330343103_);" d="M154.7,46.9c1.2,2.7,1.9,5.6,1.9,8.3    c0,0,0.8,164.3,0.8,164.4c-0.2,6.7-4.6,8.9-10.9,5.4l-53.4-29.7c-3-1.7-5.8-4.5-7.9-7.7c2.1,4.7,5.7,9,9.8,11.2l52.8,29.2    c6.3,3.4,11.3,0.8,11.6-6c0-0.2-0.9-163.4-0.9-163.4C158.6,54.6,157.1,50.5,154.7,46.9z"></path>
		
			<linearGradient id="SVGID_00000065774460792738789720000000610314139925386402_" gradientUnits="userSpaceOnUse" x1="153.8395" y1="137.9614" x2="227.9431" y2="137.9614" gradientTransform="matrix(1 0 0 1 -68.6233 0)">
			<stop offset="0" style="stop-color:#E3E4E6"></stop>
			<stop offset="1" style="stop-color:#DADADD"></stop>
		</linearGradient>
		<path style="fill:url(#SVGID_00000065774460792738789720000000610314139925386402_);" d="M154.6,46.7c1.2,2.7,1.9,5.6,1.9,8.2    c0,0,0.8,164.2,0.8,164.4c-0.2,6.7-4.6,8.9-10.9,5.4L93.1,195c-3-1.7-5.8-4.5-7.9-7.7c2.1,4.7,5.7,9,9.8,11.2l52.8,29.2    c6.3,3.4,11.3,0.8,11.5-6c0-0.2-0.9-163.4-0.9-163.4C158.4,54.4,156.9,50.3,154.6,46.7z"></path>
		
			<linearGradient id="SVGID_00000013162686281383027330000010643130524537112195_" gradientUnits="userSpaceOnUse" x1="160.6201" y1="137.7013" x2="234.6285" y2="137.7013" gradientTransform="matrix(1 0 0 1 -75.4856 0)">
			<stop offset="0" style="stop-color:#E5E6E8"></stop>
			<stop offset="1" style="stop-color:#DBDBDE"></stop>
		</linearGradient>
		<path style="fill:url(#SVGID_00000013162686281383027330000010643130524537112195_);" d="M154.4,46.5c1.2,2.7,1.9,5.6,1.9,8.2    c0,0,0.8,164.1,0.8,164.3c-0.2,6.7-4.6,8.9-10.8,5.4L93,194.8c-3-1.7-5.8-4.5-7.9-7.7c2.1,4.7,5.7,9,9.8,11.2l52.7,29.2    c6.3,3.4,11.3,0.8,11.5-6c0-0.2-0.9-163.3-0.9-163.3C158.2,54.2,156.7,50.1,154.4,46.5z"></path>
		
			<linearGradient id="SVGID_00000112614714841408317040000000057093698294393745_" gradientUnits="userSpaceOnUse" x1="167.4008" y1="137.4411" x2="241.314" y2="137.4411" gradientTransform="matrix(1 0 0 1 -82.3479 0)">
			<stop offset="0" style="stop-color:#E8E8EA"></stop>
			<stop offset="1" style="stop-color:#DCDDDE"></stop>
		</linearGradient>
		<path style="fill:url(#SVGID_00000112614714841408317040000000057093698294393745_);" d="M154.2,46.2c1.2,2.7,1.9,5.6,1.9,8.2    c0,0,0.8,164,0.8,164.2c-0.2,6.7-4.6,8.8-10.8,5.4l-53.2-29.6c-3-1.7-5.8-4.5-7.9-7.7c2.1,4.7,5.7,9,9.8,11.2l52.6,29.1    c6.3,3.4,11.3,0.8,11.5-6c0-0.2-0.9-163.2-0.9-163.2C158,54,156.6,49.9,154.2,46.2z"></path>
		
			<linearGradient id="SVGID_00000026881567677802575660000015156067284394570120_" gradientUnits="userSpaceOnUse" x1="174.1814" y1="137.1809" x2="247.9994" y2="137.1809" gradientTransform="matrix(1 0 0 1 -89.2102 0)">
			<stop offset="0" style="stop-color:#EAEAEC"></stop>
			<stop offset="1" style="stop-color:#DDDEDF"></stop>
		</linearGradient>
		<path style="fill:url(#SVGID_00000026881567677802575660000015156067284394570120_);" d="M154,46c1.2,2.7,1.9,5.6,1.9,8.2    c0,0,0.8,164,0.8,164.2c-0.2,6.7-4.6,8.8-10.8,5.4l-53.2-29.5c-3-1.7-5.8-4.4-7.9-7.7c2.1,4.7,5.7,9,9.8,11.2l52.6,29.1    c6.2,3.4,11.3,0.8,11.5-6c0-0.2-0.9-163.1-0.9-163.1C157.9,53.8,156.4,49.7,154,46z"></path>
		
			<linearGradient id="SVGID_00000039129803009734330340000017290054629461520804_" gradientUnits="userSpaceOnUse" x1="180.9621" y1="136.9207" x2="254.6848" y2="136.9207" gradientTransform="matrix(1 0 0 1 -96.0726 0)">
			<stop offset="0" style="stop-color:#ECECEE"></stop>
			<stop offset="1" style="stop-color:#DEDFE0"></stop>
		</linearGradient>
		<path style="fill:url(#SVGID_00000039129803009734330340000017290054629461520804_);" d="M153.9,45.8c1.2,2.7,1.9,5.6,1.9,8.2    c0,0,0.8,163.9,0.8,164.1c-0.2,6.7-4.6,8.8-10.8,5.4L92.7,194c-3-1.7-5.8-4.4-7.8-7.7c2.1,4.7,5.7,8.9,9.8,11.2l52.5,29    c6.2,3.4,11.3,0.7,11.5-6c0-0.2-0.9-163.1-0.9-163.1C157.7,53.6,156.2,49.5,153.9,45.8z"></path>
		
			<linearGradient id="SVGID_00000015352542451538539530000014639954470791523715_" gradientUnits="userSpaceOnUse" x1="187.7428" y1="136.6606" x2="261.3703" y2="136.6606" gradientTransform="matrix(1 0 0 1 -102.9349 0)">
			<stop offset="0" style="stop-color:#EEEEF0"></stop>
			<stop offset="1" style="stop-color:#E0E0E1"></stop>
		</linearGradient>
		<path style="fill:url(#SVGID_00000015352542451538539530000014639954470791523715_);" d="M153.7,45.6c1.2,2.7,1.9,5.5,1.9,8.1    c0,0,0.8,163.8,0.8,164c-0.2,6.7-4.6,8.8-10.8,5.4l-53-29.5c-3-1.7-5.8-4.4-7.8-7.7c2.1,4.6,5.7,8.9,9.7,11.2l52.4,29    c6.2,3.4,11.2,0.7,11.5-5.9c0-0.2-0.9-163-0.9-163C157.5,53.4,156,49.3,153.7,45.6z"></path>
		
			<linearGradient id="SVGID_00000183212394776011000670000017524554129710054791_" gradientUnits="userSpaceOnUse" x1="194.5234" y1="136.4004" x2="268.0557" y2="136.4004" gradientTransform="matrix(1 0 0 1 -109.7972 0)">
			<stop offset="0" style="stop-color:#F0F0F2"></stop>
			<stop offset="1" style="stop-color:#E1E1E2"></stop>
		</linearGradient>
		<path style="fill:url(#SVGID_00000183212394776011000670000017524554129710054791_);" d="M153.5,45.4c1.2,2.7,1.9,5.5,1.9,8.1    c0,0,0.8,163.8,0.8,163.9c-0.2,6.7-4.5,8.8-10.8,5.4l-53-29.4c-3-1.6-5.7-4.4-7.8-7.6c2.1,4.6,5.7,8.9,9.7,11.1l52.3,29    c6.2,3.4,11.2,0.7,11.5-5.9c0-0.2-0.9-162.9-0.9-162.9C157.3,53.2,155.8,49,153.5,45.4z"></path>
		
			<linearGradient id="SVGID_00000052823824752669710470000001983206116384618929_" gradientUnits="userSpaceOnUse" x1="201.3041" y1="136.1402" x2="274.7411" y2="136.1402" gradientTransform="matrix(1 0 0 1 -116.6595 0)">
			<stop offset="0" style="stop-color:#F2F2F4"></stop>
			<stop offset="1" style="stop-color:#E2E2E3"></stop>
		</linearGradient>
		<path style="fill:url(#SVGID_00000052823824752669710470000001983206116384618929_);" d="M153.3,45.2c1.2,2.7,1.9,5.5,1.9,8.1    c0,0,0.8,163.7,0.8,163.9c-0.2,6.7-4.5,8.8-10.8,5.4l-52.9-29.4c-3-1.6-5.7-4.4-7.8-7.6c2.1,4.6,5.7,8.9,9.7,11.1l52.3,28.9    c6.2,3.4,11.2,0.7,11.4-5.9c0-0.2-0.9-162.9-0.9-162.9C157.1,52.9,155.7,48.8,153.3,45.2z"></path>
		
			<linearGradient id="SVGID_00000108303505200197417550000017033578751101014463_" gradientUnits="userSpaceOnUse" x1="208.0848" y1="135.88" x2="281.4266" y2="135.88" gradientTransform="matrix(1 0 0 1 -123.5219 0)">
			<stop offset="0" style="stop-color:#F4F5F5"></stop>
			<stop offset="1" style="stop-color:#E3E3E4"></stop>
		</linearGradient>
		<path style="fill:url(#SVGID_00000108303505200197417550000017033578751101014463_);" d="M153.2,45c1.2,2.7,1.9,5.5,1.9,8.1    c0,0,0.8,163.6,0.8,163.8c-0.2,6.7-4.5,8.8-10.7,5.4l-52.8-29.4c-3-1.6-5.7-4.4-7.8-7.6c2.1,4.6,5.7,8.9,9.7,11.1l52.2,28.9    c6.2,3.4,11.2,0.7,11.4-5.9c0-0.2-0.9-162.8-0.9-162.8C157,52.7,155.5,48.6,153.2,45z"></path>
		
			<linearGradient id="SVGID_00000150824191272674976960000011861612461186296965_" gradientUnits="userSpaceOnUse" x1="214.8654" y1="135.6199" x2="288.112" y2="135.6199" gradientTransform="matrix(1 0 0 1 -130.3842 0)">
			<stop offset="0" style="stop-color:#F6F7F7"></stop>
			<stop offset="1" style="stop-color:#E4E4E5"></stop>
		</linearGradient>
		<path style="fill:url(#SVGID_00000150824191272674976960000011861612461186296965_);" d="M153,44.8c1.2,2.7,1.9,5.5,1.9,8.1    c0,0,0.8,163.5,0.8,163.7c-0.2,6.7-4.5,8.8-10.7,5.4l-52.8-29.3c-3-1.6-5.7-4.4-7.8-7.6c2.1,4.6,5.7,8.9,9.7,11.1l52.1,28.9    c6.2,3.4,11.2,0.7,11.4-5.9c0-0.2-0.9-162.7-0.9-162.7C156.8,52.5,155.3,48.4,153,44.8z"></path>
		
			<linearGradient id="SVGID_00000168797732023969503960000016945356817228891563_" gradientUnits="userSpaceOnUse" x1="221.6461" y1="135.3597" x2="294.7975" y2="135.3597" gradientTransform="matrix(1 0 0 1 -137.2465 0)">
			<stop offset="0" style="stop-color:#F9F9F9"></stop>
			<stop offset="1" style="stop-color:#E5E6E6"></stop>
		</linearGradient>
		<path style="fill:url(#SVGID_00000168797732023969503960000016945356817228891563_);" d="M152.8,44.6c1.2,2.7,1.9,5.5,1.9,8    c0,0,0.8,163.5,0.8,163.6c-0.2,6.6-4.5,8.7-10.7,5.4l-52.7-29.3c-3-1.6-5.7-4.4-7.8-7.6c2.1,4.6,5.6,8.9,9.7,11.1l52.1,28.8    c6.2,3.4,11.2,0.7,11.4-5.9c0-0.2-0.9-162.6-0.9-162.6C156.6,52.3,155.1,48.2,152.8,44.6z"></path>
		
			<linearGradient id="SVGID_00000061462659864981461900000013803064314962220729_" gradientUnits="userSpaceOnUse" x1="228.4267" y1="135.0995" x2="301.4829" y2="135.0995" gradientTransform="matrix(1 0 0 1 -144.1088 0)">
			<stop offset="0" style="stop-color:#FBFBFB"></stop>
			<stop offset="1" style="stop-color:#E7E7E7"></stop>
		</linearGradient>
		<path style="fill:url(#SVGID_00000061462659864981461900000013803064314962220729_);" d="M152.6,44.4c1.2,2.7,1.9,5.4,1.9,8    c0,0,0.9,163.4,0.8,163.6c-0.2,6.6-4.5,8.7-10.7,5.3l-52.6-29.2c-3-1.6-5.7-4.4-7.8-7.6c2.1,4.6,5.6,8.9,9.7,11.1l52,28.8    c6.2,3.4,11.2,0.7,11.4-5.9c0-0.2-0.9-162.6-0.9-162.6C156.4,52.1,154.9,48,152.6,44.4z"></path>
		
			<linearGradient id="SVGID_00000090255203827531731370000005175478869501651851_" gradientUnits="userSpaceOnUse" x1="235.2074" y1="134.8393" x2="308.1684" y2="134.8393" gradientTransform="matrix(1 0 0 1 -150.9712 0)">
			<stop offset="0" style="stop-color:#FDFDFD"></stop>
			<stop offset="1" style="stop-color:#E8E8E8"></stop>
		</linearGradient>
		<path style="fill:url(#SVGID_00000090255203827531731370000005175478869501651851_);" d="M152.5,44.2c1.2,2.6,1.9,5.4,1.9,8    c0,0,0.9,163.3,0.8,163.5c-0.2,6.6-4.5,8.7-10.7,5.3L92,191.8c-3-1.6-5.7-4.4-7.8-7.6c2.1,4.6,5.6,8.8,9.7,11.1l51.9,28.8    c6.2,3.4,11.1,0.7,11.4-5.9c0-0.2-0.9-162.5-0.9-162.5C156.3,51.9,154.8,47.8,152.5,44.2z"></path>
		
			<linearGradient id="SVGID_00000030448432125272415210000005229900270325551290_" gradientUnits="userSpaceOnUse" x1="241.9881" y1="134.5792" x2="314.8538" y2="134.5792" gradientTransform="matrix(1 0 0 1 -157.8335 0)">
			<stop offset="0" style="stop-color:#FFFFFF"></stop>
			<stop offset="1" style="stop-color:#E9E9E9"></stop>
		</linearGradient>
		<path style="fill:url(#SVGID_00000030448432125272415210000005229900270325551290_);" d="M152.3,44c1.2,2.6,1.9,5.4,1.9,8    c0,0,0.9,163.2,0.8,163.4c-0.2,6.6-4.5,8.7-10.7,5.3l-52.5-29.2c-3-1.6-5.7-4.4-7.7-7.6c2.1,4.6,5.6,8.8,9.6,11l51.9,28.7    c6.2,3.4,11.1,0.7,11.3-5.9c0-0.2-0.9-162.4-0.9-162.4C156.1,51.7,154.6,47.6,152.3,44z"></path>
	</g>
	<g>
		<path class="st3" d="M98,191.2l-4.6,0.6c-0.1,0-0.1,0.1-0.1,0.1c0,0.1,0,0.1,0.1,0.2l3.8,4.8l0.3-0.2l-3.6-4.5l4.3-0.5L98,191.2z"></path>
	</g>
</g>
<g>
	<g>
		<path class="st28" d="M128.3,92.6c-3.8-4.8-8.6-9.3-14.6-11.6c-3.1-1.2-6.5-1.8-10-1.3c-2.2,0.3-4.3,1.2-6.5,1.9    c7.5-2.5,14.4,0.9,19.9,5.3c5.8,4.7,11.3,12,14.2,18.8c6,13.9,9.3,28.7,5.5,43.9c-2,8.1-6.7,17-15.4,19.9c1.3-0.4,2.7-0.9,4-1.3    c2.9-1,5.4-2.8,7.5-5c4-4.2,6.3-9.7,7.6-15.1c3.2-13.2,1.2-27.2-3.5-39.3C135.1,102.9,132.1,97.4,128.3,92.6z"></path>
		<polygon class="st28" points="97.3,81.6 86.6,87.2 115.2,173.5 127.9,167.2 132.1,162.4 138.6,151.5 139.9,129.7 133.6,103.6     120.4,87.2 105.9,80.1 100.4,80.7   "></polygon>
		<g>
			
				<linearGradient id="SVGID_00000178164168822144593560000009551620795740346549_" gradientUnits="userSpaceOnUse" x1="72.1311" y1="130.2445" x2="130.3638" y2="130.2445">
				<stop offset="0" style="stop-color:#F29300"></stop>
				<stop offset="0.7323" style="stop-color:#F8B204"></stop>
				<stop offset="1" style="stop-color:#FBBF05"></stop>
			</linearGradient>
			<path style="fill:url(#SVGID_00000178164168822144593560000009551620795740346549_);" d="M111.5,93.1c-15-13.9-31.8-8.5-37.5,12     c-5.2,18.9,0.9,44.1,13.6,58.8c1.1,1.2,2.2,2.4,3.4,3.5c13.2,12.2,27.8,9.5,35-5.3c1-2,1.8-4.2,2.5-6.7     C134.2,134.9,126.5,107,111.5,93.1z"></path>
		</g>
	</g>
	
		<linearGradient id="SVGID_00000160191049104336761780000009322925238151829934_" gradientUnits="userSpaceOnUse" x1="94.0151" y1="68.2683" x2="127.5826" y2="68.2683">
		<stop offset="0" style="stop-color:#EEEFF8"></stop>
		<stop offset="1" style="stop-color:#D2D5ED"></stop>
	</linearGradient>
	<path style="fill:url(#SVGID_00000160191049104336761780000009322925238151829934_);" d="M127.6,65.2c0-8.9-6.9-19.7-15.7-24.6   c-4.7-2.6-9.4-3.2-12.8-1.4c-3.3,1.6-5.1,5.1-5.1,9.6v33.5l0,0c0,0,0,0,0,0.1c0,0.7,1.5,1.5,3.3,1.9c1.8,0.3,3.2,0.1,3.2-0.6   c0,0,0-0.1,0-0.1l0,0V50.1c0-2.4,0.8-4.1,2.3-4.8c1.7-0.8,4.2-0.5,6.9,1.1c6.2,3.4,11.4,11.5,11.4,17.6v32.2l0.1,0   c0,0-0.1,0.1-0.1,0.1c0,0.7,1.5,1.5,3.3,1.9c1.8,0.3,3.3,0.1,3.3-0.6c0,0,0-0.1-0.1-0.1l0.1,0V65.2z"></path>
</g>
<g>
	<path class="st31" d="M102.1,154c-1-0.2-2-0.5-3-1.1c-1.3-0.7-2.6-1.8-3.8-3.1c-1.9-2.1-3.6-4.7-4.8-7.7c-1.1-2.7-1.8-5.6-2.1-8.4   c-0.3-3.7,0.1-7,1.2-9.8c0.6-1.4,1.3-2.6,2.3-3.6c2-2.2,4.6-3.1,7.6-2.6c7,1.2,13.5,10.4,14.5,20.4c0.1,0.8-0.3,1.3-0.8,1.2   c-0.5-0.1-1-0.8-1.1-1.6c-0.8-8.5-6.3-16.3-12.3-17.3c-2.5-0.4-4.7,0.3-6.4,2.2c-0.8,0.8-1.4,1.9-1.9,3.1c-1,2.3-1.3,5.2-1,8.3   c0.2,2.4,0.9,4.9,1.8,7.2c1,2.6,2.5,4.8,4.1,6.6c1,1.1,2.1,2,3.2,2.6c1.1,0.6,2.1,0.9,3.2,1c1.6,0.1,2.6-0.6,2.3-4.2   c-0.1-1.3-0.7-2.4-1.6-3.2c-0.7-0.6-1.3-0.9-1.5-1c-2.7-0.5-5.1-4-5.5-7.8c-0.1-1.4,0-2.7,0.5-3.8c0.2-0.6,0.8-0.6,1.3-0.1   c0.5,0.5,0.7,1.4,0.4,2c-0.3,0.6-0.4,1.4-0.3,2.3c0.2,2.3,1.7,4.5,3.4,4.8l0.1,0l0.1,0c1.6,0.6,4.6,2.9,5.1,7.3   c0.4,4.6-0.8,6.9-3.8,6.7C102.7,154.1,102.4,154.1,102.1,154z"></path>
	<path class="st31" d="M105.2,138.4C105.2,138.4,105.2,138.4,105.2,138.4c-0.6-0.2-1.1-0.9-1.1-1.6c-0.1-1.4-0.6-2.8-1.4-3.8   c-0.5-0.6-1.1-1-1.7-1.2c-0.5-0.2-1-0.9-1-1.7c0-0.8,0.4-1.2,0.9-1.1c1,0.3,2,1,2.8,2c1.4,1.7,2.3,4,2.4,6.3   C106.1,138,105.7,138.5,105.2,138.4z"></path>
	<path class="st31" d="M102.3,148.6c-2.4-0.4-4.9-2.2-6.8-5c-1.9-2.8-3.1-6.3-3.3-9.8c-0.4-6.4,2.8-11.1,7.3-10.6   c0.5,0.1,1,0.7,1.1,1.5c0.1,0.8-0.3,1.3-0.8,1.3c-3.5-0.4-6,3.3-5.7,8.3c0.2,2.7,1.1,5.4,2.6,7.6c1.5,2.2,3.4,3.6,5.3,3.9   c0.5,0.1,1,0.8,1.1,1.6S102.9,148.7,102.3,148.6z"></path>
	<path class="st31" d="M87,142.3c-0.4-0.1-0.8-0.5-1-1.1c-0.9-2.7-1.5-5.5-1.7-8.2c-0.6-6.6,0.6-12.4,3.4-16.4c2.9-4,7-5.7,11.6-4.7   c4.4,0.9,8.8,4.2,12.3,9.3c3.5,5,5.8,11.3,6.4,17.6c0.1,0.8,0.1,1.7,0.2,2.5c0,1.9-0.5,3.5-1.4,4.5c-0.1,0.1-0.1,0.1-0.2,0.2   c-0.5,0.6-1.3,1.5-3.2,0.7c-2.7-1.1-4-3.7-4.6-5.7c-0.7-2.1-0.7-3.9-0.7-4c0-0.8,0.4-1.2,0.9-1.1c0.5,0.2,1,0.9,1,1.7   c0,0,0,1.4,0.5,2.8c0.6,1.8,1.6,3,2.9,3.6c1,0.4,1.2,0.1,1.7-0.4c0.1-0.1,0.1-0.2,0.2-0.2c0.5-0.6,0.8-1.5,0.8-2.7   c0-0.7-0.1-1.5-0.1-2.2c-1.1-11.6-8.4-22.1-16.6-23.8c-4.1-0.9-7.7,0.6-10.2,4.2c-2.5,3.6-3.6,8.7-3.1,14.5   c0.2,2.5,0.8,4.9,1.5,7.3c0.2,0.8,0.1,1.5-0.4,1.7C87.2,142.3,87.1,142.3,87,142.3z"></path>
	<path class="st31" d="M82.3,121.4c-0.1,0-0.3-0.1-0.5-0.2c-0.5-0.4-0.8-1.3-0.6-1.9c1.3-4.5,3.5-8.2,6.4-10.5   c3-2.4,6.7-3.3,10.6-2.6c6.3,1.1,12.6,6.1,17.3,13.8c0.4,0.7,0.4,1.5,0,1.9c-0.4,0.4-1,0.2-1.4-0.4c-4.2-7-9.9-11.6-15.7-12.6   c-7.2-1.2-13.1,3.4-15.5,12C82.9,121.3,82.6,121.5,82.3,121.4z"></path>
	<path class="st31" d="M104.2,159.9c0,0-0.1,0-0.2,0c-2.9-0.5-5.8-1.9-8.6-4c-0.5-0.4-0.8-1.3-0.7-1.9c0.2-0.7,0.7-0.9,1.2-0.5   c2.5,1.9,5.1,3.1,7.8,3.6c0.3,0.1,0.6,0.1,0.9,0.1c0.5,0.1,1,0.7,1.1,1.5c0.1,0.8-0.3,1.3-0.8,1.3C104.8,160,104.5,160,104.2,159.9   z"></path>
	<path class="st31" d="M111.7,111.1c-0.2,0-0.4-0.1-0.6-0.3c-4.1-4.2-8.7-6.9-13.2-7.6c-3.9-0.7-7.6,0.1-10.7,2.2   c-0.4,0.3-1-0.1-1.4-0.8c-0.3-0.7-0.2-1.5,0.2-1.8c3.4-2.3,7.4-3.1,11.6-2.3c4.9,0.8,9.9,3.7,14.3,8.3c0.5,0.5,0.7,1.4,0.5,2   C112.3,111,112.1,111.1,111.7,111.1z"></path>
</g>
</svg>
