<?xml version="1.0" encoding="UTF-8"?>
<!-- Generator: Adobe Illustrator 27.3.1, SVG Export Plug-In . SVG Version: 6.00 Build 0)  -->
<svg xmlns="http://www.w3.org/2000/svg" xmlns:xlink="http://www.w3.org/1999/xlink" version="1.1" id="Layer_1" x="0px" y="0px" viewBox="0 0 249 301" style="enable-background:new 0 0 249 301;" xml:space="preserve">
<style type="text/css">
	.st0{fill:#E0395C;}
	.st1{fill:#FFFFFF;}
	.st2{fill:#7FB9AA;}
	.st3{fill:#63B345;}
	.st4{fill:url(#XMLID_00000178173105064114547690000004126938618809514627_);}
	.st5{fill:url(#XMLID_00000114059992875742656230000006504267052642203783_);}
	.st6{fill:#CED6EE;}
	.st7{fill:url(#XMLID_00000027605174702056932580000008535666666683994005_);}
	.st8{fill:url(#XMLID_00000098926941033522549480000003386866946449419963_);}
	.st9{fill:url(#XMLID_00000109009912640533854740000004079564066871335355_);}
	.st10{fill:url(#XMLID_00000036930045270354406800000008080941937029023620_);}
	.st11{fill:url(#XMLID_00000062905701004691367210000010059372811259394985_);}
	.st12{fill:url(#XMLID_00000105428708605044990030000011386282682017750705_);}
	.st13{fill:#F5F5FA;}
	.st14{fill:url(#XMLID_00000109747215558555469020000017554882772254636969_);}
	.st15{fill:#123247;}
	.st16{fill:url(#XMLID_00000098222076995582762020000011917578873888319635_);}
	.st17{fill:url(#XMLID_00000007394036720210484760000011055729523049610880_);}
	.st18{fill:url(#XMLID_00000048491366043721844760000016673836396786327944_);}
	.st19{fill:url(#XMLID_00000137834033251242172650000015927712302196132232_);}
	.st20{fill:url(#XMLID_00000026846049052328225280000017464587136674561441_);}
	.st21{fill:url(#XMLID_00000122687131973938358790000007220201412673148596_);}
	.st22{fill:url(#XMLID_00000173142862372185704150000006827836406753228936_);}
	.st23{fill:url(#XMLID_00000165201875527277129080000012313783570341680307_);}
	.st24{fill:url(#XMLID_00000179630474354421601480000008991385335095330708_);}
	.st25{fill:url(#XMLID_00000006704316026335233050000001575328112756262033_);}
	.st26{fill:url(#SVGID_1_);}
	.st27{fill:url(#SVGID_00000119109484061090421280000004445077582351481777_);}
	.st28{fill:url(#SVGID_00000154423483751727673430000015402221257535614649_);}
	.st29{fill:url(#SVGID_00000110471755030540588460000002101775894967777960_);}
	.st30{fill:url(#SVGID_00000173121641707919471870000014417848310928378542_);}
	.st31{fill:url(#SVGID_00000166669036528808285740000016544201176611170214_);}
	.st32{fill:url(#SVGID_00000040556796327496726040000011353609835880653209_);}
	.st33{fill:url(#SVGID_00000114779824535931188600000008609124565823776415_);}
	.st34{fill:url(#SVGID_00000013891599311433465380000011801758734032773299_);}
	.st35{fill:url(#SVGID_00000100381005366831138050000003152753144558863534_);}
	.st36{fill:url(#SVGID_00000060726387380830157350000000673907014901384354_);}
	.st37{fill:url(#SVGID_00000072244998455960922260000006919148697343050387_);}
	.st38{fill:#BB2946;}
	.st39{fill:#D36750;}
	.st40{fill:url(#SVGID_00000103952333983526419620000013996940734535639689_);}
	.st41{fill:url(#SVGID_00000181780974663649362730000015965948584971291039_);}
	.st42{fill:url(#SVGID_00000172420345464245471360000000319184230824442283_);}
	.st43{opacity:0.3;}
	.st44{fill:#2E2B28;}
</style>
<circle class="st0" cx="129.8" cy="184.2" r="113.2"></circle>
<polygon class="st1" points="205.1,171.2 197,166.6 195.3,167.6 203.3,172.1 "></polygon>
<polygon class="st1" points="203.2,174.7 198.9,172.3 197.1,173.3 201.4,175.7 "></polygon>
<polygon class="st1" points="205.5,180.7 198.4,176.7 196.6,177.7 203.7,181.7 "></polygon>
<g>
	<path class="st2" d="M88.8,222.1l7.2,16.4l3.8-8.7h-2.6c-1.1,0-2.1-0.7-2.5-1.7l-0.9-2.2c-0.1-0.2,0.1-0.3,0.2-0.3H106   c0.4,0,0.6,0.4,0.5,0.7l-8.2,18.8c-0.1,0.2-0.3,0.3-0.5,0.3h-3.7c-0.2,0-0.4-0.1-0.5-0.3l-10.5-24.3c-0.1-0.2,0.1-0.4,0.2-0.4l3,0   C87.4,220.5,88.4,221.1,88.8,222.1z"></path>
</g>
<g>
	<path class="st3" d="M86.4,248.9l-7.2-16.4l-3.8,8.7H78c1.1,0,2.1,0.7,2.5,1.7l0.9,2.2c0.1,0.2-0.1,0.3-0.2,0.3H69.2   c-0.4,0-0.6-0.4-0.5-0.7l8.2-18.8c0.1-0.2,0.3-0.3,0.5-0.3h3.7c0.2,0,0.4,0.1,0.5,0.3l10.5,24.3c0.1,0.2-0.1,0.4-0.2,0.4l-3,0   C87.8,250.6,86.8,249.9,86.4,248.9z"></path>
</g>
<g>
	<g>
		
			<linearGradient id="XMLID_00000059285737747625124900000007326125450899508390_" gradientUnits="userSpaceOnUse" x1="4.1039" y1="185.6714" x2="235" y2="185.6714">
			<stop offset="8.000000e-08" style="stop-color:#D5DCF0"></stop>
			<stop offset="1" style="stop-color:#C7C8E6"></stop>
		</linearGradient>
		<path id="XMLID_296_" style="fill:url(#XMLID_00000059285737747625124900000007326125450899508390_);" d="M230.4,154.9L166,117.4    c-4-2-8.8-2-12.8,0.3c0,0-145.7,83.7-146,83.9c-4.9,3.8-3.9,11.9,1.7,15.1l64.4,37.5c4,2,8.7,1.9,12.5-0.4    c0,0,144.9-83.4,145.1-83.6C236.6,166.5,236.2,158.3,230.4,154.9z"></path>
		
			<linearGradient id="XMLID_00000151520524407504708640000003181878513325318302_" gradientUnits="userSpaceOnUse" x1="222.0541" y1="171.4169" x2="226.4966" y2="171.4169">
			<stop offset="0" style="stop-color:#F5F5FA"></stop>
			<stop offset="1" style="stop-color:#DDDDF0"></stop>
		</linearGradient>
		<path id="XMLID_295_" style="fill:url(#XMLID_00000151520524407504708640000003181878513325318302_);" d="M225.4,172.3l-2.2,1.2    c-0.6,0.4-1.1,0-1.1-0.9l0,0c0-0.8,0.5-1.8,1.1-2.2l2.2-1.2c0.6-0.4,1.1,0,1.1,0.9l0,0C226.5,171,226,172,225.4,172.3z"></path>
		<path id="XMLID_294_" class="st6" d="M223.2,170.5c-0.6,0.4-1.1,1.3-1.1,2.2c0,0.2,0.1,0.4,0.1,0.5c0.1,0,0.2,0,0.3-0.1l2.2-1.2    c0.6-0.4,1.1-1.3,1.1-2.2c0-0.2,0-0.4-0.1-0.5c-0.1,0-0.2,0.1-0.3,0.1L223.2,170.5z"></path>
		<g id="XMLID_292_">
			
				<linearGradient id="XMLID_00000173128328635002762070000014001564748489568678_" gradientUnits="userSpaceOnUse" x1="225.1869" y1="171.4076" x2="227.6436" y2="171.4076">
				<stop offset="8.000000e-08" style="stop-color:#D5DCF0"></stop>
				<stop offset="1" style="stop-color:#C7C8E6"></stop>
			</linearGradient>
			<path id="XMLID_293_" style="fill:url(#XMLID_00000173128328635002762070000014001564748489568678_);" d="M226.4,172.8     L226.4,172.8c-0.7,0.3-1.2-0.1-1.2-0.9l0,0c0-0.8,0.6-1.6,1.3-1.9l0,0c0.7-0.3,1.2,0.1,1.2,0.9l0,0     C227.6,171.7,227,172.6,226.4,172.8z"></path>
		</g>
		
			<linearGradient id="XMLID_00000052074619310250306950000003631251117406637720_" gradientUnits="userSpaceOnUse" x1="224.2061" y1="170.9387" x2="227.2477" y2="170.9387">
			<stop offset="0" style="stop-color:#F5F5FA"></stop>
			<stop offset="1" style="stop-color:#DDDDF0"></stop>
		</linearGradient>
		<path id="XMLID_291_" style="fill:url(#XMLID_00000052074619310250306950000003631251117406637720_);" d="M225.2,171.9    c0-0.8,0.6-1.6,1.3-1.9c0.3-0.1,0.5-0.1,0.7,0h0l-1-0.8c-0.2-0.1-0.4-0.1-0.7,0c-0.7,0.3-1.3,1.1-1.3,1.9c0,0.4,0.2,0.8,0.2,0.8    l1,0.8C225.3,172.6,225.2,172.3,225.2,171.9z"></path>
		
			<linearGradient id="XMLID_00000056405690427056948640000003618671638751428265_" gradientUnits="userSpaceOnUse" x1="181.1643" y1="193.828" x2="190.8209" y2="193.828">
			<stop offset="0" style="stop-color:#F5F5FA"></stop>
			<stop offset="1" style="stop-color:#DDDDF0"></stop>
		</linearGradient>
		<path id="XMLID_290_" style="fill:url(#XMLID_00000056405690427056948640000003618671638751428265_);" d="M182.4,196.8    c0-0.8,0.5-1.8,1.1-2.2l6.5-3.7c0.3-0.2,0.6-0.2,0.8,0l-1.1-0.7l-0.1-0.1c-0.2-0.2-0.5-0.2-0.8,0l-6.5,3.7    c-0.6,0.4-1.1,1.3-1.1,2.2c0,0.4,0.1,0.7,0.3,0.8l0.1,0l0,0c0,0,0,0,0,0l1.2,0.9C182.5,197.6,182.4,197.3,182.4,196.8z"></path>
		<g id="XMLID_287_">
			<g id="XMLID_288_">
				
					<linearGradient id="XMLID_00000178170747608852495170000000805692969550323841_" gradientUnits="userSpaceOnUse" x1="182.4095" y1="194.3165" x2="191.1761" y2="194.3165">
					<stop offset="8.000000e-08" style="stop-color:#D5DCF0"></stop>
					<stop offset="1" style="stop-color:#C7C8E6"></stop>
				</linearGradient>
				<path id="XMLID_289_" style="fill:url(#XMLID_00000178170747608852495170000000805692969550323841_);" d="M190,194l-6.5,3.7      c-0.6,0.4-1.1,0-1.1-0.9l0,0c0-0.8,0.5-1.8,1.1-2.2l6.5-3.7c0.6-0.4,1.1,0,1.1,0.9l0,0C191.2,192.6,190.7,193.6,190,194z"></path>
			</g>
		</g>
		<g>
			
				<linearGradient id="XMLID_00000084493723896293157800000017538679909348098435_" gradientUnits="userSpaceOnUse" x1="195.4182" y1="186.3685" x2="202.2973" y2="186.3685">
				<stop offset="0" style="stop-color:#F5F5FA"></stop>
				<stop offset="1" style="stop-color:#DDDDF0"></stop>
			</linearGradient>
			<path id="XMLID_286_" style="fill:url(#XMLID_00000084493723896293157800000017538679909348098435_);" d="M196.7,188.6     c0-0.8,0.5-1.8,1.1-2.2l3.7-2.1c0.3-0.2,0.6-0.2,0.8,0l-1.1-0.7l-0.1-0.1c-0.2-0.2-0.5-0.2-0.8,0l-3.7,2.1     c-0.6,0.4-1.1,1.3-1.1,2.2c0,0.4,0.1,0.7,0.3,0.8l0.1,0l0,0c0,0,0,0,0,0l1.2,0.9C196.8,189.3,196.7,189,196.7,188.6z"></path>
			<g id="XMLID_283_">
				<g id="XMLID_284_">
					
						<linearGradient id="XMLID_00000114041241420444055430000002125919210612219292_" gradientUnits="userSpaceOnUse" x1="196.6616" y1="186.8578" x2="202.6538" y2="186.8578">
						<stop offset="8.000000e-08" style="stop-color:#D5DCF0"></stop>
						<stop offset="1" style="stop-color:#C7C8E6"></stop>
					</linearGradient>
					<path id="XMLID_285_" style="fill:url(#XMLID_00000114041241420444055430000002125919210612219292_);" d="M201.5,187.3       l-3.7,2.1c-0.6,0.4-1.1,0-1.1-0.9l0,0c0-0.8,0.5-1.8,1.1-2.2l3.7-2.1c0.6-0.4,1.1,0,1.1,0.9l0,0       C202.7,186,202.1,186.9,201.5,187.3z"></path>
				</g>
			</g>
		</g>
		<g id="XMLID_281_">
			<path id="XMLID_282_" class="st13" d="M7.3,201.5l145.9-83.8c3.9-2.3,8.7-2.4,12.8-0.4l65.1,37.9c3.3,2.4,3.9,7.3,0.3,9.4     L86,248.2c-3.8,2.2-8.6,2.4-12.5,0.4L8.3,210.7C3.7,208,4,203.7,7.3,201.5z"></path>
		</g>
		
			<linearGradient id="XMLID_00000144298797912860276070000006485790025576837274_" gradientUnits="userSpaceOnUse" x1="11.1478" y1="183.0342" x2="227.6424" y2="183.0342">
			<stop offset="0" style="stop-color:#003B4D"></stop>
			<stop offset="0.5506" style="stop-color:#476080"></stop>
			<stop offset="1" style="stop-color:#41607F"></stop>
		</linearGradient>
		<path id="XMLID_280_" style="fill:url(#XMLID_00000144298797912860276070000006485790025576837274_);" d="M225.6,156.9L163.4,121    c-2.8-1.4-6.2-1.3-8.9,0.3L12.9,202.8c-2.3,1.5-2.5,4.5,0.7,6.5l62.1,35.8c2.8,1.4,6.1,1.3,8.8-0.3l141.3-81.3    C228.4,162,228.2,158.2,225.6,156.9z"></path>
		<g id="XMLID_278_">
			<path id="XMLID_279_" class="st15" d="M186.8,132.7L186.8,132.7c-0.5-0.3-0.4-0.7,0-1l0,0c0.5-0.3,1.2-0.3,1.6-0.1l0.1,0     c0.4,0.2,0.4,0.7-0.1,0.9l0,0C188,132.9,187.2,133,186.8,132.7z"></path>
		</g>
		<g id="XMLID_276_">
			<path id="XMLID_277_" class="st15" d="M203.4,142.3l-14.3-8.2c-0.4-0.2-0.4-0.7,0.1-0.9l0,0c0.5-0.3,1.2-0.3,1.6-0.1l14.3,8.2     c0.4,0.2,0.4,0.7-0.1,0.9l0,0C204.6,142.5,203.9,142.5,203.4,142.3z"></path>
		</g>
		<g id="XMLID_254_">
			<g id="XMLID_273_">
				
					<linearGradient id="XMLID_00000096740581759899729200000004865388717429353385_" gradientUnits="userSpaceOnUse" x1="54.96" y1="241.3155" x2="56.5679" y2="241.3155">
					<stop offset="0" style="stop-color:#5C539E"></stop>
					<stop offset="1" style="stop-color:#7F78B6"></stop>
				</linearGradient>
				<path id="XMLID_274_" style="fill:url(#XMLID_00000096740581759899729200000004865388717429353385_);" d="M55.7,242.2      c-0.4-0.2-0.7-0.8-0.7-1.2c0-0.3,0.1-0.5,0.3-0.6c0.2-0.1,0.4-0.1,0.6,0c0.4,0.2,0.7,0.8,0.7,1.2c0,0.3-0.1,0.5-0.3,0.6      c-0.1,0-0.2,0.1-0.3,0.1C55.9,242.3,55.8,242.3,55.7,242.2z"></path>
			</g>
			<g id="XMLID_270_">
				
					<linearGradient id="XMLID_00000183220426214055643270000001509416274368724379_" gradientUnits="userSpaceOnUse" x1="57.6885" y1="242.8912" x2="59.2968" y2="242.8912">
					<stop offset="0" style="stop-color:#5C539E"></stop>
					<stop offset="1" style="stop-color:#7F78B6"></stop>
				</linearGradient>
				<path id="XMLID_271_" style="fill:url(#XMLID_00000183220426214055643270000001509416274368724379_);" d="M58.4,243.8      c-0.4-0.2-0.7-0.8-0.7-1.2c0-0.3,0.1-0.5,0.3-0.6c0.2-0.1,0.4-0.1,0.6,0c0.4,0.2,0.7,0.8,0.7,1.2c0,0.3-0.1,0.5-0.3,0.6      c-0.1,0-0.2,0.1-0.3,0.1C58.6,243.9,58.5,243.8,58.4,243.8z"></path>
			</g>
			<g id="XMLID_267_">
				
					<linearGradient id="XMLID_00000000224368091662113660000001471403800349973680_" gradientUnits="userSpaceOnUse" x1="60.417" y1="244.4668" x2="62.0253" y2="244.4668">
					<stop offset="0" style="stop-color:#5C539E"></stop>
					<stop offset="1" style="stop-color:#7F78B6"></stop>
				</linearGradient>
				<path id="XMLID_268_" style="fill:url(#XMLID_00000000224368091662113660000001471403800349973680_);" d="M61.1,245.3      c-0.4-0.2-0.7-0.8-0.7-1.2c0-0.3,0.1-0.5,0.3-0.6c0.2-0.1,0.4-0.1,0.6,0c0.4,0.2,0.7,0.8,0.7,1.2c0,0.3-0.1,0.5-0.3,0.6      c-0.1,0-0.2,0.1-0.3,0.1C61.4,245.4,61.2,245.4,61.1,245.3z"></path>
			</g>
			<g id="XMLID_262_">
				
					<linearGradient id="XMLID_00000160180790622121686160000011076417206907875755_" gradientUnits="userSpaceOnUse" x1="63.1474" y1="246.0418" x2="64.7554" y2="246.0418">
					<stop offset="0" style="stop-color:#5C539E"></stop>
					<stop offset="1" style="stop-color:#7F78B6"></stop>
				</linearGradient>
				<path id="XMLID_265_" style="fill:url(#XMLID_00000160180790622121686160000011076417206907875755_);" d="M63.8,246.9      c-0.4-0.2-0.7-0.8-0.7-1.2c0-0.3,0.1-0.5,0.3-0.6c0.2-0.1,0.4-0.1,0.6,0c0.4,0.2,0.7,0.8,0.7,1.2c0,0.3-0.1,0.5-0.3,0.6      c-0.1,0-0.2,0.1-0.3,0.1C64.1,247,64,247,63.8,246.9z"></path>
			</g>
			<g id="XMLID_259_">
				
					<linearGradient id="XMLID_00000178207267390359422070000002522973307571913897_" gradientUnits="userSpaceOnUse" x1="65.8759" y1="247.6169" x2="67.4842" y2="247.6169">
					<stop offset="0" style="stop-color:#5C539E"></stop>
					<stop offset="1" style="stop-color:#7F78B6"></stop>
				</linearGradient>
				<path id="XMLID_260_" style="fill:url(#XMLID_00000178207267390359422070000002522973307571913897_);" d="M66.6,248.5      c-0.4-0.2-0.7-0.8-0.7-1.2c0-0.3,0.1-0.5,0.3-0.6c0.2-0.1,0.4-0.1,0.6,0c0.4,0.2,0.7,0.8,0.7,1.2c0,0.3-0.1,0.5-0.3,0.6      c-0.1,0-0.2,0.1-0.3,0.1C66.8,248.6,66.7,248.6,66.6,248.5z"></path>
			</g>
		</g>
		<g id="XMLID_238_">
			<g id="XMLID_251_">
				
					<linearGradient id="XMLID_00000099621437730980701180000001025754778907210172_" gradientUnits="userSpaceOnUse" x1="12.2789" y1="216.555" x2="13.8869" y2="216.555">
					<stop offset="0" style="stop-color:#5C539E"></stop>
					<stop offset="1" style="stop-color:#7F78B6"></stop>
				</linearGradient>
				<path id="XMLID_252_" style="fill:url(#XMLID_00000099621437730980701180000001025754778907210172_);" d="M13,217.4      c-0.4-0.2-0.7-0.8-0.7-1.2c0-0.3,0.1-0.5,0.3-0.6c0.2-0.1,0.4-0.1,0.6,0c0.4,0.2,0.7,0.8,0.7,1.2c0,0.3-0.1,0.5-0.3,0.6      c-0.1,0-0.2,0.1-0.3,0.1C13.2,217.5,13.1,217.5,13,217.4z"></path>
			</g>
			<g id="XMLID_248_">
				
					<linearGradient id="XMLID_00000124138927938198575560000001035510727704967829_" gradientUnits="userSpaceOnUse" x1="15.009" y1="218.1299" x2="16.6173" y2="218.1299">
					<stop offset="0" style="stop-color:#5C539E"></stop>
					<stop offset="1" style="stop-color:#7F78B6"></stop>
				</linearGradient>
				<path id="XMLID_249_" style="fill:url(#XMLID_00000124138927938198575560000001035510727704967829_);" d="M15.7,219      c-0.4-0.2-0.7-0.8-0.7-1.2c0-0.3,0.1-0.5,0.3-0.6c0.2-0.1,0.4-0.1,0.6,0c0.4,0.2,0.7,0.8,0.7,1.2c0,0.3-0.1,0.5-0.3,0.6      c-0.1,0-0.2,0.1-0.3,0.1C16,219.1,15.8,219.1,15.7,219z"></path>
			</g>
			<g id="XMLID_245_">
				
					<linearGradient id="XMLID_00000109720404199509079290000003119776644319024829_" gradientUnits="userSpaceOnUse" x1="17.7378" y1="219.7061" x2="19.3458" y2="219.7061">
					<stop offset="0" style="stop-color:#5C539E"></stop>
					<stop offset="1" style="stop-color:#7F78B6"></stop>
				</linearGradient>
				<path id="XMLID_246_" style="fill:url(#XMLID_00000109720404199509079290000003119776644319024829_);" d="M18.4,220.6      c-0.4-0.2-0.7-0.8-0.7-1.2c0-0.3,0.1-0.5,0.3-0.6c0.2-0.1,0.4-0.1,0.6,0c0.4,0.2,0.7,0.8,0.7,1.2c0,0.3-0.1,0.5-0.3,0.6      c-0.1,0-0.2,0.1-0.3,0.1C18.7,220.7,18.6,220.6,18.4,220.6z"></path>
			</g>
			<g id="XMLID_242_">
				
					<linearGradient id="XMLID_00000056420243031504962680000002986308192248248471_" gradientUnits="userSpaceOnUse" x1="20.4663" y1="221.2822" x2="22.0746" y2="221.2822">
					<stop offset="0" style="stop-color:#5C539E"></stop>
					<stop offset="1" style="stop-color:#7F78B6"></stop>
				</linearGradient>
				<path id="XMLID_243_" style="fill:url(#XMLID_00000056420243031504962680000002986308192248248471_);" d="M21.2,222.1      c-0.4-0.2-0.7-0.8-0.7-1.2c0-0.3,0.1-0.5,0.3-0.6c0.2-0.1,0.4-0.1,0.6,0c0.4,0.2,0.7,0.8,0.7,1.2c0,0.3-0.1,0.5-0.3,0.6      c-0.1,0-0.2,0.1-0.3,0.1C21.4,222.3,21.3,222.2,21.2,222.1z"></path>
			</g>
			<g id="XMLID_239_">
				
					<linearGradient id="XMLID_00000004546166001221878120000011838548599922826931_" gradientUnits="userSpaceOnUse" x1="23.1949" y1="222.8574" x2="24.8031" y2="222.8574">
					<stop offset="0" style="stop-color:#5C539E"></stop>
					<stop offset="1" style="stop-color:#7F78B6"></stop>
				</linearGradient>
				<path id="XMLID_240_" style="fill:url(#XMLID_00000004546166001221878120000011838548599922826931_);" d="M23.9,223.7      c-0.4-0.2-0.7-0.8-0.7-1.2c0-0.3,0.1-0.5,0.3-0.6c0.2-0.1,0.4-0.1,0.6,0c0.4,0.2,0.7,0.8,0.7,1.2c0,0.3-0.1,0.5-0.3,0.6      c-0.1,0-0.2,0.1-0.3,0.1C24.1,223.8,24,223.8,23.9,223.7z"></path>
			</g>
		</g>
	</g>
	<g>
		<linearGradient id="SVGID_1_" gradientUnits="userSpaceOnUse" x1="41.6661" y1="214.9657" x2="84.6277" y2="214.9657">
			<stop offset="0" style="stop-color:#F29300"></stop>
			<stop offset="0.7323" style="stop-color:#F8B204"></stop>
			<stop offset="1" style="stop-color:#FBBF05"></stop>
		</linearGradient>
		<path class="st26" d="M56.8,204.1L82,218.6c3.4,2,3.5,5.2,0,7.2c-3.5,2-9.1,2-12.6,0l-25.2-14.6c-3.5-2-3.5-5.2,0-7.3    C47.7,202.1,53.3,202.1,56.8,204.1z"></path>
		<path class="st1" d="M75.7,227.9c-2.4,0-4.7-0.5-6.5-1.5L44,211.8c-1.8-1.1-2.9-2.5-2.9-4.1c0-1.6,1-3,2.9-4.1    c3.6-2.1,9.5-2.1,13.1,0c0,0,0,0,0,0l25.2,14.6c1.8,1.1,2.9,2.5,2.9,4.1c0,1.6-1,3-2.9,4.1C80.5,227.4,78.1,227.9,75.7,227.9z     M50.5,203.1c-2.2,0-4.3,0.5-6,1.4c-1.5,0.9-2.3,2-2.3,3.2c0,1.2,0.8,2.3,2.3,3.2l25.2,14.6c3.3,1.9,8.7,1.9,12,0    c1.5-0.9,2.3-2,2.3-3.1c0-1.2-0.8-2.3-2.3-3.2l-25.2-14.6C54.9,203.6,52.7,203.1,50.5,203.1z"></path>
	</g>
	<g>
		<g>
			
				<linearGradient id="SVGID_00000016778491725808008920000009241069241832927110_" gradientUnits="userSpaceOnUse" x1="69.7107" y1="221.8808" x2="81.8752" y2="221.8808">
				<stop offset="0" style="stop-color:#F29300"></stop>
				<stop offset="0.7323" style="stop-color:#F8B204"></stop>
				<stop offset="1" style="stop-color:#FBBF05"></stop>
			</linearGradient>
			<path style="fill:url(#SVGID_00000016778491725808008920000009241069241832927110_);" d="M75.8,218.6c3.4,0,6.1,1.4,6.1,3.2     c0,0.1,0,0.1,0,0.2c-0.2,1.7-2.8,3.1-6.1,3.1c-3.4,0-6.1-1.4-6.1-3.2C69.7,220.1,72.4,218.6,75.8,218.6z"></path>
			<path class="st1" d="M75.8,225.7c-3.7,0-6.6-1.7-6.6-3.8s2.9-3.8,6.6-3.8c3.7,0,6.6,1.7,6.6,3.8c0,0.1,0,0.1,0,0.2     C82.2,224.1,79.3,225.7,75.8,225.7z M75.8,219.2c-3.3,0-5.5,1.4-5.5,2.7c0,1.3,2.2,2.7,5.5,2.7c3.2,0,5.4-1.3,5.5-2.6l0-0.1     C81.3,220.6,79.1,219.2,75.8,219.2z"></path>
		</g>
		<g>
			<path class="st1" d="M79.6,222.4h-7.4c-0.2,0-0.4-0.1-0.5-0.3c-0.1-0.2,0-0.4,0.1-0.6l1.6-1.6l0.8,0.8l-0.6,0.6h6.1V222.4z"></path>
		</g>
	</g>
</g>
<polygon class="st1" points="142.8,164.7 134.3,159.9 132.5,160.9 141,165.7 "></polygon>
<polygon class="st1" points="132.5,158.9 128.3,156.5 126.5,157.5 130.7,159.9 "></polygon>
<polygon class="st1" points="132,153.9 128.3,151.9 126.5,152.9 130.2,154.9 "></polygon>
<polygon class="st1" points="138,157.4 133.8,155 132,155.9 136.3,158.4 "></polygon>
<polygon class="st1" points="149.3,159.1 132.5,149.6 130.7,150.6 147.5,160 "></polygon>
<polygon class="st1" points="140.3,149.3 136.7,147.3 134.9,148.3 138.5,150.3 "></polygon>
<polygon class="st1" points="146.4,152.8 142.1,150.4 140.4,151.3 144.6,153.8 "></polygon>
<polygon class="st1" points="150.1,150.2 140.9,145 139.1,146 148.3,151.2 "></polygon>
<polygon class="st1" points="156.3,153.7 152,151.3 150.2,152.2 154.5,154.7 "></polygon>
<polygon class="st1" points="181.6,167.2 177.3,164.8 175.5,165.7 179.8,168.2 "></polygon>
<polygon class="st1" points="191.6,172.8 183.5,168.3 181.7,169.2 189.8,173.8 "></polygon>
<polygon class="st1" points="195.1,165.5 190.9,163.1 189.1,164.1 193.3,166.5 "></polygon>
<linearGradient id="SVGID_00000094581486843184113860000005873851741610624156_" gradientUnits="userSpaceOnUse" x1="147.474" y1="142.0675" x2="153.5199" y2="142.0675">
	<stop offset="8.000000e-08" style="stop-color:#0097AD"></stop>
	<stop offset="1" style="stop-color:#6CC4D2"></stop>
</linearGradient>
<polygon style="fill:url(#SVGID_00000094581486843184113860000005873851741610624156_);" points="153.5,142.8 149.3,140.4   147.5,141.4 151.7,143.8 "></polygon>
<polygon class="st1" points="178.8,156.3 174.6,153.9 172.8,154.8 177.1,157.3 "></polygon>
<polygon class="st1" points="188.8,161.9 180.8,157.4 179,158.4 187.1,162.9 "></polygon>
<polygon class="st1" points="197,171.2 192.7,168.8 190.9,169.8 195.2,172.2 "></polygon>
<polygon class="st1" points="156.6,158.3 148.6,153.7 146.8,154.7 154.9,159.3 "></polygon>
<polygon class="st1" points="181,148.2 176.8,145.8 175,146.7 179.2,149.1 "></polygon>
<polygon class="st1" points="191,153.8 183,149.3 181.2,150.2 189.2,154.8 "></polygon>
<polygon class="st1" points="181.1,176.3 176.9,173.8 175.1,174.8 179.3,177.2 "></polygon>
<polygon class="st1" points="155.5,162.6 151.3,160.2 149.5,161.2 153.8,163.6 "></polygon>
<linearGradient id="SVGID_00000163794978722507298270000008202640653307997370_" gradientUnits="userSpaceOnUse" x1="181.2667" y1="180.1342" x2="191.1128" y2="180.1342">
	<stop offset="8.000000e-08" style="stop-color:#0097AD"></stop>
	<stop offset="1" style="stop-color:#6CC4D2"></stop>
</linearGradient>
<polygon style="fill:url(#SVGID_00000163794978722507298270000008202640653307997370_);" points="191.1,181.9 183.1,177.4   181.3,178.3 189.3,182.9 "></polygon>
<polygon class="st1" points="148.9,144.9 145.1,142.7 143.3,143.7 147.1,145.8 "></polygon>
<polygon class="st1" points="160.3,151.3 151,146 149.2,147 158.5,152.3 "></polygon>
<polygon class="st1" points="190.8,167.8 181.5,162.5 179.7,163.4 189.1,168.7 "></polygon>
<polygon class="st1" points="197,185.3 193.2,183.1 191.4,184.1 195.2,186.3 "></polygon>
<polygon class="st1" points="106.8,182.5 98.3,177.7 96.5,178.6 105,183.5 "></polygon>
<polygon class="st1" points="96.6,176.7 92.3,174.3 90.5,175.2 94.8,177.7 "></polygon>
<polygon class="st1" points="102.1,175.1 97.8,172.7 96,173.7 100.3,176.1 "></polygon>
<polygon class="st1" points="129.8,190.5 125.6,188.1 123.8,189 128,191.4 "></polygon>
<polygon class="st1" points="112,180.9 104,176.4 102.2,177.3 110.3,181.9 "></polygon>
<polygon class="st1" points="117.9,188.8 108.6,183.5 106.8,184.5 116.1,189.7 "></polygon>
<linearGradient id="SVGID_00000010309265735742752310000003680914612648421560_" gradientUnits="userSpaceOnUse" x1="151.7446" y1="141.2547" x2="162.8718" y2="141.2547">
	<stop offset="8.000000e-08" style="stop-color:#D52249"></stop>
	<stop offset="1" style="stop-color:#E94E6F"></stop>
</linearGradient>
<polygon style="fill:url(#SVGID_00000010309265735742752310000003680914612648421560_);" points="162.9,143.4 153.5,138.1   151.7,139.1 161.1,144.4 "></polygon>
<polygon class="st1" points="186.9,156.2 184.1,154.6 182.3,155.5 185.1,157.2 "></polygon>
<polygon class="st1" points="191.9,159 189,157.4 187.2,158.3 190.1,160 "></polygon>
<polygon class="st1" points="201,164.2 193.9,160.2 192.1,161.1 199.2,165.1 "></polygon>
<polygon class="st1" points="196.3,175.5 193.5,173.9 191.7,174.9 194.5,176.5 "></polygon>
<polygon class="st1" points="199.8,158.8 192.8,154.8 191,155.8 198,159.8 "></polygon>
<polygon class="st1" points="87.5,210.5 70.8,201.1 69,202 85.7,211.5 "></polygon>
<polygon class="st1" points="76,194.4 71.8,192 70,193 74.2,195.4 "></polygon>
<polygon class="st1" points="82.7,198.2 78.4,195.8 76.6,196.8 80.9,199.2 "></polygon>
<polygon class="st1" points="92.7,203.9 84.6,199.3 82.8,200.3 90.9,204.8 "></polygon>
<polygon class="st1" points="92.3,199 88,196.5 86.2,197.5 90.5,199.9 "></polygon>
<polygon class="st1" points="102.3,204.6 94.2,200.1 92.4,201 100.5,205.6 "></polygon>
<polygon class="st1" points="85.5,190.4 76.3,185.2 74.5,186.2 83.7,191.4 "></polygon>
<polygon class="st1" points="91.7,193.9 87.4,191.5 85.6,192.5 89.9,194.9 "></polygon>
<polygon class="st1" points="97.9,197.4 93.6,195 91.8,196 96.1,198.4 "></polygon>
<polygon class="st1" points="107.8,203.1 99.8,198.5 98,199.5 106.1,204.1 "></polygon>
<polygon class="st1" points="114.2,206.7 110,204.3 108.2,205.3 112.5,207.7 "></polygon>
<linearGradient id="SVGID_00000002356638375567965420000002834383309919401909_" gradientUnits="userSpaceOnUse" x1="58.2771" y1="197.3736" x2="68.1232" y2="197.3736">
	<stop offset="8.000000e-08" style="stop-color:#0097AD"></stop>
	<stop offset="1" style="stop-color:#6CC4D2"></stop>
</linearGradient>
<polygon style="fill:url(#SVGID_00000002356638375567965420000002834383309919401909_);" points="68.1,199.2 60.1,194.6 58.3,195.6   66.3,200.1 "></polygon>
<polygon class="st1" points="103.5,191.3 99.2,188.9 97.5,189.9 101.7,192.3 "></polygon>
<polygon class="st1" points="113.5,197 105.4,192.4 103.6,193.4 111.7,197.9 "></polygon>
<polygon class="st1" points="81.3,178.7 77,176.3 75.2,177.3 79.5,179.7 "></polygon>
<polygon class="st1" points="87.4,182.2 83.2,179.8 81.4,180.8 85.7,183.2 "></polygon>
<linearGradient id="SVGID_00000082326052112965932290000009230223276336856723_" gradientUnits="userSpaceOnUse" x1="87.591" y1="186.0647" x2="97.4388" y2="186.0647">
	<stop offset="0" style="stop-color:#F29300"></stop>
	<stop offset="0.7323" style="stop-color:#F8B204"></stop>
	<stop offset="1" style="stop-color:#FBBF05"></stop>
</linearGradient>
<polygon style="fill:url(#SVGID_00000082326052112965932290000009230223276336856723_);" points="97.4,187.9 89.4,183.3 87.6,184.3   95.7,188.8 "></polygon>
<polygon class="st1" points="84.3,185.1 80.5,182.9 78.7,183.9 82.5,186.1 "></polygon>
<polygon class="st1" points="95.7,191.6 86.4,186.3 84.6,187.3 93.9,192.5 "></polygon>
<polygon class="st1" points="107.1,198 97.8,192.7 96,193.7 105.3,199 "></polygon>
<polygon class="st1" points="98.8,216.8 89.4,211.5 87.6,212.5 97,217.8 "></polygon>
<polygon class="st1" points="88,177.8 85.1,176.2 83.3,177.2 86.2,178.8 "></polygon>
<polygon class="st1" points="92.9,180.6 90.1,179 88.3,180 91.1,181.6 "></polygon>
<polygon class="st1" points="102.1,185.8 95,181.8 93.2,182.8 100.3,186.8 "></polygon>
<polygon class="st1" points="113.3,192.4 106.2,188.4 104.4,189.4 111.5,193.4 "></polygon>
<polygon class="st1" points="67.4,184.9 64.6,183.2 62.8,184.2 65.6,185.9 "></polygon>
<polygon class="st1" points="76.6,190 69.5,186 67.7,187 74.8,191 "></polygon>
<linearGradient id="SVGID_00000063618456755533460260000014077178533390544315_" gradientUnits="userSpaceOnUse" x1="77.0333" y1="193.8197" x2="85.8774" y2="193.8197">
	<stop offset="0" style="stop-color:#F29300"></stop>
	<stop offset="0.7323" style="stop-color:#F8B204"></stop>
	<stop offset="1" style="stop-color:#FBBF05"></stop>
</linearGradient>
<polygon style="fill:url(#SVGID_00000063618456755533460260000014077178533390544315_);" points="85.9,195.3 78.8,191.3 77,192.3   84.1,196.3 "></polygon>
<polygon class="st1" points="75.6,198.7 71.4,196.3 69.6,197.3 73.8,199.7 "></polygon>
<polygon class="st1" points="85.6,204.4 77.5,199.8 75.8,200.8 83.8,205.4 "></polygon>
<linearGradient id="SVGID_00000035506602573529086910000013807486886103567544_" gradientUnits="userSpaceOnUse" x1="107.1507" y1="201.5417" x2="115.9946" y2="201.5417">
	<stop offset="8.000000e-08" style="stop-color:#0097AD"></stop>
	<stop offset="1" style="stop-color:#6CC4D2"></stop>
</linearGradient>
<polygon style="fill:url(#SVGID_00000035506602573529086910000013807486886103567544_);" points="116,203.1 108.9,199.1 107.2,200   114.2,204 "></polygon>
<polygon class="st1" points="69.2,195.1 62.1,191.1 60.4,192.1 67.4,196.1 "></polygon>
<polygon class="st1" points="135.5,184.3 118.8,174.8 117,175.8 133.7,185.3 "></polygon>
<polygon class="st1" points="124,168.2 119.8,165.7 118,166.7 122.2,169.1 "></polygon>
<linearGradient id="SVGID_00000105409670931946141340000017378744947761025452_" gradientUnits="userSpaceOnUse" x1="124.6523" y1="171.2173" x2="130.6984" y2="171.2173">
	<stop offset="0" style="stop-color:#F29300"></stop>
	<stop offset="0.7323" style="stop-color:#F8B204"></stop>
	<stop offset="1" style="stop-color:#FBBF05"></stop>
</linearGradient>
<polygon style="fill:url(#SVGID_00000105409670931946141340000017378744947761025452_);" points="130.7,171.9 126.4,169.5   124.7,170.5 128.9,172.9 "></polygon>
<polygon class="st1" points="140.7,177.6 132.6,173 130.8,174 138.9,178.6 "></polygon>
<polygon class="st1" points="140.3,172.7 136,170.3 134.3,171.3 138.5,173.7 "></polygon>
<polygon class="st1" points="133.5,164.2 124.3,159 122.5,159.9 131.7,165.2 "></polygon>
<polygon class="st1" points="139.7,167.7 135.4,165.3 133.6,166.2 137.9,168.7 "></polygon>
<polygon class="st1" points="116.1,172.9 108.1,168.3 106.3,169.3 114.4,173.9 "></polygon>
<polygon class="st1" points="146.8,190.6 137.4,185.3 135.7,186.3 145,191.5 "></polygon>
<polygon class="st1" points="115.4,158.6 112.6,157 110.8,158 113.7,159.6 "></polygon>
<linearGradient id="SVGID_00000039130679711188552150000006899525715549846149_" gradientUnits="userSpaceOnUse" x1="115.7263" y1="162.2756" x2="124.5718" y2="162.2756">
	<stop offset="0" style="stop-color:#F29300"></stop>
	<stop offset="0.7323" style="stop-color:#F8B204"></stop>
	<stop offset="1" style="stop-color:#FBBF05"></stop>
</linearGradient>
<polygon style="fill:url(#SVGID_00000039130679711188552150000006899525715549846149_);" points="124.6,163.8 117.5,159.8   115.7,160.8 122.8,164.8 "></polygon>
<polygon class="st1" points="133.9,169.1 126.8,165.1 125,166.1 132.1,170.1 "></polygon>
<polygon class="st1" points="123.6,172.5 119.4,170.1 117.6,171 121.8,173.5 "></polygon>
<polygon class="st1" points="133.6,178.1 125.6,173.6 123.8,174.6 131.8,179.1 "></polygon>
<polygon class="st1" points="117.2,168.8 110.2,164.8 108.4,165.8 115.4,169.8 "></polygon>
<polygon class="st1" points="157.4,130.9 154.5,129.3 152.7,130.3 155.6,131.9 "></polygon>
<polygon class="st1" points="185.6,146.1 178.6,142.1 176.8,143.1 183.8,147.1 "></polygon>
<linearGradient id="SVGID_00000044142361499447635360000017999038453755664267_" gradientUnits="userSpaceOnUse" x1="186.1021" y1="149.8718" x2="194.9476" y2="149.8718">
	<stop offset="8.000000e-08" style="stop-color:#D52249"></stop>
	<stop offset="1" style="stop-color:#E94E6F"></stop>
</linearGradient>
<polygon style="fill:url(#SVGID_00000044142361499447635360000017999038453755664267_);" points="194.9,151.4 187.9,147.4   186.1,148.4 193.2,152.4 "></polygon>
<g>
	<path class="st38" d="M163.4,54.2L211.7,159c2.8,6.3-3,12.8-9.6,9.3l-100.2-60.7c-3.2-1.8-3.6-6.3-0.8-8.7l54.4-46.5   C158,50.2,161.9,51.1,163.4,54.2z"></path>
	<path class="st39" d="M205.8,170.3c-1.4,0-2.8-0.4-4.2-1.1l-100.2-60.7c-1.8-1-2.9-2.8-3.1-4.9c-0.2-2.1,0.6-4.1,2.2-5.5l54.4-46.5   c1.5-1.3,3.4-1.7,5.3-1.3c1.9,0.4,3.5,1.7,4.3,3.5l48.3,104.8c1.5,3.5,0.8,7.4-1.8,9.8C209.4,169.7,207.7,170.3,205.8,170.3z"></path>
</g>
<g>
	
		<linearGradient id="SVGID_00000117641385259725780880000008782810027396827527_" gradientUnits="userSpaceOnUse" x1="95.7283" y1="111.0254" x2="208.6715" y2="111.0254">
		<stop offset="0" style="stop-color:#F29300"></stop>
		<stop offset="0.7323" style="stop-color:#F8B204"></stop>
		<stop offset="1" style="stop-color:#FBBF05"></stop>
	</linearGradient>
	<path style="fill:url(#SVGID_00000117641385259725780880000008782810027396827527_);" d="M159.9,56.4l48.3,104.8   c2.1,4.6-2.8,9.3-7.1,6.9L98.4,109.7c-3.2-1.8-3.6-6.3-0.8-8.7l54.4-46.5C154.5,52.4,158.4,53.3,159.9,56.4z"></path>
	
		<linearGradient id="SVGID_00000135649312083880904990000017539343339663025024_" gradientUnits="userSpaceOnUse" x1="94.6557" y1="111.0205" x2="209.7448" y2="111.0205">
		<stop offset="0" style="stop-color:#F29300"></stop>
		<stop offset="0.7323" style="stop-color:#F8B204"></stop>
		<stop offset="1" style="stop-color:#FBBF05"></stop>
	</linearGradient>
	<path style="fill:url(#SVGID_00000135649312083880904990000017539343339663025024_);" d="M203.5,169.7c-1,0-2.1-0.3-3-0.8   L97.8,110.6c-1.8-1-3-2.9-3.2-4.9c-0.2-2.1,0.6-4.1,2.2-5.5l54.4-46.5c1.5-1.3,3.4-1.7,5.3-1.3c1.9,0.4,3.5,1.7,4.3,3.5l48.3,104.8   c1.2,2.6,0.6,5.5-1.5,7.4C206.5,169.2,205,169.7,203.5,169.7z M155.2,54.4c-0.9,0-1.8,0.3-2.6,1l-54.4,46.5   c-1.1,0.9-1.6,2.2-1.5,3.6c0.1,1.4,0.9,2.6,2.1,3.3l102.7,58.3c1.8,1,3.6,0.4,4.6-0.5c1.1-1,1.9-2.8,1-4.9L158.9,56.8   c-0.5-1.2-1.6-2-2.8-2.3C155.8,54.5,155.5,54.4,155.2,54.4z"></path>
</g>
<g>
	
		<linearGradient id="SVGID_00000088103582261599308880000015807014189861285771_" gradientUnits="userSpaceOnUse" x1="104.0117" y1="109.9842" x2="199.0149" y2="109.9842">
		<stop offset="0" style="stop-color:#F29300"></stop>
		<stop offset="0.7323" style="stop-color:#F8B204"></stop>
		<stop offset="1" style="stop-color:#FBBF05"></stop>
	</linearGradient>
	<path style="fill:url(#SVGID_00000088103582261599308880000015807014189861285771_);" d="M104.5,103.6l48.8-41.7   c0.7-0.6,1.9-0.4,2.3,0.5l43.3,94c0.6,1.3-0.8,2.6-2,1.9l-92.1-52.3C103.9,105.4,103.8,104.2,104.5,103.6z"></path>
	<path class="st1" d="M197.6,159.5c-0.4,0-0.9-0.1-1.3-0.3l-92.1-52.3c-0.7-0.4-1.2-1.1-1.3-1.9c-0.1-0.8,0.2-1.6,0.9-2.2l0,0   l48.8-41.7c0.6-0.5,1.4-0.7,2.2-0.5c0.8,0.2,1.4,0.7,1.7,1.4l43.3,94c0.5,1,0.2,2.2-0.6,2.9C198.8,159.3,198.2,159.5,197.6,159.5z    M105.2,104.4c-0.1,0.1-0.1,0.2-0.1,0.3c0,0.1,0,0.2,0.2,0.3l92.1,52.3c0.2,0.1,0.3,0,0.4-0.1c0.1-0.1,0.2-0.2,0.1-0.4l-43.3-94   c-0.1-0.1-0.2-0.2-0.3-0.2c-0.1,0-0.2,0-0.3,0.1L105.2,104.4z"></path>
</g>
<g>
	<path class="st1" d="M150.7,109.9L150.7,109.9c-0.7-0.4-1.1-1.1-1.1-1.8l-1.6-31.4c-0.1-1.8,1.8-2.9,3.3-2l3.3,1.9   c0.7,0.4,1.2,1.2,1.1,2l-1.6,29.5C153.9,109.8,152.1,110.8,150.7,109.9z"></path>
	<path class="st1" d="M146.3,116.3c0,3.4,2.4,7.6,5.4,9.4c3,1.7,5.4,0.3,5.4-3.1c0-3.4-2.4-7.6-5.4-9.4   C148.7,111.5,146.3,112.9,146.3,116.3z"></path>
</g>
<g id="XMLID_235_" class="st43">
	<path id="XMLID_237_" class="st44" d="M123,140.6l0.2-0.1c3.1-1.7,6.9-1.7,10,0l60.1,33.8c2.2,1.3,2.2,4.4,0,5.6l0,0   c-3.1,1.7-6.9,1.7-10,0L123,146.2C120.8,144.9,120.8,141.8,123,140.6z"></path>
</g>
</svg>
